<svg width="28" height="28" viewBox="0 0 28 28" fill="none" xmlns="http://www.w3.org/2000/svg">
<g id="ai-content-generator-01-solid-rounded">
<path id="Vector" d="M20.5126 16.5718C20.7912 15.8654 21.7908 15.8654 22.0694 16.5718L22.1177 16.6942C22.7981 18.4193 24.1637 19.7849 25.8889 20.4653L26.0113 20.5136C26.7177 20.7922 26.7177 21.7918 26.0113 22.0704L25.8889 22.1187C24.1637 22.7991 22.7981 24.1647 22.1177 25.8899L22.0694 26.0122C21.7908 26.7187 20.7912 26.7187 20.5126 26.0122L20.4643 25.8899C19.7839 24.1647 18.4184 22.7991 16.6932 22.1187L16.5708 22.0704C15.8644 21.7918 15.8644 20.7922 16.5708 20.5136L16.6932 20.4653C18.4184 19.7849 19.7839 18.4193 20.4643 16.6942L20.5126 16.5718Z" fill="white"/>
<path id="Vector_2" fill-rule="evenodd" clip-rule="evenodd" d="M14.0665 1.45801C16.2106 1.458 17.9088 1.45797 19.2378 1.63667C20.6056 1.82056 21.7128 2.20803 22.5859 3.08112C23.4589 3.95422 23.8464 5.06133 24.0304 6.42915C24.209 7.75822 24.209 9.4565 24.209 11.6005V12.9C24.209 14.5985 24.209 16.0656 24.1535 17.3305C23.8556 16.9328 23.6086 16.4958 23.4273 16.0361C22.6633 14.0986 19.9214 14.0986 19.1573 16.0361C18.6251 17.3853 17.3863 18.6241 16.0371 19.1563C14.0996 19.9204 14.0996 22.6623 16.0371 23.4263C16.9354 23.7807 17.7469 24.3857 18.3474 25.1305C18.2935 25.1383 18.2393 25.146 18.1847 25.1534C16.5379 25.3747 14.4274 25.3747 11.7343 25.3747H11.6014C9.45742 25.3747 7.75919 25.3747 6.43013 25.1961C5.0623 25.0121 3.9552 24.6246 3.0821 23.7516C2.20901 22.8785 1.82154 21.7713 1.63765 20.4035C1.45895 19.0744 1.45897 17.3762 1.45898 15.2321V11.6005C1.45897 9.45646 1.45895 7.75823 1.63765 6.42915C1.82154 5.06133 2.20901 3.95422 3.0821 3.08112C3.9552 2.20803 5.0623 1.82056 6.43013 1.63667C7.75921 1.45797 9.45744 1.458 11.6015 1.45801H14.0665ZM8.16732 7.29134C7.68407 7.29134 7.29232 7.6831 7.29232 8.16634C7.29232 8.64959 7.68407 9.04134 8.16732 9.04134H17.5007C17.9839 9.04134 18.3757 8.64959 18.3757 8.16634C18.3757 7.6831 17.9839 7.29134 17.5007 7.29134H8.16732ZM8.16732 12.5413C7.68407 12.5413 7.29232 12.9331 7.29232 13.4163C7.29232 13.8996 7.68407 14.2913 8.16732 14.2913H17.5007C17.9839 14.2913 18.3757 13.8996 18.3757 13.4163C18.3757 12.9331 17.9839 12.5413 17.5007 12.5413H8.16732ZM8.16732 17.7913C7.68407 17.7913 7.29232 18.1831 7.29232 18.6663C7.29232 19.1496 7.68407 19.5413 8.16732 19.5413H12.834C13.3172 19.5413 13.709 19.1496 13.709 18.6663C13.709 18.1831 13.3172 17.7913 12.834 17.7913H8.16732Z" fill="white"/>
</g>
</svg>
