<svg width="28" height="28" viewBox="0 0 28 28" fill="none" xmlns="http://www.w3.org/2000/svg">
<g id="ai-image-solid-rounded 1">
<path id="Vector" fill-rule="evenodd" clip-rule="evenodd" d="M13.3319 2.625H13.4185C14.0215 2.625 14.5925 2.625 15.1307 2.62765C15.7596 2.63075 16.267 3.14315 16.264 3.77214C16.2608 4.40112 15.7484 4.90849 15.1195 4.9054C14.5873 4.90278 14.0217 4.90278 13.4167 4.90278C10.8343 4.90278 9.01215 4.90519 7.63253 5.09068C6.28568 5.27176 5.53241 5.60832 4.98705 6.15368C4.44169 6.69904 4.10513 7.45229 3.92405 8.79915C3.73858 10.1788 3.73615 12.0009 3.73615 14.5833C3.73615 17.1657 3.73858 18.9878 3.92405 20.3675C4.10513 21.7143 4.44169 22.4677 4.98705 23.013C5.53241 23.5584 6.28568 23.8948 7.63253 24.076C9.01215 24.2614 10.8343 24.2639 13.4167 24.2639C15.9991 24.2639 17.8212 24.2614 19.2009 24.076C20.5477 23.8948 21.301 23.5584 21.8463 23.013C22.3918 22.4677 22.7282 21.7143 22.9094 20.3675C23.0948 18.9878 23.0972 17.1657 23.0972 14.5833C23.0972 13.9783 23.0972 13.4127 23.0947 12.8806C23.0915 12.2516 23.5989 11.7392 24.2279 11.7361C24.8569 11.7331 25.3693 12.2404 25.3724 12.8694C25.375 13.4077 25.375 13.9787 25.375 14.5818V14.6681C25.375 17.1463 25.375 19.122 25.1668 20.671C24.9518 22.2705 24.4961 23.5845 23.457 24.6237C22.4179 25.6627 21.1039 26.1184 19.5044 26.3334C17.9554 26.5417 15.9796 26.5417 13.5015 26.5417H13.3319C10.8537 26.5417 8.87807 26.5417 7.32902 26.3334C5.72959 26.1184 4.41552 25.6627 3.37642 24.6237C2.33731 23.5845 1.88163 22.2705 1.66659 20.671C1.45833 19.122 1.45835 17.1463 1.45837 14.6681V14.4985C1.45835 12.0204 1.45833 10.0447 1.66659 8.49564C1.88163 6.89621 2.33731 5.58215 3.37642 4.54305C4.41554 3.50393 5.72959 3.04826 7.32902 2.83322C8.87806 2.62495 10.8537 2.62498 13.3319 2.625Z" fill="white"/>
<path id="Vector_2" d="M11.0833 9.91667C11.0833 11.2053 10.0386 12.25 8.74996 12.25C7.46129 12.25 6.41663 11.2053 6.41663 9.91667C6.41663 8.628 7.46129 7.58334 8.74996 7.58334C10.0386 7.58334 11.0833 8.628 11.0833 9.91667Z" fill="white"/>
<path id="Vector_3" d="M21.5833 1.45833C21.9494 1.45833 22.2769 1.6863 22.404 2.02967L22.7048 2.84287C23.1272 3.98428 23.2619 4.29439 23.4837 4.51624C23.7056 4.73808 24.0157 4.87278 25.1572 5.29514L25.9703 5.59604C26.3137 5.72311 26.5417 6.05053 26.5417 6.41667C26.5417 6.7828 26.3137 7.11023 25.9703 7.23729L25.1572 7.53819C24.0157 7.96055 23.7056 8.09525 23.4837 8.3171C23.2619 8.53894 23.1272 8.84905 22.7048 9.99046L22.404 10.8037C22.2769 11.147 21.9494 11.375 21.5833 11.375C21.2172 11.375 20.8898 11.147 20.7627 10.8037L20.4618 9.99046C20.0395 8.84905 19.9047 8.53894 19.6829 8.3171C19.461 8.09525 19.1509 7.96055 18.0095 7.53819L17.1963 7.23729C16.853 7.11023 16.625 6.7828 16.625 6.41667C16.625 6.05053 16.853 5.72311 17.1963 5.59604L18.0095 5.29514C19.1509 4.87278 19.461 4.73808 19.6829 4.51624C19.9047 4.29439 20.0395 3.98428 20.4618 2.84287L20.7627 2.02967C20.8898 1.6863 21.2172 1.45833 21.5833 1.45833Z" fill="white"/>
<path id="Vector_4" d="M5.25 25.0833C10.3512 18.9875 16.0698 10.9481 24.4971 16.3828C24.4971 19.0543 24.4971 20.3902 24.0677 21.4464C23.4751 22.9046 22.3183 24.0613 20.8601 24.654C19.8038 25.0833 18.4681 25.0833 15.7965 25.0833H5.25Z" fill="white"/>
</g>
</svg>
