<svg width="28" height="28" viewBox="0 0 28 28" fill="none" xmlns="http://www.w3.org/2000/svg">
<g id="ai-search-02-solid-rounded">
<path id="Vector" fill-rule="evenodd" clip-rule="evenodd" d="M3.79102 13.4491C3.79102 8.43761 7.85362 4.375 12.8651 4.375C13.4915 4.375 13.9993 4.88283 13.9993 5.50927C13.9993 6.1357 13.4915 6.64352 12.8651 6.64352C9.10648 6.64352 6.05953 9.69048 6.05953 13.4491C6.05953 17.2077 9.10648 20.2547 12.8651 20.2547C16.6237 20.2547 19.6706 17.2077 19.6706 13.4491C19.6706 12.8227 20.1785 12.3148 20.8048 12.3148C21.4313 12.3148 21.9392 12.8227 21.9392 13.4491C21.9392 15.546 21.2279 17.4767 20.0334 19.0134L23.8755 22.8553C24.3184 23.2983 24.3184 24.0165 23.8755 24.4595C23.4325 24.9025 22.7143 24.9025 22.2713 24.4595L18.4294 20.6174C16.8928 21.812 14.9621 22.5232 12.8651 22.5232C7.85362 22.5232 3.79102 18.4606 3.79102 13.4491Z" fill="white"/>
<path id="Vector_2" d="M18.0833 3.20801C18.4494 3.20801 18.7769 3.43597 18.904 3.77935L19.2048 4.59255C19.6272 5.73396 19.7619 6.04407 19.9837 6.26591C20.2056 6.48775 20.5157 6.62246 21.6572 7.04481L22.4703 7.34572C22.8137 7.47278 23.0417 7.80021 23.0417 8.16634C23.0417 8.53248 22.8137 8.8599 22.4703 8.98696L21.6572 9.28787C20.5157 9.71023 20.2056 9.84493 19.9837 10.0668C19.7619 10.2886 19.6272 10.5987 19.2048 11.7402L18.904 12.5533C18.7769 12.8967 18.4494 13.1246 18.0833 13.1246C17.7172 13.1246 17.3898 12.8967 17.2627 12.5533L16.9618 11.7402C16.5395 10.5987 16.4047 10.2886 16.183 10.0668C15.9611 9.84493 15.6509 9.71023 14.5095 9.28787L13.6963 8.98696C13.353 8.8599 13.125 8.53248 13.125 8.16634C13.125 7.80021 13.353 7.47278 13.6963 7.34572L14.5095 7.04481C15.6509 6.62246 15.9611 6.48775 16.183 6.26591C16.4047 6.04407 16.5395 5.73396 16.9618 4.59255L17.2627 3.77935C17.3898 3.43597 17.7172 3.20801 18.0833 3.20801Z" fill="white"/>
</g>
</svg>
