<svg width="192" height="70" viewBox="0 0 192 70" fill="none" xmlns="http://www.w3.org/2000/svg">
<path d="M16 1.5H176C184.008 1.5 190.5 7.99187 190.5 16V54C190.5 62.0081 184.008 68.5 176 68.5H16C7.99187 68.5 1.5 62.0081 1.5 54V16C1.5 7.99187 7.99187 1.5 16 1.5Z" fill="#001A48" stroke="#001A48" stroke-width="3"/>
<path d="M40.7998 28.2722L40.9219 28.2849L41.0449 28.2888C41.7831 28.312 42.5169 28.4969 43.1914 28.8141C41.6226 30.8583 40.7134 33.389 40.6797 36.0182L40.6787 36.0417V36.0651C40.6826 39.6195 42.3284 42.9637 45.0098 45.1638C44.642 45.9174 44.2157 46.6419 43.7334 47.3298L43.709 47.364L43.6865 47.3981C42.8829 48.6072 42.2759 49.4554 41.665 50.029C41.1218 50.539 40.8154 50.6045 40.5967 50.6081H40.5742C40.1043 50.619 39.8556 50.5335 38.96 50.1501C37.9735 49.7278 36.5215 49.1101 34.3691 49.11C32.2511 49.11 30.8103 49.6688 29.7598 50.11C28.7754 50.5235 28.4889 50.6446 27.9824 50.6677C27.9755 50.6679 27.966 50.669 27.9473 50.6647C27.9256 50.6598 27.8795 50.6459 27.8057 50.61C27.6471 50.5331 27.4026 50.373 27.0732 50.0622C26.3791 49.407 25.6868 48.4614 24.8574 47.2692C23.5041 45.2774 22.2471 42.3692 21.7168 39.3454C21.1812 36.2913 21.4514 33.5296 22.6172 31.4997L22.6309 31.4772L22.6436 31.4538C23.6491 29.6366 25.5922 28.4464 27.6406 28.3718C28.1455 28.3655 28.7865 28.5423 29.8398 28.9606C30.275 29.1335 30.9339 29.4101 31.499 29.6052C32.0633 29.7999 32.9186 30.0583 33.8672 30.0583C34.878 30.0583 35.8201 29.7345 36.3594 29.5388C36.8342 29.3664 37.765 28.9878 38.1504 28.8415C39.3433 28.3886 40.1605 28.2048 40.7998 28.2722Z" fill="white" stroke="white" stroke-width="6.66044"/>
<path d="M130.556 33.0066V36.5904H128.322V38.9407H130.556V46.9264C130.556 49.6532 131.783 50.7439 134.868 50.7439C135.411 50.7439 135.927 50.679 136.379 50.6011V48.2768C135.992 48.3158 135.746 48.3417 135.32 48.3417C133.939 48.3417 133.332 47.6925 133.332 46.2122V38.9407H136.379V36.5904H133.332V33.0066H130.556Z" fill="white"/>
<path d="M144.24 50.9387C148.346 50.9387 150.863 48.1729 150.863 43.5893C150.863 39.0316 148.333 36.2528 144.24 36.2528C140.134 36.2528 137.604 39.0316 137.604 43.5893C137.604 48.1729 140.121 50.9387 144.24 50.9387ZM144.24 48.4586C141.826 48.4586 140.47 46.6797 140.47 43.5893C140.47 40.5249 141.826 38.7329 144.24 38.7329C146.641 38.7329 148.01 40.5249 148.01 43.5893C148.01 46.6667 146.641 48.4586 144.24 48.4586Z" fill="white"/>
<path d="M153.018 50.666H155.793V42.3168C155.793 40.3301 157.278 38.9926 159.383 38.9926C159.873 38.9926 160.7 39.0835 160.932 39.1614V36.4087C160.635 36.3307 160.106 36.2918 159.693 36.2918C157.859 36.2918 156.297 37.3046 155.897 38.694H155.69V36.5255H153.018V50.666Z" fill="white"/>
<path d="M167.825 38.6291C169.878 38.6291 171.22 40.0704 171.285 42.2908H164.184C164.339 40.0834 165.772 38.6291 167.825 38.6291ZM171.272 46.8485C170.756 47.9522 169.606 48.5625 167.928 48.5625C165.707 48.5625 164.274 46.9913 164.184 44.5112V44.3554H174.113V43.3815C174.113 38.9407 171.75 36.2528 167.838 36.2528C163.874 36.2528 161.356 39.1225 161.356 43.6412C161.356 48.16 163.822 50.9387 167.851 50.9387C171.065 50.9387 173.312 49.3805 173.945 46.8485H171.272Z" fill="white"/>
<path d="M112.352 45.4442C112.566 48.9164 115.443 51.1371 119.726 51.1371C124.302 51.1371 127.166 48.8088 127.166 45.0942C127.166 42.1738 125.533 40.5588 121.572 39.6301L119.445 39.1052C116.929 38.5131 115.912 37.719 115.912 36.3328C115.912 34.5832 117.491 33.4392 119.859 33.4392C122.108 33.4392 123.66 34.5563 123.941 36.3463H126.858C126.684 33.0759 123.82 30.7745 119.9 30.7745C115.684 30.7745 112.874 33.0759 112.874 36.5347C112.874 39.3879 114.466 41.0836 117.959 41.9046L120.448 42.5102C123.004 43.1159 124.128 44.0041 124.128 45.4845C124.128 47.2072 122.362 48.4589 119.953 48.4589C117.37 48.4589 115.577 47.288 115.323 45.4442H112.352Z" fill="white"/>
<path d="M83.5963 36.2918C81.6854 36.2918 80.0327 37.2527 79.1806 38.8628H78.974V36.5255H76.3014V55.3666H79.0773V48.5235H79.2968C80.0327 50.0168 81.6208 50.8998 83.6221 50.8998C87.1727 50.8998 89.4322 48.082 89.4322 43.5893C89.4322 39.0965 87.1727 36.2918 83.5963 36.2918ZM82.8087 48.3937C80.4846 48.3937 79.0257 46.5498 79.0257 43.6023C79.0257 40.6417 80.4846 38.7979 82.8216 38.7979C85.1714 38.7979 86.5788 40.6028 86.5788 43.5893C86.5788 46.5888 85.1714 48.3937 82.8087 48.3937Z" fill="white"/>
<path d="M99.1456 36.2918C97.2347 36.2918 95.5821 37.2527 94.7299 38.8628H94.5233V36.5255H91.8507V55.3666H94.6266V48.5235H94.8461C95.5821 50.0168 97.1701 50.8998 99.1714 50.8998C102.722 50.8998 104.981 48.082 104.981 43.5893C104.981 39.0965 102.722 36.2918 99.1456 36.2918ZM98.358 48.3937C96.0339 48.3937 94.575 46.5498 94.575 43.6023C94.575 40.6417 96.0339 38.7979 98.3709 38.7979C100.721 38.7979 102.128 40.6028 102.128 43.5893C102.128 46.5888 100.721 48.3937 98.358 48.3937Z" fill="white"/>
<path d="M71.3209 50.666H74.5059L67.5338 31.2455H64.3087L57.3365 50.666H60.4144L62.1943 45.5115H69.5545L71.3209 50.666ZM65.7673 34.7716H65.9948L68.7917 42.9813H62.9571L65.7673 34.7716Z" fill="white"/>
<path d="M130.556 33.0066V36.5904H128.322V38.9407H130.556V46.9264C130.556 49.6532 131.783 50.7439 134.868 50.7439C135.411 50.7439 135.927 50.679 136.379 50.6011V48.2768C135.992 48.3158 135.746 48.3417 135.32 48.3417C133.939 48.3417 133.332 47.6925 133.332 46.2122V38.9407H136.379V36.5904H133.332V33.0066H130.556Z" stroke="#001A48"/>
<path d="M144.24 50.9387C148.346 50.9387 150.863 48.1729 150.863 43.5893C150.863 39.0316 148.333 36.2528 144.24 36.2528C140.134 36.2528 137.604 39.0316 137.604 43.5893C137.604 48.1729 140.121 50.9387 144.24 50.9387ZM144.24 48.4586C141.826 48.4586 140.47 46.6797 140.47 43.5893C140.47 40.5249 141.826 38.7329 144.24 38.7329C146.641 38.7329 148.01 40.5249 148.01 43.5893C148.01 46.6667 146.641 48.4586 144.24 48.4586Z" stroke="#001A48"/>
<path d="M153.018 50.666H155.793V42.3168C155.793 40.3301 157.278 38.9926 159.383 38.9926C159.873 38.9926 160.7 39.0835 160.932 39.1614V36.4087C160.635 36.3307 160.106 36.2918 159.693 36.2918C157.859 36.2918 156.297 37.3046 155.897 38.694H155.69V36.5255H153.018V50.666Z" stroke="#001A48"/>
<path d="M167.825 38.6291C169.878 38.6291 171.22 40.0704 171.285 42.2908H164.184C164.339 40.0834 165.772 38.6291 167.825 38.6291ZM171.272 46.8485C170.756 47.9522 169.606 48.5625 167.928 48.5625C165.707 48.5625 164.274 46.9913 164.184 44.5112V44.3554H174.113V43.3815C174.113 38.9407 171.75 36.2528 167.838 36.2528C163.874 36.2528 161.356 39.1225 161.356 43.6412C161.356 48.16 163.822 50.9387 167.851 50.9387C171.065 50.9387 173.312 49.3805 173.945 46.8485H171.272Z" stroke="#001A48"/>
<path d="M112.352 45.4442C112.566 48.9164 115.443 51.1371 119.726 51.1371C124.302 51.1371 127.166 48.8088 127.166 45.0942C127.166 42.1738 125.533 40.5588 121.572 39.6301L119.445 39.1052C116.929 38.5131 115.912 37.719 115.912 36.3328C115.912 34.5832 117.491 33.4392 119.859 33.4392C122.108 33.4392 123.66 34.5563 123.941 36.3463H126.858C126.684 33.0759 123.82 30.7745 119.9 30.7745C115.684 30.7745 112.874 33.0759 112.874 36.5347C112.874 39.3879 114.466 41.0836 117.959 41.9046L120.448 42.5102C123.004 43.1159 124.128 44.0041 124.128 45.4845C124.128 47.2072 122.362 48.4589 119.953 48.4589C117.37 48.4589 115.577 47.288 115.323 45.4442H112.352Z" stroke="#001A48"/>
<path d="M83.5963 36.2918C81.6854 36.2918 80.0327 37.2527 79.1806 38.8628H78.974V36.5255H76.3014V55.3666H79.0773V48.5235H79.2968C80.0327 50.0168 81.6208 50.8998 83.6221 50.8998C87.1727 50.8998 89.4322 48.082 89.4322 43.5893C89.4322 39.0965 87.1727 36.2918 83.5963 36.2918ZM82.8087 48.3937C80.4846 48.3937 79.0257 46.5498 79.0257 43.6023C79.0257 40.6417 80.4846 38.7979 82.8216 38.7979C85.1714 38.7979 86.5788 40.6028 86.5788 43.5893C86.5788 46.5888 85.1714 48.3937 82.8087 48.3937Z" stroke="#001A48"/>
<path d="M99.1456 36.2918C97.2347 36.2918 95.5821 37.2527 94.7299 38.8628H94.5233V36.5255H91.8507V55.3666H94.6266V48.5235H94.8461C95.5821 50.0168 97.1701 50.8998 99.1714 50.8998C102.722 50.8998 104.981 48.082 104.981 43.5893C104.981 39.0965 102.722 36.2918 99.1456 36.2918ZM98.358 48.3937C96.0339 48.3937 94.575 46.5498 94.575 43.6023C94.575 40.6417 96.0339 38.7979 98.3709 38.7979C100.721 38.7979 102.128 40.6028 102.128 43.5893C102.128 46.5888 100.721 48.3937 98.358 48.3937Z" stroke="#001A48"/>
<path d="M71.3209 50.666H74.5059L67.5338 31.2455H64.3087L57.3365 50.666H60.4144L62.1943 45.5115H69.5545L71.3209 50.666ZM65.7673 34.7716H65.9948L68.7917 42.9813H62.9571L65.7673 34.7716Z" stroke="#001A48"/>
<path d="M57.2596 17.5475V25.2239H60.0155C62.29 25.2239 63.6071 23.8142 63.6071 21.3618C63.6071 18.9466 62.2794 17.5475 60.0155 17.5475H57.2596ZM58.4445 18.6327H59.8832C61.4648 18.6327 62.4011 19.6435 62.4011 21.3777C62.4011 23.1386 61.4807 24.1387 59.8832 24.1387H58.4445V18.6327Z" fill="white"/>
<path d="M67.641 25.3356C69.3231 25.3356 70.3546 24.2025 70.3546 22.3247C70.3546 20.4574 69.3178 19.319 67.641 19.319C65.9589 19.319 64.9221 20.4574 64.9221 22.3247C64.9221 24.2025 65.9536 25.3356 67.641 25.3356ZM67.641 24.3196C66.6518 24.3196 66.0964 23.5908 66.0964 22.3247C66.0964 21.0692 66.6518 20.3351 67.641 20.3351C68.6249 20.3351 69.1856 21.0692 69.1856 22.3247C69.1856 23.5854 68.6249 24.3196 67.641 24.3196Z" fill="white"/>
<path d="M79.1385 19.4307H78.0013L76.9751 23.8514H76.8851L75.7003 19.4307H74.6106L73.4257 23.8514H73.3411L72.3096 19.4307H71.1565L72.7434 25.2239H73.9124L75.0972 20.9575H75.1872L76.3773 25.2239H77.5569L79.1385 19.4307Z" fill="white"/>
<path d="M80.4482 25.2239H81.5855V21.8352C81.5855 20.9309 82.1197 20.367 82.9608 20.367C83.8018 20.367 84.2039 20.8298 84.2039 21.7608V25.2239H85.3411V21.4735C85.3411 20.0957 84.6323 19.319 83.3469 19.319C82.4794 19.319 81.9082 19.7073 81.6278 20.351H81.5432V19.4307H80.4482V25.2239Z" fill="white"/>
<path d="M87.1322 25.2239H88.2695V17.1698H87.1322V25.2239Z" fill="white"/>
<path d="M92.5467 25.3356C94.2288 25.3356 95.2602 24.2025 95.2602 22.3247C95.2602 20.4574 94.2235 19.319 92.5467 19.319C90.8646 19.319 89.8278 20.4574 89.8278 22.3247C89.8278 24.2025 90.8593 25.3356 92.5467 25.3356ZM92.5467 24.3196C91.5575 24.3196 91.0021 23.5908 91.0021 22.3247C91.0021 21.0692 91.5575 20.3351 92.5467 20.3351C93.5305 20.3351 94.0912 21.0692 94.0912 22.3247C94.0912 23.5854 93.5305 24.3196 92.5467 24.3196Z" fill="white"/>
<path d="M98.6488 24.3568C98.0299 24.3568 97.5803 24.0536 97.5803 23.5322C97.5803 23.0215 97.94 22.7502 98.7334 22.697L100.14 22.6066V23.0907C100.14 23.8089 99.5057 24.3568 98.6488 24.3568ZM98.3578 25.3197C99.1143 25.3197 99.7437 24.9899 100.088 24.41H100.177V25.2239H101.272V21.266C101.272 20.0425 100.458 19.319 99.0137 19.319C97.7072 19.319 96.7762 19.9574 96.6599 20.9522H97.7601C97.8871 20.5425 98.3261 20.3085 98.9608 20.3085C99.7384 20.3085 100.14 20.6543 100.14 21.266V21.7661L98.58 21.8565C97.21 21.9416 96.4377 22.5428 96.4377 23.5854C96.4377 24.6441 97.247 25.3197 98.3578 25.3197Z" fill="white"/>
<path d="M105.132 25.3197C105.925 25.3197 106.597 24.942 106.941 24.3089H107.031V25.2239H108.12V17.1698H106.983V20.351H106.898C106.586 19.7127 105.92 19.3349 105.132 19.3349C103.677 19.3349 102.741 20.4947 102.741 22.3247C102.741 24.16 103.667 25.3197 105.132 25.3197ZM105.454 20.3617C106.407 20.3617 107.004 21.1224 107.004 22.33C107.004 23.5429 106.412 24.293 105.454 24.293C104.492 24.293 103.915 23.5535 103.915 22.3247C103.915 21.1064 104.497 20.3617 105.454 20.3617Z" fill="white"/>
<path d="M115.495 25.3356C117.177 25.3356 118.209 24.2025 118.209 22.3247C118.209 20.4574 117.172 19.319 115.495 19.319C113.813 19.319 112.776 20.4574 112.776 22.3247C112.776 24.2025 113.808 25.3356 115.495 25.3356ZM115.495 24.3196C114.506 24.3196 113.951 23.5908 113.951 22.3247C113.951 21.0692 114.506 20.3351 115.495 20.3351C116.479 20.3351 117.04 21.0692 117.04 22.3247C117.04 23.5854 116.479 24.3196 115.495 24.3196Z" fill="white"/>
<path d="M119.714 25.2239H120.851V21.8352C120.851 20.9309 121.386 20.367 122.227 20.367C123.068 20.367 123.47 20.8298 123.47 21.7608V25.2239H124.607V21.4735C124.607 20.0957 123.898 19.319 122.613 19.319C121.745 19.319 121.174 19.7073 120.894 20.351H120.809V19.4307H119.714V25.2239Z" fill="white"/>
<path d="M129.845 17.989V19.4573H128.93V20.4202H129.845V23.6918C129.845 24.809 130.347 25.2559 131.612 25.2559C131.834 25.2559 132.045 25.2293 132.23 25.1973V24.2451C132.072 24.2611 131.971 24.2717 131.797 24.2717C131.231 24.2717 130.982 24.0057 130.982 23.3993V20.4202H132.23V19.4573H130.982V17.989H129.845Z" fill="white"/>
<path d="M133.757 25.2239H134.894V21.8406C134.894 20.9628 135.413 20.3723 136.344 20.3723C137.148 20.3723 137.576 20.8404 137.576 21.7661V25.2239H138.713V21.4841C138.713 20.1063 137.957 19.3243 136.73 19.3243C135.862 19.3243 135.254 19.7127 134.974 20.3617H134.884V17.1698H133.757V25.2239Z" fill="white"/>
<path d="M142.816 20.2925C143.657 20.2925 144.207 20.883 144.234 21.7927H141.324C141.388 20.8883 141.975 20.2925 142.816 20.2925ZM144.228 23.6599C144.017 24.1121 143.546 24.3621 142.858 24.3621C141.949 24.3621 141.361 23.7184 141.324 22.7024V22.6385H145.392V22.2395C145.392 20.4202 144.424 19.319 142.821 19.319C141.197 19.319 140.166 20.4947 140.166 22.3459C140.166 24.1972 141.176 25.3356 142.827 25.3356C144.144 25.3356 145.064 24.6973 145.323 23.6599H144.228Z" fill="white"/>
<path d="M57.2596 17.5475V25.2239H60.0155C62.29 25.2239 63.6071 23.8142 63.6071 21.3618C63.6071 18.9466 62.2794 17.5475 60.0155 17.5475H57.2596ZM58.4445 18.6327H59.8832C61.4648 18.6327 62.4011 19.6435 62.4011 21.3777C62.4011 23.1386 61.4807 24.1387 59.8832 24.1387H58.4445V18.6327Z" stroke="#001A48"/>
<path d="M67.641 25.3356C69.3231 25.3356 70.3546 24.2025 70.3546 22.3247C70.3546 20.4574 69.3178 19.319 67.641 19.319C65.9589 19.319 64.9221 20.4574 64.9221 22.3247C64.9221 24.2025 65.9536 25.3356 67.641 25.3356ZM67.641 24.3196C66.6518 24.3196 66.0964 23.5908 66.0964 22.3247C66.0964 21.0692 66.6518 20.3351 67.641 20.3351C68.6249 20.3351 69.1856 21.0692 69.1856 22.3247C69.1856 23.5854 68.6249 24.3196 67.641 24.3196Z" stroke="#001A48"/>
<path d="M79.1385 19.4307H78.0013L76.9751 23.8514H76.8851L75.7003 19.4307H74.6106L73.4257 23.8514H73.3411L72.3096 19.4307H71.1565L72.7434 25.2239H73.9124L75.0972 20.9575H75.1872L76.3773 25.2239H77.5569L79.1385 19.4307Z" stroke="#001A48"/>
<path d="M80.4482 25.2239H81.5855V21.8352C81.5855 20.9309 82.1197 20.367 82.9608 20.367C83.8018 20.367 84.2039 20.8298 84.2039 21.7608V25.2239H85.3411V21.4735C85.3411 20.0957 84.6323 19.319 83.3469 19.319C82.4794 19.319 81.9082 19.7073 81.6278 20.351H81.5432V19.4307H80.4482V25.2239Z" stroke="#001A48"/>
<path d="M87.1322 25.2239H88.2695V17.1698H87.1322V25.2239Z" stroke="#001A48"/>
<path d="M92.5467 25.3356C94.2288 25.3356 95.2602 24.2025 95.2602 22.3247C95.2602 20.4574 94.2235 19.319 92.5467 19.319C90.8646 19.319 89.8278 20.4574 89.8278 22.3247C89.8278 24.2025 90.8593 25.3356 92.5467 25.3356ZM92.5467 24.3196C91.5575 24.3196 91.0021 23.5908 91.0021 22.3247C91.0021 21.0692 91.5575 20.3351 92.5467 20.3351C93.5305 20.3351 94.0912 21.0692 94.0912 22.3247C94.0912 23.5854 93.5305 24.3196 92.5467 24.3196Z" stroke="#001A48"/>
<path d="M98.6488 24.3568C98.0299 24.3568 97.5803 24.0536 97.5803 23.5322C97.5803 23.0215 97.94 22.7502 98.7334 22.697L100.14 22.6066V23.0907C100.14 23.8089 99.5057 24.3568 98.6488 24.3568ZM98.3578 25.3197C99.1143 25.3197 99.7437 24.9899 100.088 24.41H100.177V25.2239H101.272V21.266C101.272 20.0425 100.458 19.319 99.0137 19.319C97.7072 19.319 96.7762 19.9574 96.6599 20.9522H97.7601C97.8871 20.5425 98.3261 20.3085 98.9608 20.3085C99.7384 20.3085 100.14 20.6543 100.14 21.266V21.7661L98.58 21.8565C97.21 21.9416 96.4377 22.5428 96.4377 23.5854C96.4377 24.6441 97.247 25.3197 98.3578 25.3197Z" stroke="#001A48"/>
<path d="M105.132 25.3197C105.925 25.3197 106.597 24.942 106.941 24.3089H107.031V25.2239H108.12V17.1698H106.983V20.351H106.898C106.586 19.7127 105.92 19.3349 105.132 19.3349C103.677 19.3349 102.741 20.4947 102.741 22.3247C102.741 24.16 103.667 25.3197 105.132 25.3197ZM105.454 20.3617C106.407 20.3617 107.004 21.1224 107.004 22.33C107.004 23.5429 106.412 24.293 105.454 24.293C104.492 24.293 103.915 23.5535 103.915 22.3247C103.915 21.1064 104.497 20.3617 105.454 20.3617Z" stroke="#001A48"/>
<path d="M115.495 25.3356C117.177 25.3356 118.209 24.2025 118.209 22.3247C118.209 20.4574 117.172 19.319 115.495 19.319C113.813 19.319 112.776 20.4574 112.776 22.3247C112.776 24.2025 113.808 25.3356 115.495 25.3356ZM115.495 24.3196C114.506 24.3196 113.951 23.5908 113.951 22.3247C113.951 21.0692 114.506 20.3351 115.495 20.3351C116.479 20.3351 117.04 21.0692 117.04 22.3247C117.04 23.5854 116.479 24.3196 115.495 24.3196Z" stroke="#001A48"/>
<path d="M119.714 25.2239H120.851V21.8352C120.851 20.9309 121.386 20.367 122.227 20.367C123.068 20.367 123.47 20.8298 123.47 21.7608V25.2239H124.607V21.4735C124.607 20.0957 123.898 19.319 122.613 19.319C121.745 19.319 121.174 19.7073 120.894 20.351H120.809V19.4307H119.714V25.2239Z" stroke="#001A48"/>
<path d="M129.845 17.989V19.4573H128.93V20.4202H129.845V23.6918C129.845 24.809 130.347 25.2559 131.612 25.2559C131.834 25.2559 132.045 25.2293 132.23 25.1973V24.2451C132.072 24.2611 131.971 24.2717 131.797 24.2717C131.231 24.2717 130.982 24.0057 130.982 23.3993V20.4202H132.23V19.4573H130.982V17.989H129.845Z" stroke="#001A48"/>
<path d="M133.757 25.2239H134.894V21.8406C134.894 20.9628 135.413 20.3723 136.344 20.3723C137.148 20.3723 137.576 20.8404 137.576 21.7661V25.2239H138.713V21.4841C138.713 20.1063 137.957 19.3243 136.73 19.3243C135.862 19.3243 135.254 19.7127 134.974 20.3617H134.884V17.1698H133.757V25.2239Z" stroke="#001A48"/>
<path d="M142.816 20.2925C143.657 20.2925 144.207 20.883 144.234 21.7927H141.324C141.388 20.8883 141.975 20.2925 142.816 20.2925ZM144.228 23.6599C144.017 24.1121 143.546 24.3621 142.858 24.3621C141.949 24.3621 141.361 23.7184 141.324 22.7024V22.6385H145.392V22.2395C145.392 20.4202 144.424 19.319 142.821 19.319C141.197 19.319 140.166 20.4947 140.166 22.3459C140.166 24.1972 141.176 25.3356 142.827 25.3356C144.144 25.3356 145.064 24.6973 145.323 23.6599H144.228Z" stroke="#001A48"/>
</svg>
