<svg width="48" height="48" viewBox="0 0 48 48" fill="none" xmlns="http://www.w3.org/2000/svg">
<path d="M7.00049 42.5H41.0005C41.5528 42.5 42.0005 42.9477 42.0005 43.5C42.0005 44.0523 41.5528 44.5 41.0005 44.5H7.00049C6.4482 44.5 6.00049 44.0523 6.00049 43.5C6.00049 42.9477 6.4482 42.5 7.00049 42.5Z" fill="white" stroke="white" stroke-width="2"/>
<path d="M18.0005 3.5H30.0005C31.4576 3.5 32.689 3.5657 33.7202 3.74609L34.1499 3.83105C35.1998 4.0617 36.0494 4.43859 36.7075 5.04102L36.8364 5.16406C37.4269 5.75451 37.8167 6.51127 38.0698 7.44141L38.1694 7.85059C38.414 8.96438 38.5005 10.3348 38.5005 12V43H31.5005V37.5C31.5005 36.7373 31.473 35.9961 31.3735 35.3164L31.3267 35.0283L31.2671 34.7383C31.1233 34.102 30.872 33.4174 30.4009 32.7998L30.2886 32.6582C28.9847 31.0936 27.003 31 25.6675 31H22.3335C21.0396 31 19.1393 31.0881 17.8364 32.5166L17.7124 32.6582C17.1676 33.3118 16.8887 34.0537 16.7339 34.7393L16.6743 35.0283C16.536 35.7841 16.5005 36.6282 16.5005 37.5V43H9.50049V12C9.50049 10.5429 9.56617 9.31148 9.74658 8.28027L9.83154 7.85059C10.0775 6.73093 10.4898 5.83885 11.1646 5.16406C11.7551 4.57356 12.5118 4.18368 13.4419 3.93066L13.8511 3.83105C14.9648 3.5864 16.3352 3.5 18.0005 3.5ZM22.3335 36H25.6675C26.0082 36 26.2512 36.014 26.4224 36.0312C26.4684 36.3383 26.5005 36.7987 26.5005 37.5V43H21.5005V37.5C21.5005 36.7991 21.5316 36.3385 21.5776 36.0312C21.7488 36.0139 21.9921 36 22.3335 36ZM21.2407 35.9053L21.3257 36.0518H21.3247L21.2417 35.9072L21.2407 35.9053ZM21.0005 23.5C19.6197 23.5 18.5005 24.6194 18.5005 26C18.5005 27.3806 19.6197 28.5 21.0005 28.5H27.0005C28.3814 28.5 29.5005 27.3806 29.5005 26C29.5005 24.6194 28.3814 23.5 27.0005 23.5H21.0005ZM21.0005 16.5C19.6197 16.5 18.5005 17.6194 18.5005 19C18.5005 20.3806 19.6197 21.5 21.0005 21.5H27.0005C28.3814 21.5 29.5005 20.3806 29.5005 19C29.5005 17.6194 28.3814 16.5 27.0005 16.5H21.0005ZM21.0005 9.5C19.6197 9.5 18.5005 10.6194 18.5005 12C18.5005 13.3806 19.6197 14.5 21.0005 14.5H27.0005C28.3814 14.5 29.5005 13.3806 29.5005 12C29.5005 10.6194 28.3814 9.50004 27.0005 9.5H21.0005Z" fill="white" stroke="white" stroke-width="2"/>
</svg>
