<svg width="28" height="28" viewBox="0 0 28 28" fill="none" xmlns="http://www.w3.org/2000/svg">
<g id="customer-service-01-solid-rounded 1">
<path id="Vector" d="M3.70052 12.0451C4.09791 11.556 4.79344 10.6999 6.0242 10.7995C6.44153 10.8332 6.83996 11.0156 7.26334 11.2093C7.58149 11.3536 8.06748 11.5743 8.31607 11.7905C9.04277 12.4225 9.04207 13.2567 9.04167 13.739V18.9278C9.04207 19.4101 9.04277 20.2443 8.31607 20.8763C8.06748 21.0925 7.75584 21.2337 7.4377 21.3781C7.01431 21.5717 6.44153 21.8335 6.0242 21.8674C4.80494 21.9659 4.122 21.1342 3.72077 20.6456C3.61907 20.5221 3.46114 20.3372 3.32594 20.1805C3.07874 19.8941 2.79812 19.5689 2.5667 19.266C2.18445 18.7658 1.80139 18.1663 1.61112 17.4698C1.40738 16.724 1.40738 15.9428 1.61112 15.1969C1.74919 14.6915 1.999 14.2455 2.32877 13.7773C2.64813 13.324 3.16849 12.6912 3.70052 12.0451Z" fill="white"/>
<path id="Vector_2" d="M24.2994 12.0451C23.9021 11.556 23.2066 10.6999 21.9758 10.7995C21.5585 10.8332 21.1601 11.0156 20.7367 11.2093C20.4185 11.3536 19.9325 11.5743 19.684 11.7905C18.9573 12.4225 18.958 13.2567 18.9583 13.739V18.9278C18.958 19.4101 18.9573 20.2443 19.684 20.8763C19.9325 21.0925 20.2442 21.2337 20.5623 21.3781C20.9858 21.5717 21.5585 21.8335 21.9758 21.8674C23.1951 21.9659 23.878 21.1342 24.2793 20.6456C24.3809 20.5221 24.5388 20.3372 24.6741 20.1805C24.9213 19.8941 25.2019 19.5689 25.4333 19.266C25.8155 18.7658 26.1987 18.1663 26.3889 17.4698C26.5926 16.724 26.5926 15.9428 26.3889 15.1969C26.2508 14.6915 26.001 14.2455 25.6712 13.7773C25.3519 13.324 24.8316 12.6912 24.2994 12.0451Z" fill="white"/>
<path id="Vector_3" fill-rule="evenodd" clip-rule="evenodd" d="M14 3.68072C9.46798 3.68072 6.0602 6.80021 6.0602 10.3474V12.014C6.0602 12.6277 5.55239 13.1252 4.92594 13.1252C4.29951 13.1252 3.79169 12.6277 3.79169 12.014V10.3474C3.79169 5.30347 8.50912 1.4585 14 1.4585C19.4909 1.4585 24.2084 5.30347 24.2084 10.3474V12.014C24.2084 12.6277 23.7005 13.1252 23.0741 13.1252C22.4476 13.1252 21.9399 12.6277 21.9399 12.014V10.3474C21.9399 6.80021 18.5321 3.68072 14 3.68072Z" fill="white"/>
<path id="Vector_4" fill-rule="evenodd" clip-rule="evenodd" d="M19.94 23.8505C18.5064 24.3728 16.5189 24.3876 14.2333 24.3876C13.6212 24.3876 13.125 24.8698 13.125 25.4646C13.125 26.0593 13.6212 26.5415 14.2333 26.5415C14.2774 26.5415 14.3218 26.5415 14.3661 26.5415C16.4813 26.5417 18.8658 26.5421 20.7184 25.8672C21.7035 25.5082 22.6052 24.9384 23.2497 24.0325C23.8931 23.1282 24.2083 21.9902 24.2083 20.6185C24.2083 20.0237 23.7121 19.5415 23.1 19.5415C22.4879 19.5415 21.9917 20.0237 21.9917 20.6185C21.9917 21.6697 21.7527 22.349 21.4263 22.8077C21.101 23.2648 20.6173 23.6036 19.94 23.8505Z" fill="white"/>
</g>
</svg>
