<svg width="44" height="44" viewBox="0 0 44 44" fill="none" xmlns="http://www.w3.org/2000/svg">
<g clip-path="url(#clip0_1182_163)">
<rect width="44" height="44" fill="#0055F1"/>
<rect width="44" height="44" fill="#0055F1"/>
<path d="M24.94 15.19C25.3181 14.7543 25.6063 14.2482 25.7882 13.7007C25.9701 13.1533 26.0421 12.5753 26 12C24.8394 12.0937 23.762 12.6396 23 13.52C22.6351 13.942 22.3586 14.4329 22.1868 14.9636C22.015 15.4944 21.9515 16.0542 22 16.61C22.5661 16.6147 23.1258 16.4891 23.6356 16.2429C24.1454 15.9966 24.5917 15.6364 24.94 15.19ZM27.46 22.63C27.4667 21.8637 27.6685 21.1118 28.0465 20.4452C28.4244 19.7786 28.9659 19.2193 29.62 18.82C29.2072 18.2252 28.6615 17.7348 28.0262 17.3877C27.3909 17.0405 26.6835 16.8462 25.96 16.82C24.4 16.66 22.96 17.73 22.13 17.73C21.3 17.73 20.13 16.84 18.83 16.86C17.9801 16.888 17.152 17.1358 16.4265 17.5792C15.7009 18.0226 15.1026 18.6465 14.69 19.39C12.93 22.45 14.24 27 16 29.47C16.8 30.68 17.8 32.05 19.12 32C20.44 31.95 20.87 31.18 22.4 31.18C23.93 31.18 24.4 32 25.7 31.97C27 31.94 27.92 30.73 28.76 29.52C29.355 28.6415 29.8199 27.6816 30.14 26.67C29.3475 26.332 28.6713 25.7693 28.195 25.0513C27.7188 24.3333 27.4632 23.4916 27.46 22.63Z" fill="white"/>
</g>
<defs>
<clipPath id="clip0_1182_163">
<rect width="44" height="44" fill="white"/>
</clipPath>
</defs>
</svg>
