<svg width="44" height="44" viewBox="0 0 44 44" fill="none" xmlns="http://www.w3.org/2000/svg">
<g clip-path="url(#clip0_1182_157)">
<path d="M12.17 27V25.53H14.746C15.418 25.53 16.006 25.3853 16.51 25.096C17.0233 24.8067 17.42 24.4053 17.7 23.892C17.9893 23.3693 18.134 22.7673 18.134 22.086C18.134 21.414 17.9893 20.8213 17.7 20.308C17.4107 19.7947 17.0093 19.3933 16.496 19.104C15.992 18.8147 15.4087 18.67 14.746 18.67H12.17V17.2H14.788C15.4973 17.2 16.1553 17.326 16.762 17.578C17.3687 17.8207 17.896 18.166 18.344 18.614C18.8013 19.0527 19.156 19.5707 19.408 20.168C19.66 20.756 19.786 21.4 19.786 22.1C19.786 22.7907 19.66 23.4347 19.408 24.032C19.156 24.6293 18.806 25.152 18.358 25.6C17.91 26.0387 17.3827 26.384 16.776 26.636C16.1693 26.8787 15.516 27 14.816 27H12.17ZM11.064 27V17.2H12.674V27H11.064ZM24.8573 27.14C24.2039 27.14 23.6113 26.986 23.0793 26.678C22.5473 26.3607 22.1226 25.936 21.8053 25.404C21.4973 24.872 21.3433 24.2793 21.3433 23.626C21.3433 22.9727 21.4973 22.3847 21.8053 21.862C22.1226 21.3393 22.5473 20.924 23.0793 20.616C23.6113 20.2987 24.2039 20.14 24.8573 20.14C25.5199 20.14 26.1173 20.294 26.6493 20.602C27.1813 20.91 27.6013 21.33 27.9093 21.862C28.2266 22.3847 28.3853 22.9727 28.3853 23.626C28.3853 24.2793 28.2266 24.872 27.9093 25.404C27.6013 25.936 27.1813 26.3607 26.6493 26.678C26.1173 26.986 25.5199 27.14 24.8573 27.14ZM24.8573 25.656C25.2399 25.656 25.5759 25.572 25.8653 25.404C26.1639 25.2267 26.3926 24.984 26.5513 24.676C26.7193 24.368 26.8033 24.018 26.8033 23.626C26.8033 23.234 26.7193 22.8887 26.5513 22.59C26.3833 22.2913 26.1546 22.058 25.8653 21.89C25.5759 21.7127 25.2399 21.624 24.8573 21.624C24.4839 21.624 24.1479 21.7127 23.8493 21.89C23.5599 22.058 23.3313 22.2913 23.1633 22.59C23.0046 22.8887 22.9253 23.234 22.9253 23.626C22.9253 24.018 23.0046 24.368 23.1633 24.676C23.3313 24.984 23.5599 25.2267 23.8493 25.404C24.1479 25.572 24.4839 25.656 24.8573 25.656ZM32.0219 27L29.3199 20.28H30.9159L32.7359 25.166L32.2599 25.18L34.0379 20.28H34.9339L36.7119 25.18L36.2359 25.166L38.0559 20.28H39.6519L36.9499 27H36.0539L34.2339 22.352H34.7379L32.9179 27H32.0219ZM45.7826 27V23.122C45.7826 22.674 45.6379 22.3053 45.3486 22.016C45.0686 21.7267 44.7046 21.582 44.2566 21.582C43.9579 21.582 43.6919 21.6473 43.4586 21.778C43.2252 21.9087 43.0432 22.0907 42.9126 22.324C42.7819 22.5573 42.7166 22.8233 42.7166 23.122L42.1146 22.786C42.1146 22.2727 42.2266 21.82 42.4506 21.428C42.6746 21.0267 42.9826 20.714 43.3746 20.49C43.7759 20.2567 44.2239 20.14 44.7186 20.14C45.2226 20.14 45.6706 20.2707 46.0626 20.532C46.4546 20.784 46.7626 21.1153 46.9866 21.526C47.2106 21.9273 47.3226 22.3473 47.3226 22.786V27H45.7826ZM41.1766 27V20.28H42.7166V27H41.1766ZM49.4475 27V16.92H50.9875V27H49.4475ZM56.3414 27.14C55.6881 27.14 55.0954 26.986 54.5634 26.678C54.0314 26.3607 53.6068 25.936 53.2894 25.404C52.9814 24.872 52.8274 24.2793 52.8274 23.626C52.8274 22.9727 52.9814 22.3847 53.2894 21.862C53.6068 21.3393 54.0314 20.924 54.5634 20.616C55.0954 20.2987 55.6881 20.14 56.3414 20.14C57.0041 20.14 57.6014 20.294 58.1334 20.602C58.6654 20.91 59.0854 21.33 59.3934 21.862C59.7108 22.3847 59.8694 22.9727 59.8694 23.626C59.8694 24.2793 59.7108 24.872 59.3934 25.404C59.0854 25.936 58.6654 26.3607 58.1334 26.678C57.6014 26.986 57.0041 27.14 56.3414 27.14ZM56.3414 25.656C56.7241 25.656 57.0601 25.572 57.3494 25.404C57.6481 25.2267 57.8768 24.984 58.0354 24.676C58.2034 24.368 58.2874 24.018 58.2874 23.626C58.2874 23.234 58.2034 22.8887 58.0354 22.59C57.8674 22.2913 57.6388 22.058 57.3494 21.89C57.0601 21.7127 56.7241 21.624 56.3414 21.624C55.9681 21.624 55.6321 21.7127 55.3334 21.89C55.0441 22.058 54.8154 22.2913 54.6474 22.59C54.4888 22.8887 54.4094 23.234 54.4094 23.626C54.4094 24.018 54.4888 24.368 54.6474 24.676C54.8154 24.984 55.0441 25.2267 55.3334 25.404C55.6321 25.572 55.9681 25.656 56.3414 25.656ZM64.5241 27.14C63.9174 27.14 63.3668 26.986 62.8721 26.678C62.3868 26.37 61.9994 25.9547 61.7101 25.432C61.4301 24.9 61.2901 24.3073 61.2901 23.654C61.2901 22.9913 61.4301 22.3987 61.7101 21.876C61.9994 21.344 62.3868 20.924 62.8721 20.616C63.3668 20.2987 63.9174 20.14 64.5241 20.14C65.0374 20.14 65.4901 20.252 65.8821 20.476C66.2834 20.6907 66.6008 20.9893 66.8341 21.372C67.0674 21.7547 67.1841 22.1887 67.1841 22.674V24.606C67.1841 25.0913 67.0674 25.5253 66.8341 25.908C66.6101 26.2907 66.2974 26.594 65.8961 26.818C65.4948 27.0327 65.0374 27.14 64.5241 27.14ZM64.7761 25.684C65.3454 25.684 65.8028 25.4927 66.1481 25.11C66.5028 24.7273 66.6801 24.2373 66.6801 23.64C66.6801 23.2387 66.6008 22.884 66.4421 22.576C66.2834 22.268 66.0594 22.03 65.7701 21.862C65.4901 21.6847 65.1588 21.596 64.7761 21.596C64.4028 21.596 64.0714 21.6847 63.7821 21.862C63.5021 22.03 63.2781 22.268 63.1101 22.576C62.9514 22.884 62.8721 23.2387 62.8721 23.64C62.8721 24.0413 62.9514 24.396 63.1101 24.704C63.2781 25.012 63.5021 25.2547 63.7821 25.432C64.0714 25.6 64.4028 25.684 64.7761 25.684ZM66.5821 27V25.194L66.8481 23.556L66.5821 21.932V20.28H68.1221V27H66.5821ZM73.2052 27.14C72.5985 27.14 72.0479 26.986 71.5532 26.678C71.0679 26.37 70.6805 25.9547 70.3912 25.432C70.1112 24.9 69.9712 24.3073 69.9712 23.654C69.9712 22.9913 70.1112 22.3987 70.3912 21.876C70.6805 21.344 71.0679 20.924 71.5532 20.616C72.0479 20.2987 72.5985 20.14 73.2052 20.14C73.7185 20.14 74.1712 20.252 74.5632 20.476C74.9645 20.6907 75.2819 20.9893 75.5152 21.372C75.7485 21.7547 75.8652 22.1887 75.8652 22.674V24.606C75.8652 25.0913 75.7485 25.5253 75.5152 25.908C75.2912 26.2907 74.9785 26.594 74.5772 26.818C74.1759 27.0327 73.7185 27.14 73.2052 27.14ZM73.4572 25.684C73.8399 25.684 74.1712 25.6 74.4512 25.432C74.7405 25.2547 74.9645 25.012 75.1232 24.704C75.2819 24.396 75.3612 24.0413 75.3612 23.64C75.3612 23.2387 75.2819 22.884 75.1232 22.576C74.9645 22.268 74.7405 22.03 74.4512 21.862C74.1712 21.6847 73.8399 21.596 73.4572 21.596C73.0839 21.596 72.7525 21.6847 72.4632 21.862C72.1832 22.03 71.9592 22.268 71.7912 22.576C71.6325 22.884 71.5532 23.2387 71.5532 23.64C71.5532 24.0413 71.6325 24.396 71.7912 24.704C71.9592 25.012 72.1832 25.2547 72.4632 25.432C72.7525 25.6 73.0839 25.684 73.4572 25.684ZM76.8032 27H75.2632V25.194L75.5292 23.556L75.2632 21.932V16.92H76.8032V27ZM83.359 27V19.398C83.359 18.8847 83.471 18.432 83.695 18.04C83.9284 17.648 84.2457 17.34 84.647 17.116C85.0577 16.892 85.529 16.78 86.061 16.78C86.4717 16.78 86.8217 16.85 87.111 16.99C87.4004 17.13 87.671 17.3307 87.923 17.592L86.929 18.586C86.817 18.474 86.6957 18.3853 86.565 18.32C86.4343 18.2547 86.2664 18.222 86.061 18.222C85.6877 18.222 85.3983 18.3247 85.193 18.53C84.997 18.726 84.899 19.0107 84.899 19.384V27H83.359ZM81.749 21.68V20.28H86.929V21.68H81.749ZM91.3797 27.14C90.7264 27.14 90.1337 26.986 89.6017 26.678C89.0697 26.3607 88.645 25.936 88.3277 25.404C88.0197 24.872 87.8657 24.2793 87.8657 23.626C87.8657 22.9727 88.0197 22.3847 88.3277 21.862C88.645 21.3393 89.0697 20.924 89.6017 20.616C90.1337 20.2987 90.7264 20.14 91.3797 20.14C92.0424 20.14 92.6397 20.294 93.1717 20.602C93.7037 20.91 94.1237 21.33 94.4317 21.862C94.749 22.3847 94.9077 22.9727 94.9077 23.626C94.9077 24.2793 94.749 24.872 94.4317 25.404C94.1237 25.936 93.7037 26.3607 93.1717 26.678C92.6397 26.986 92.0424 27.14 91.3797 27.14ZM91.3797 25.656C91.7624 25.656 92.0984 25.572 92.3877 25.404C92.6864 25.2267 92.915 24.984 93.0737 24.676C93.2417 24.368 93.3257 24.018 93.3257 23.626C93.3257 23.234 93.2417 22.8887 93.0737 22.59C92.9057 22.2913 92.677 22.058 92.3877 21.89C92.0984 21.7127 91.7624 21.624 91.3797 21.624C91.0064 21.624 90.6704 21.7127 90.3717 21.89C90.0824 22.058 89.8537 22.2913 89.6857 22.59C89.527 22.8887 89.4477 23.234 89.4477 23.626C89.4477 24.018 89.527 24.368 89.6857 24.676C89.8537 24.984 90.0824 25.2267 90.3717 25.404C90.6704 25.572 91.0064 25.656 91.3797 25.656ZM96.7484 27V20.28H98.2884V27H96.7484ZM98.2884 23.262L97.7564 22.996C97.7564 22.1467 97.943 21.4607 98.3164 20.938C98.699 20.406 99.273 20.14 100.038 20.14C100.374 20.14 100.678 20.2007 100.948 20.322C101.219 20.4433 101.471 20.6393 101.704 20.91L100.696 21.946C100.575 21.8153 100.44 21.722 100.29 21.666C100.141 21.61 99.9684 21.582 99.7724 21.582C99.343 21.582 98.9884 21.7173 98.7084 21.988C98.4284 22.2587 98.2884 22.6833 98.2884 23.262Z" fill="white"/>
<rect width="44" height="44" fill="#0055F1"/>
<path d="M24.9753 13.0189L25.9351 11.2873C25.9475 11.2651 25.9553 11.2407 25.9582 11.2154C25.961 11.1902 25.9589 11.1647 25.9519 11.1402C25.9449 11.1158 25.9332 11.093 25.9174 11.0731C25.9016 11.0533 25.882 11.0367 25.8598 11.0244C25.8149 10.9995 25.762 10.9935 25.7127 11.0076C25.6634 11.0218 25.6217 11.0549 25.5968 11.0998L24.6264 12.8505C23.7984 12.4876 22.9041 12.3001 22 12.3001C21.0959 12.3001 20.2016 12.4876 19.3736 12.8505L18.4031 11.0998C18.3783 11.0549 18.3366 11.0218 18.2873 11.0076C18.238 10.9935 18.1851 10.9995 18.1402 11.0244C18.0953 11.0492 18.0622 11.0909 18.048 11.1402C18.0339 11.1895 18.0399 11.2425 18.0648 11.2873L19.0247 13.0189C18.111 13.4693 17.339 14.1626 16.7934 15.0228C16.2477 15.883 15.9495 16.8768 15.9315 17.8953H28.0685C28.0504 16.8768 27.7523 15.883 27.2066 15.0228C26.661 14.1626 25.889 13.4693 24.9753 13.0189ZM19.1991 15.6745C19.0989 15.6745 19.0009 15.6448 18.9175 15.5891C18.8342 15.5334 18.7692 15.4543 18.7309 15.3617C18.6925 15.2691 18.6825 15.1672 18.702 15.0688C18.7216 14.9705 18.7698 14.8802 18.8407 14.8094C18.9116 14.7385 19.0019 14.6902 19.1002 14.6707C19.1985 14.6511 19.3004 14.6611 19.393 14.6995C19.4856 14.7378 19.5648 14.8028 19.6205 14.8861C19.6762 14.9695 19.7059 15.0675 19.7059 15.1677C19.7057 15.3021 19.6523 15.4309 19.5573 15.5259C19.4623 15.6209 19.3335 15.6744 19.1991 15.6745ZM24.8009 15.6745C24.7006 15.6745 24.6026 15.6448 24.5193 15.5891C24.436 15.5334 24.371 15.4543 24.3326 15.3617C24.2943 15.2691 24.2843 15.1672 24.3038 15.0688C24.3234 14.9705 24.3716 14.8802 24.4425 14.8094C24.5134 14.7385 24.6037 14.6902 24.702 14.6707C24.8003 14.6511 24.9022 14.6611 24.9948 14.6995C25.0874 14.7378 25.1666 14.8028 25.2223 14.8861C25.2779 14.9695 25.3077 15.0675 25.3077 15.1677C25.3075 15.3021 25.2541 15.4309 25.1591 15.5259C25.0641 15.6209 24.9352 15.6744 24.8009 15.6745ZM15.9314 27.1715C15.9314 27.5606 16.086 27.9338 16.3611 28.2089C16.6363 28.4841 17.0094 28.6386 17.3985 28.6386H18.3721V31.6396C18.3717 31.8186 18.4065 31.9959 18.4746 32.1614C18.5428 32.3268 18.6429 32.4772 18.7693 32.604C18.8957 32.7307 19.0458 32.8312 19.2111 32.8998C19.3764 32.9684 19.5536 33.0037 19.7326 33.0037C19.9116 33.0037 20.0888 32.9684 20.2541 32.8998C20.4194 32.8312 20.5695 32.7307 20.6959 32.604C20.8223 32.4772 20.9224 32.3268 20.9906 32.1614C21.0587 31.9959 21.0935 31.8186 21.093 31.6396V28.6386H22.9069V31.6396C22.9064 31.8186 22.9413 31.9959 23.0094 32.1614C23.0776 32.3268 23.1777 32.4772 23.3041 32.604C23.4304 32.7307 23.5806 32.8312 23.7459 32.8998C23.9112 32.9684 24.0884 33.0037 24.2674 33.0037C24.4463 33.0037 24.6235 32.9684 24.7888 32.8998C24.9541 32.8312 25.1043 32.7307 25.2307 32.604C25.357 32.4772 25.4572 32.3268 25.5253 32.1614C25.5935 31.9959 25.6283 31.8186 25.6278 31.6396V28.6386H26.6015C26.9906 28.6386 27.3637 28.4841 27.6389 28.2089C27.914 27.9338 28.0686 27.5606 28.0686 27.1715V18.3754H15.9314V27.1715ZM14.0641 18.142C13.7034 18.1424 13.3576 18.2858 13.1026 18.5409C12.8476 18.7959 12.7041 19.1417 12.7037 19.5024V25.1709C12.7032 25.3499 12.738 25.5272 12.8062 25.6926C12.8743 25.8581 12.9745 26.0085 13.1008 26.1353C13.2272 26.262 13.3774 26.3625 13.5427 26.4311C13.708 26.4997 13.8852 26.535 14.0641 26.535C14.2431 26.535 14.4203 26.4997 14.5856 26.4311C14.7509 26.3625 14.901 26.262 15.0274 26.1353C15.1538 26.0085 15.2539 25.8581 15.3221 25.6926C15.3902 25.5272 15.4251 25.3499 15.4246 25.1709V19.5024C15.4242 19.1417 15.2807 18.7959 15.0257 18.5409C14.7706 18.2858 14.4248 18.1424 14.0641 18.142ZM29.9358 18.142C29.5751 18.1424 29.2293 18.2858 28.9743 18.5409C28.7192 18.7959 28.5758 19.1417 28.5754 19.5024V25.1709C28.5749 25.3499 28.6097 25.5272 28.6779 25.6926C28.746 25.8581 28.8462 26.0085 28.9725 26.1353C29.0989 26.262 29.249 26.3625 29.4143 26.4311C29.5796 26.4997 29.7569 26.535 29.9358 26.535C30.1148 26.535 30.292 26.4997 30.4573 26.4311C30.6226 26.3625 30.7727 26.262 30.8991 26.1353C31.0255 26.0085 31.1256 25.8581 31.1938 25.6926C31.2619 25.5272 31.2968 25.3499 31.2963 25.1709V19.5024C31.2959 19.1417 31.1524 18.7959 30.8974 18.5409C30.6423 18.2858 30.2965 18.1424 29.9358 18.142Z" fill="white"/>
</g>
<defs>
<clipPath id="clip0_1182_157">
<rect width="44" height="44" fill="white"/>
</clipPath>
</defs>
</svg>
