<svg width="188" height="70" viewBox="0 0 188 70" fill="none" xmlns="http://www.w3.org/2000/svg">
<path d="M16 1.5H172C180.008 1.5 186.5 7.99187 186.5 16V54C186.5 62.0081 180.008 68.5 172 68.5H16C7.99187 68.5 1.5 62.0081 1.5 54V16C1.5 7.99187 7.99187 1.5 16 1.5Z" fill="#001A48" stroke="#001A48" stroke-width="3"/>
<g filter="url(#filter0_ii_1149_3988)">
<path d="M34.863 35.9658L18.1121 52.7656C17.9366 52.4502 17.821 52.0153 17.821 51.4473V20.4854C17.821 19.9176 17.9363 19.4818 18.1121 19.166L34.863 35.9658Z" fill="white" stroke="#001A48"/>
<path d="M47.8424 34.3801C48.7262 34.8839 49.0533 35.4778 49.0533 35.967C49.0533 36.4258 48.7659 36.9765 48.0016 37.4592L47.8424 37.5549L41.2135 41.3313L35.8658 35.9661L41.2135 30.6028L47.8424 34.3801Z" fill="white" stroke="#001A48"/>
<g filter="url(#filter1_i_1149_3988)">
<path d="M41.2604 41.8797L35.3638 35.9661L17.9674 53.4143C18.6095 54.0975 19.6719 54.1815 20.8682 53.5011L41.2604 41.8797Z" fill="white"/>
</g>
<path d="M40.444 41.7688L20.6207 53.0667C19.8199 53.522 19.1821 53.5538 18.7321 53.3547L35.3629 36.6741L40.444 41.7688Z" stroke="#001A48"/>
<path d="M18.733 18.5785C19.1452 18.3963 19.7142 18.4078 20.4215 18.7611L20.6207 18.8676L40.443 30.1625L35.3649 35.2592L18.733 18.5785Z" fill="white" stroke="#001A48"/>
</g>
<path d="M93.3644 37.6603C90.2635 37.6603 87.736 40.0155 87.736 43.2592C87.736 46.4832 90.2635 48.858 93.3644 48.858C96.4667 48.858 98.9941 46.4832 98.9941 43.2592C98.9928 40.0155 96.4654 37.6603 93.3644 37.6603ZM93.3644 46.6543C91.665 46.6543 90.2002 45.2549 90.2002 43.2605C90.2002 41.245 91.6663 39.8667 93.3644 39.8667C95.0639 39.8667 96.5287 41.245 96.5287 43.2605C96.5287 45.2536 95.0639 46.6543 93.3644 46.6543ZM81.0845 37.6603C77.9835 37.6603 75.4561 40.0155 75.4561 43.2592C75.4561 46.4832 77.9835 48.858 81.0845 48.858C84.1868 48.858 86.7142 46.4832 86.7142 43.2592C86.7142 40.0155 84.1868 37.6603 81.0845 37.6603ZM81.0845 46.6543C79.385 46.6543 77.9202 45.2549 77.9202 43.2605C77.9202 41.245 79.3863 39.8667 81.0845 39.8667C82.784 39.8667 84.2487 41.245 84.2487 43.2605C84.2501 45.2536 82.784 46.6543 81.0845 46.6543ZM66.4789 39.3796V41.7545H72.1719C72.0018 43.0907 71.5562 44.0662 70.8758 44.7441C70.0479 45.5709 68.7518 46.4832 66.4789 46.4832C62.9745 46.4832 60.2347 43.662 60.2347 40.1629C60.2347 36.6638 62.9745 33.8426 66.4789 33.8426C68.3695 33.8426 69.7499 34.5851 70.7691 35.5395L72.4474 33.8637C71.0235 32.5065 69.1342 31.4678 66.4789 31.4678C61.6784 31.4678 57.6427 35.3697 57.6427 40.1629C57.6427 44.9561 61.6784 48.858 66.4789 48.858C69.0696 48.858 71.0248 48.0089 72.5529 46.4187C74.1245 44.8495 74.6136 42.6431 74.6136 40.8619C74.6136 40.3117 74.5714 39.8022 74.4857 39.3783L66.4789 39.3796ZM126.215 41.224C125.748 39.9733 124.324 37.6603 121.414 37.6603C118.525 37.6603 116.125 39.9299 116.125 43.2592C116.125 46.3976 118.504 48.858 121.69 48.858C124.259 48.858 125.747 47.2888 126.364 46.3765L124.452 45.1035C123.815 46.0369 122.944 46.6517 121.69 46.6517C120.437 46.6517 119.545 46.079 118.971 44.9548L126.469 41.8585L126.215 41.224ZM118.568 43.0907C118.504 40.9264 120.246 39.8246 121.5 39.8246C122.477 39.8246 123.305 40.313 123.582 41.012L118.568 43.0907ZM112.473 48.5197H114.935V32.0628H112.473V48.5197ZM108.435 38.9123H108.351C107.799 38.2541 106.736 37.6603 105.399 37.6603C102.595 37.6603 100.025 40.1208 100.025 43.2816C100.025 46.42 102.595 48.8593 105.399 48.8593C106.737 48.8593 107.799 48.2656 108.351 47.5877H108.435V48.3933C108.435 50.5352 107.288 51.6805 105.441 51.6805C103.933 51.6805 102.998 50.5997 102.616 49.6874L100.471 50.5786C101.086 52.0623 102.721 53.8869 105.441 53.8869C108.33 53.8869 110.773 52.19 110.773 48.0537V38.0013H108.437L108.435 38.9123ZM105.611 46.6543C103.912 46.6543 102.489 45.2325 102.489 43.2816C102.489 41.3082 103.912 39.8667 105.611 39.8667C107.288 39.8667 108.606 41.3082 108.606 43.2816C108.606 45.2325 107.288 46.6543 105.611 46.6543ZM137.756 32.0628H131.861V48.5197H134.32V42.285H137.755C140.481 42.285 143.163 40.3143 143.163 37.1746C143.163 34.0348 140.483 32.0628 137.756 32.0628ZM137.819 39.9944H134.32V34.3534H137.819C139.659 34.3534 140.703 35.8739 140.703 37.1746C140.703 38.4489 139.659 39.9944 137.819 39.9944ZM153.024 37.6314C151.242 37.6314 149.398 38.4147 148.635 40.1511L150.818 41.0607C151.285 40.1511 152.155 39.8535 153.066 39.8535C154.338 39.8535 155.632 40.6158 155.653 41.9704V42.1402C155.207 41.8861 154.252 41.5057 153.087 41.5057C150.734 41.5057 148.337 42.7971 148.337 45.2102C148.337 47.4126 150.267 48.8304 152.429 48.8304C154.082 48.8304 154.995 48.0892 155.567 47.2204H155.651V48.4907H158.027V42.181C158.028 39.2611 155.842 37.6314 153.024 37.6314ZM152.726 46.6504C151.921 46.6504 150.797 46.2475 150.797 45.2523C150.797 43.9819 152.197 43.4948 153.406 43.4948C154.486 43.4948 154.996 43.7278 155.653 44.0451C155.461 45.5709 154.147 46.6504 152.726 46.6504ZM166.679 37.9908L163.859 45.1259H163.774L160.847 37.9908H158.197L162.586 47.9628L160.084 53.5104H162.65L169.414 37.9908H166.679ZM144.521 48.5197H146.98V32.0628H144.521V48.5197Z" fill="white"/>
<path d="M66.1719 22.3286C66.1719 23.4118 65.8452 24.274 65.1905 24.9177C64.4476 25.6829 63.4781 26.0655 62.2873 26.0655C61.1465 26.0655 60.1757 25.6777 59.3788 24.9022C58.5805 24.1253 58.1814 23.1636 58.1814 22.0158C58.1814 20.8667 58.5805 19.905 59.3788 19.1294C60.1757 18.3526 61.1465 17.9648 62.2873 17.9648C62.8537 17.9648 63.3951 18.0734 63.9088 18.2892C64.4239 18.5064 64.8362 18.7947 65.1444 19.1553L64.4502 19.8378C63.9273 19.2238 63.2067 18.9174 62.286 18.9174C61.4535 18.9174 60.7342 19.2044 60.127 19.7783C59.5197 20.3522 59.2168 21.0981 59.2168 22.0145C59.2168 22.931 59.5197 23.6768 60.127 24.2507C60.7342 24.8246 61.4535 25.1116 62.286 25.1116C63.1685 25.1116 63.9049 24.8233 64.4937 24.2455C64.8757 23.8694 65.097 23.3459 65.1563 22.675H62.286V21.7431H66.1152C66.1547 21.946 66.1719 22.1412 66.1719 22.3286Z" fill="white"/>
<path d="M72.2445 19.0894H68.6458V21.548H71.8915V22.4799H68.6458V24.9384H72.2445V25.8924H67.6302V18.1368H72.2445V19.0894Z" fill="white"/>
<path d="M76.5268 25.8924H75.5112V19.0894H73.3035V18.1368H78.7345V19.0894H76.5268V25.8924Z" fill="white"/>
<path d="M82.6638 25.8924V18.1368H83.6794V25.8924H82.6638Z" fill="white"/>
<path d="M88.1833 25.8924H87.1677V19.0894H84.96V18.1368H90.3911V19.0894H88.1833V25.8924Z" fill="white"/>
<path d="M100.672 24.8906C99.8948 25.6739 98.9292 26.0656 97.774 26.0656C96.6188 26.0656 95.6532 25.6739 94.8773 24.8906C94.1002 24.1073 93.7129 23.1482 93.7129 22.0146C93.7129 20.881 94.1002 19.9219 94.8773 19.1385C95.6532 18.3552 96.6188 17.9623 97.774 17.9623C98.9226 17.9623 99.8869 18.3565 100.667 19.1437C101.447 19.9309 101.836 20.8874 101.836 22.0146C101.836 23.1482 101.448 24.1073 100.672 24.8906ZM95.6269 24.2404C96.2117 24.8221 96.927 25.1116 97.774 25.1116C98.621 25.1116 99.3376 24.8208 99.9211 24.2404C100.506 23.6587 100.8 22.9168 100.8 22.0146C100.8 21.1123 100.506 20.3704 99.9211 19.7887C99.3376 19.207 98.621 18.9175 97.774 18.9175C96.927 18.9175 96.2117 19.2083 95.6269 19.7887C95.0433 20.3704 94.7496 21.1123 94.7496 22.0146C94.7496 22.9168 95.0433 23.6587 95.6269 24.2404Z" fill="white"/>
<path d="M103.262 25.8924V18.1368H104.497L108.338 24.1693H108.382L108.338 22.6751V18.1368H109.354V25.8924H108.294L104.275 19.5664H104.231L104.275 21.0606V25.8924H103.262Z" fill="white"/>
<path d="M66.1719 22.3286C66.1719 23.4118 65.8452 24.274 65.1905 24.9177C64.4476 25.6829 63.4781 26.0655 62.2873 26.0655C61.1465 26.0655 60.1757 25.6777 59.3788 24.9022C58.5805 24.1253 58.1814 23.1636 58.1814 22.0158C58.1814 20.8667 58.5805 19.905 59.3788 19.1294C60.1757 18.3526 61.1465 17.9648 62.2873 17.9648C62.8537 17.9648 63.3951 18.0734 63.9088 18.2892C64.4239 18.5064 64.8362 18.7947 65.1444 19.1553L64.4502 19.8378C63.9273 19.2238 63.2067 18.9174 62.286 18.9174C61.4535 18.9174 60.7342 19.2044 60.127 19.7783C59.5197 20.3522 59.2168 21.0981 59.2168 22.0145C59.2168 22.931 59.5197 23.6768 60.127 24.2507C60.7342 24.8246 61.4535 25.1116 62.286 25.1116C63.1685 25.1116 63.9049 24.8233 64.4937 24.2455C64.8757 23.8694 65.097 23.3459 65.1563 22.675H62.286V21.7431H66.1152C66.1547 21.946 66.1719 22.1412 66.1719 22.3286Z" stroke="white" stroke-width="0.204511" stroke-miterlimit="10"/>
<path d="M72.2445 19.0894H68.6458V21.548H71.8915V22.4799H68.6458V24.9384H72.2445V25.8924H67.6302V18.1368H72.2445V19.0894Z" stroke="white" stroke-width="0.204511" stroke-miterlimit="10"/>
<path d="M76.5268 25.8924H75.5112V19.0894H73.3035V18.1368H78.7345V19.0894H76.5268V25.8924Z" stroke="white" stroke-width="0.204511" stroke-miterlimit="10"/>
<path d="M82.6638 25.8924V18.1368H83.6794V25.8924H82.6638Z" stroke="white" stroke-width="0.204511" stroke-miterlimit="10"/>
<path d="M88.1833 25.8924H87.1677V19.0894H84.96V18.1368H90.3911V19.0894H88.1833V25.8924Z" stroke="white" stroke-width="0.204511" stroke-miterlimit="10"/>
<path d="M100.672 24.8906C99.8948 25.6739 98.9292 26.0656 97.774 26.0656C96.6188 26.0656 95.6532 25.6739 94.8773 24.8906C94.1002 24.1073 93.7129 23.1482 93.7129 22.0146C93.7129 20.881 94.1002 19.9219 94.8773 19.1385C95.6532 18.3552 96.6188 17.9623 97.774 17.9623C98.9226 17.9623 99.8869 18.3565 100.667 19.1437C101.447 19.9309 101.836 20.8874 101.836 22.0146C101.836 23.1482 101.448 24.1073 100.672 24.8906ZM95.6269 24.2404C96.2117 24.8221 96.927 25.1116 97.774 25.1116C98.621 25.1116 99.3376 24.8208 99.9211 24.2404C100.506 23.6587 100.8 22.9168 100.8 22.0146C100.8 21.1123 100.506 20.3704 99.9211 19.7887C99.3376 19.207 98.621 18.9175 97.774 18.9175C96.927 18.9175 96.2117 19.2083 95.6269 19.7887C95.0433 20.3704 94.7496 21.1123 94.7496 22.0146C94.7496 22.9168 95.0433 23.6587 95.6269 24.2404Z" stroke="white" stroke-width="0.204511" stroke-miterlimit="10"/>
<path d="M103.262 25.8924V18.1368H104.497L108.338 24.1693H108.382L108.338 22.6751V18.1368H109.354V25.8924H108.294L104.275 19.5664H104.231L104.275 21.0606V25.8924H103.262Z" stroke="white" stroke-width="0.204511" stroke-miterlimit="10"/>
<defs>
<filter id="filter0_ii_1149_3988" x="17.321" y="17.9623" width="32.2319" height="36.0087" filterUnits="userSpaceOnUse" color-interpolation-filters="sRGB">
<feFlood flood-opacity="0" result="BackgroundImageFix"/>
<feBlend mode="normal" in="SourceGraphic" in2="BackgroundImageFix" result="shape"/>
<feColorMatrix in="SourceAlpha" type="matrix" values="0 0 0 0 0 0 0 0 0 0 0 0 0 0 0 0 0 0 127 0" result="hardAlpha"/>
<feOffset dy="-0.795"/>
<feComposite in2="hardAlpha" operator="arithmetic" k2="-1" k3="1"/>
<feColorMatrix type="matrix" values="0 0 0 0 0 0 0 0 0 0 0 0 0 0 0 0 0 0 0.12 0"/>
<feBlend mode="normal" in2="shape" result="effect1_innerShadow_1149_3988"/>
<feColorMatrix in="SourceAlpha" type="matrix" values="0 0 0 0 0 0 0 0 0 0 0 0 0 0 0 0 0 0 127 0" result="hardAlpha"/>
<feOffset dy="0.795"/>
<feComposite in2="hardAlpha" operator="arithmetic" k2="-1" k3="1"/>
<feColorMatrix type="matrix" values="0 0 0 0 1 0 0 0 0 1 0 0 0 0 1 0 0 0 0.25 0"/>
<feBlend mode="normal" in2="effect1_innerShadow_1149_3988" result="effect2_innerShadow_1149_3988"/>
</filter>
<filter id="filter1_i_1149_3988" x="17.9674" y="35.9661" width="23.293" height="18.0049" filterUnits="userSpaceOnUse" color-interpolation-filters="sRGB">
<feFlood flood-opacity="0" result="BackgroundImageFix"/>
<feBlend mode="normal" in="SourceGraphic" in2="BackgroundImageFix" result="shape"/>
<feColorMatrix in="SourceAlpha" type="matrix" values="0 0 0 0 0 0 0 0 0 0 0 0 0 0 0 0 0 0 127 0" result="hardAlpha"/>
<feOffset dy="-0.795"/>
<feComposite in2="hardAlpha" operator="arithmetic" k2="-1" k3="1"/>
<feColorMatrix type="matrix" values="0 0 0 0 0 0 0 0 0 0 0 0 0 0 0 0 0 0 0.08 0"/>
<feBlend mode="normal" in2="shape" result="effect1_innerShadow_1149_3988"/>
</filter>
</defs>
</svg>
