<svg width="1440" height="628" viewBox="0 0 1440 628" fill="none" xmlns="http://www.w3.org/2000/svg">
<path fill-rule="evenodd" clip-rule="evenodd" d="M1132.09 20.0421V40.0843H1123.65H1115.21V44.5568C1115.21 47.0174 1115.01 50.4767 1114.77 52.2446L1114.33 55.4584L1109.61 55.0631L1104.89 54.6672L1104.42 61.1968C1104.17 64.7882 1103.96 69.7347 1103.96 72.1897V76.6524H1099.08C1096.4 76.6524 1094 76.9794 1093.75 77.3788C1093.5 77.7783 1093.34 84.2241 1093.38 91.7023L1093.47 105.299L1091.24 105.744C1090.02 105.988 1087.37 106.188 1085.35 106.188H1081.69L1081.22 121.484C1080.97 129.896 1080.76 149.314 1080.76 164.635L1080.76 192.49L1077.07 192.933C1075.04 193.177 1071.12 193.38 1068.37 193.383L1063.36 193.389L1062.92 191.191C1062.67 189.983 1062.48 186.343 1062.48 183.104V177.215L1044.72 177.151C1034.96 177.117 1023.96 176.952 1020.29 176.786C1016.62 176.62 1006.25 176.684 997.262 176.929L980.914 177.372V185.446V193.521L974.381 193.03C968.635 192.599 967.724 192.689 966.822 193.777C965.948 194.831 965.797 201.52 965.797 239.208C965.797 263.516 965.797 283.458 965.797 283.527C965.797 283.595 945.23 283.832 920.094 284.054L874.391 284.458L874.193 319.582C874.085 338.901 873.905 354.799 873.792 354.91C873.68 355.022 851.835 355.126 825.247 355.143L776.904 355.171L774.671 353.304C773.442 352.276 767.086 346.235 760.545 339.88L748.653 328.323L742.612 334.52C729.569 347.902 719.951 358.632 720.173 359.552C720.383 360.42 724.261 356.465 742.742 336.532L747.926 330.941L753.854 335.897C757.114 338.623 764.808 346.034 770.951 352.365C777.094 358.697 783.181 364.72 784.478 365.75C785.774 366.781 788.74 369.388 791.069 371.545L795.303 375.465L795.547 415.58L795.792 455.695H779.017H762.242V439.071V422.447L758.551 422.891C756.52 423.135 751.3 423.337 746.949 423.34L739.039 423.346L739.04 439.696L739.041 456.047L729.548 455.817C721.417 455.619 720.055 455.739 720.055 456.656C720.055 458.144 728.108 458.263 788.258 457.66C815.521 457.386 972.459 457.239 1137.01 457.332C1301.56 457.426 1437.06 457.376 1438.12 457.222C1439.18 457.068 1440.05 456.503 1440.05 455.967C1440.05 455.158 1436.64 454.992 1420.09 454.992H1400.12L1399.87 434.422C1399.63 414.66 1399.56 413.724 1398.01 410.574C1396.21 406.918 1385.91 396.623 1384.05 396.623C1381.94 396.623 1371.91 403.017 1369.38 405.965C1368.03 407.545 1366.61 409.967 1366.23 411.346C1365.32 414.596 1365.29 454.289 1366.19 454.289C1366.59 454.289 1366.94 445.886 1367.07 433.367L1367.28 412.446L1369.15 409.275C1371.01 406.111 1374.12 403.526 1380.49 399.872L1383.86 397.941L1387.29 400.815C1392.06 404.812 1395.03 408.339 1396.59 411.871C1397.76 414.505 1397.98 417.384 1398.36 434.841L1398.79 454.8L1360.27 455.423C1334.66 455.838 1321.67 455.811 1321.5 455.343C1321.37 454.957 1321.33 409.749 1321.42 354.881L1321.58 255.121L1374.35 255.233C1430.51 255.352 1440.05 255.075 1440.05 253.322C1440.05 252.442 1438.89 252.328 1432.74 252.601L1425.43 252.927L1425.02 250.408C1424.79 249.023 1424.6 244.996 1424.59 241.459L1424.59 235.03L1412.81 234.51C1406.33 234.224 1387 234.146 1369.84 234.336L1338.65 234.683L1338.76 243.923L1338.87 253.164H1329.35H1319.82V290.169V327.174L1304.88 326.849L1289.94 326.524L1289.7 267.165L1289.47 207.805L1282.48 201.476C1278.64 197.995 1267.88 187.474 1258.57 178.097C1243.57 162.977 1241.51 161.145 1240.41 161.922C1238.86 163.013 1225.23 177.312 1210.75 193.053C1204.7 199.62 1198.77 205.865 1197.56 206.932L1195.37 208.871L1195.35 254.752L1195.34 300.632L1190.19 305.331L1185.03 310.03L1184.56 297.947C1184.3 291.302 1184.11 245.7 1184.13 196.61C1184.15 143.384 1183.9 107.095 1183.51 106.711C1183.16 106.356 1180.33 105.892 1177.23 105.679L1171.58 105.292L1171.5 93.6095C1171.45 87.184 1171.22 80.7403 1171 79.2895L1170.58 76.6524H1165.39H1160.21V66.1545V55.6567L1156.49 55.1911C1154.44 54.9352 1152.14 54.8332 1151.39 54.9647C1150.12 55.1862 1149.99 54.6602 1149.66 47.8198L1149.31 40.4359L1141.4 40.2369L1133.49 40.0379V20.0189C1133.49 7.14203 1133.24 0 1132.79 0C1132.34 0 1132.09 7.14977 1132.09 20.0421ZM1147.38 42.4204C1147.97 42.8543 1148.26 45.1244 1148.26 49.2699V55.4703L1140.17 55.6883C1135.72 55.8086 1128.42 55.8079 1123.93 55.6876C1115.93 55.4724 1115.78 55.4387 1116.18 53.9295C1116.41 53.0828 1116.81 49.9253 1117.06 46.912L1117.53 41.4338L1132.01 41.6026C1139.98 41.6954 1146.9 42.0632 1147.38 42.4204ZM1158.54 60.7868C1158.31 62.7446 1158.11 67.2734 1158.11 70.8507L1158.1 77.3556L1142.11 77.3528C1133.31 77.3514 1121.6 77.144 1116.09 76.8922L1106.07 76.4337L1106.07 66.8732V57.3135L1132.52 57.2706L1158.97 57.2277L1158.54 60.7868ZM1141.65 78.6327L1169.14 78.7621L1169.64 91.8472C1169.91 99.0433 1169.94 105.135 1169.69 105.384C1169.44 105.633 1152.49 105.887 1132.03 105.949L1094.82 106.062V92.4491V78.836L1098.51 78.6229C1100.54 78.5061 1104.89 78.4316 1108.18 78.4569C1111.47 78.4822 1126.53 78.5617 1141.65 78.6327ZM1114.16 92.8268C1113.87 93.2888 1120.13 93.53 1132.4 93.53C1144.38 93.53 1151.07 93.2782 1151.07 92.8268C1151.07 92.376 1144.52 92.1235 1132.83 92.1235C1121.43 92.1235 1114.43 92.3872 1114.16 92.8268ZM1182.71 199.894C1182.72 250.659 1182.92 296.634 1183.17 302.061L1183.62 311.928L1168.42 328.432L1153.23 344.936L1153.21 400.315L1153.18 455.695H1148.49H1143.81L1144.1 305.027C1144.29 204.926 1144.15 154.301 1143.69 154.183C1142.99 154.009 1142.27 260.705 1142.03 396.799L1141.93 455.695H1132.72H1123.51L1123.76 305.262C1123.89 222.523 1123.76 154.591 1123.47 154.301C1123.18 154.011 1122.78 153.943 1122.57 154.149C1122.36 154.356 1122.17 222.288 1122.14 305.11L1122.09 455.695H1113.07C1104.34 455.695 1104.04 455.645 1103.55 454.113C1103.27 453.243 1103.17 385.442 1103.33 303.445C1103.51 204.335 1103.37 154.36 1102.91 154.36C1102.12 154.36 1102.18 145.181 1101.78 327.882L1101.5 455.694L1092.18 455.694L1082.87 455.695V281.645V107.595H1132.79H1182.71L1182.71 199.894ZM1122.24 134.669C1122.24 140.998 1122.51 144.866 1122.95 144.866C1123.38 144.866 1123.65 140.998 1123.65 134.669C1123.65 128.34 1123.38 124.472 1122.95 124.472C1122.51 124.472 1122.24 128.34 1122.24 134.669ZM1101.85 135.021C1101.85 141.116 1102.12 144.866 1102.55 144.866C1102.99 144.866 1103.26 141.116 1103.26 135.021C1103.26 128.926 1102.99 125.175 1102.55 125.175C1102.12 125.175 1101.85 128.926 1101.85 135.021ZM1142.54 127.109C1142.05 130.773 1142.72 144.866 1143.38 144.866C1143.76 144.866 1144.04 140.679 1144.04 135.021C1144.04 129.606 1143.76 125.175 1143.42 125.175C1143.07 125.175 1142.68 126.046 1142.54 127.109ZM1162.77 135.103C1162.31 144.165 1162.49 145.979 1163.78 145.187C1164.59 144.682 1164.65 126.8 1163.83 126.296C1163.51 126.094 1163.03 130.057 1162.77 135.103ZM1162.1 165.787C1161.35 191.858 1163.01 328.425 1164.08 328.398C1164.46 328.389 1164.75 327.201 1164.72 325.758C1164.65 323.024 1163.67 157.395 1163.71 155.239C1163.72 154.562 1163.44 154.008 1163.08 154.008C1162.73 154.008 1162.29 159.309 1162.1 165.787ZM1242.48 163.802C1242.48 164.354 1271.62 193.473 1283.96 205.253L1287.83 208.944L1243.44 208.727L1199.05 208.509L1204.06 202.918C1220.57 184.509 1240.89 163.15 1241.88 163.15C1242.21 163.15 1242.48 163.443 1242.48 163.802ZM1060.68 184.95C1060.84 188.238 1061.17 191.445 1061.41 192.076C1061.76 192.973 1061.35 193.284 1059.53 193.494C1058.25 193.642 1040.51 193.643 1020.11 193.497L983.023 193.23V185.92V178.609L1021.71 178.791L1060.39 178.973L1060.68 184.95ZM1080.76 325.421V455.695H1024.16H967.555L967.379 356.012C967.143 222.17 967.19 205.058 967.805 199.718L968.332 195.147H1024.55H1080.76V325.421ZM1287.66 268.361L1288.03 326.103L1282.3 326.549C1279.15 326.795 1273.86 326.997 1270.53 326.999C1267.2 327.001 1262.53 327.207 1260.16 327.455L1255.84 327.907V391.801V455.695H1250.16H1244.49L1244.71 399.434L1244.94 343.172L1222.17 320.375C1207.97 306.154 1199.05 297.719 1198.44 297.95C1197.63 298.263 1197.48 291.375 1197.48 254.329V210.338L1242.39 210.478L1287.3 210.618L1287.66 268.361ZM983.974 216.772C984.218 218.803 984.421 223.865 984.423 228.023L984.43 235.583H992.516H1000.6V224.331V213.08H992.066H983.53L983.974 216.772ZM1015.53 224.156L1015.72 235.231L1023.63 235.293L1031.54 235.356V224.217V213.08H1023.44H1015.33L1015.53 224.156ZM1046.46 224.156L1046.66 235.231L1054.57 235.361L1062.48 235.491V224.285V213.08H1054.37H1046.27L1046.46 224.156ZM999.11 224.376L999.303 233.473H992.608H985.914L985.7 224.27C985.581 219.208 985.536 215.016 985.598 214.952C985.662 214.889 988.684 214.937 992.315 215.059L998.918 215.279L999.11 224.376ZM1030.13 224.38V233.473L1023.63 233.472L1017.12 233.471L1016.88 224.154L1016.64 214.838L1023.39 215.062L1030.13 215.286V224.38ZM1061.07 224.38V233.473H1054.39H1047.71L1047.71 224.156L1047.71 214.838L1054.39 215.062L1061.07 215.286V224.38ZM1219.53 233.592C1219.77 235.961 1219.98 240.7 1219.98 244.125V250.351H1226.3C1230.05 250.351 1232.63 250.065 1232.63 249.648C1232.63 249.238 1230.3 248.945 1227.05 248.945H1221.46L1221.25 240.153L1221.03 231.361L1227.24 231.362C1231.9 231.364 1233.38 231.144 1233.16 230.485C1232.96 229.876 1230.74 229.556 1225.97 229.445L1219.08 229.285L1219.53 233.592ZM1257.42 229.776L1252.32 230.019L1252.33 236.493C1252.33 240.054 1252.53 244.628 1252.78 246.659L1253.22 250.351H1259.8H1266.38V239.802V229.254L1264.45 229.394C1263.39 229.471 1260.22 229.643 1257.42 229.776ZM1264.27 240.154V248.945H1259.39H1254.51L1254.3 240.445C1254.18 235.769 1254.21 231.814 1254.37 231.654C1254.53 231.494 1256.83 231.364 1259.47 231.364H1264.27V240.154ZM1423.18 244.725V253.164H1381.7H1340.21V244.725V236.286H1381.7H1423.18V244.725ZM984.43 260.899V272.151H992.516H1000.6V260.899V249.648H992.516H984.43V260.899ZM1015.37 260.899V272.151H1023.45H1031.54V260.899V249.648H1023.45H1015.37V260.899ZM1046.3 260.899V272.151H1054.39H1062.48V260.899V249.648H1054.39H1046.3V260.899ZM999.195 261.3V270.745H992.516H985.836L985.835 261.075L985.833 251.406L992.514 251.63L999.195 251.854V261.3ZM1030.13 261.075V270.745H1023.59H1017.04L1016.86 261.075L1016.67 251.406H1023.4H1030.13V261.075ZM1061.07 261.075V270.745H1054.39H1047.71V261.075V251.406H1054.39H1061.07V261.075ZM1219.68 270.745C1219.59 270.938 1219.66 275.775 1219.83 281.494L1220.13 291.891L1226.91 291.691L1233.69 291.49V281.163V270.837L1226.76 270.615C1222.95 270.493 1219.77 270.551 1219.68 270.745ZM1252.56 271.13C1252.41 271.536 1252.37 276.283 1252.47 281.679L1252.67 291.49H1259.35H1266.03L1265.9 281.06L1265.77 270.63L1259.31 270.511C1255.34 270.439 1252.73 270.678 1252.56 271.13ZM1231.93 281.293V290.435H1226.66H1221.38V281.293V272.151H1226.66H1231.93V281.293ZM1264.27 280.942V289.732H1259.35H1254.43V287.379C1254.43 286.084 1254.22 282.129 1253.97 278.589L1253.52 272.151H1258.89H1264.27V280.942ZM1338.66 284.613C1338.81 292.237 1339.14 295.837 1339.72 296.207C1340.75 296.859 1346.97 296.911 1351.99 296.309L1355.68 295.865V284.712V273.558L1347.07 273.557L1338.45 273.556L1338.66 284.613ZM1374.82 284.985L1375.02 296.413L1379.23 296.64C1381.55 296.765 1385.43 296.661 1387.85 296.409L1392.24 295.949V284.753V273.558H1383.44H1374.63L1374.82 284.985ZM1410.68 284.985L1410.88 296.413L1418.61 296.468C1422.86 296.498 1426.74 296.385 1427.22 296.217C1427.88 295.989 1428.1 293.044 1428.1 284.734V273.558H1419.29H1410.49L1410.68 284.985ZM1354.27 284.809V294.655H1347.24H1340.21V284.809V274.964H1347.24H1354.27V284.809ZM1390.13 284.809V294.655H1383.1H1376.07V284.809V274.964H1383.1H1390.13V284.809ZM1425.99 284.809V294.655H1418.96H1411.93V284.809V274.964H1418.96H1425.99V284.809ZM966.148 297.643V309.423L943.824 309.424C931.546 309.425 911.296 309.634 898.824 309.889L876.148 310.353V298.109V285.864H921.148H966.148V297.643ZM984.082 297.996L984.084 309.071L992.343 309.269L1000.6 309.467V298.193V286.919L992.34 286.92L984.078 286.921L984.082 297.996ZM1015.37 298.171V309.423H1023.45H1031.54V298.171V286.919H1023.45H1015.37V298.171ZM1046.3 298.171V309.423H1054.39H1062.48V298.171V286.919H1054.39H1046.3V298.171ZM999.193 298.171L999.193 307.664L992.514 307.877L985.836 308.09V298.383L985.835 288.677H992.514H999.194L999.193 298.171ZM1030.13 298.347V308.016H1023.9H1017.67L1017.23 304.324C1016.99 302.293 1016.78 297.942 1016.78 294.655L1016.77 288.677H1023.45H1030.13V298.347ZM1061.07 298.171L1061.07 307.664L1054.39 307.901L1047.71 308.137V298.407V288.677H1054.39H1061.07L1061.07 298.171ZM1235.42 342.996C1231.76 343.088 1212.6 343.247 1192.85 343.347L1156.94 343.529L1166.84 332.682C1172.28 326.716 1179.47 318.84 1182.8 315.18C1186.14 311.52 1191.19 306.465 1194.03 303.946L1199.19 299.366L1220.63 321.096L1242.08 342.826L1235.42 342.996ZM966.148 383.3V455.772L939.499 455.649L912.849 455.526L912.421 445.238C912.186 439.579 911.89 432.483 911.764 429.468C911.575 424.961 911.711 424.055 912.532 424.37C913.08 424.58 917.499 424.753 922.349 424.753H931.17L930.906 439.632C930.701 451.098 930.842 454.579 931.52 454.81C932.206 455.043 932.398 451.553 932.398 438.876V422.643H921.133H909.868L910.346 439.169L910.824 455.695H893.486H876.148V383.619V311.544L916.051 311.356C937.997 311.253 958.247 311.092 961.051 310.999L966.148 310.829V383.3ZM1338.57 316.219C1338.51 316.282 1338.55 321.583 1338.66 327.998L1338.87 339.662H1344.01C1346.84 339.662 1350.62 339.46 1352.42 339.214L1355.68 338.767V327.435V316.103H1347.18C1342.51 316.103 1338.63 316.155 1338.57 316.219ZM1382.91 316.302L1374.63 316.5L1374.82 327.905L1375.02 339.31L1378.53 339.541C1380.46 339.669 1384.34 339.563 1387.14 339.306L1392.24 338.838V327.688C1392.24 321.555 1392.01 316.44 1391.71 316.321C1391.42 316.201 1387.46 316.193 1382.91 316.302ZM1418.77 316.302L1410.49 316.5L1410.68 327.905L1410.88 339.31L1415.09 339.537C1417.41 339.662 1421.29 339.558 1423.71 339.306L1428.1 338.847V327.692C1428.1 321.558 1427.86 316.44 1427.57 316.321C1427.28 316.201 1423.32 316.193 1418.77 316.302ZM1354.27 327.707V337.552H1347.24H1340.21V327.707V317.861H1347.24H1354.27V327.707ZM1390.13 327.707V337.552H1383.1H1376.07V327.707V317.861H1383.1H1390.13V327.707ZM1425.99 327.707V337.552H1418.96H1411.93V327.707V317.861H1418.96H1425.99V327.707ZM983.885 335.97L984.078 347.046L992.34 347.244L1000.6 347.441V336.168V324.894H992.146H983.691L983.885 335.97ZM1015.53 335.97L1015.72 347.046L1023.63 347.245L1031.54 347.444V336.169V324.894H1023.44H1015.33L1015.53 335.97ZM1046.3 336.145V347.397H1054.39H1062.48V336.145V324.894H1054.39H1046.3V336.145ZM999.195 335.93V345.287L997.262 345.292C996.199 345.295 993.21 345.498 990.62 345.742L985.913 346.187L985.698 336.322L985.484 326.457L992.34 326.514L999.195 326.571V335.93ZM1030.13 335.866V345.08L1024.05 345.548C1020.71 345.804 1017.9 345.93 1017.81 345.827C1017.73 345.723 1017.43 341.339 1017.16 336.085L1016.67 326.531L1023.4 326.591L1030.13 326.652L1030.13 335.866ZM1061.07 335.873V345.094L1055.09 345.579C1051.8 345.846 1048.79 345.872 1048.41 345.635C1048 345.386 1047.71 341.292 1047.71 335.928V326.652H1054.39H1061.07V335.873ZM892.784 328.41C892.723 328.603 892.77 335.169 892.888 343.002L893.106 357.242H902.571H912.037L911.846 342.65L911.656 328.058H902.277C897.117 328.058 892.846 328.216 892.784 328.41ZM929.586 342.51V357.242H939.078H948.57V343.178C948.57 335.442 948.65 328.876 948.746 328.586C948.842 328.295 944.572 327.995 939.254 327.918L929.586 327.778V342.51ZM1319.82 342.474V356.539H1288.53H1257.24V342.865V329.19L1260.58 328.927C1262.42 328.782 1276.5 328.606 1291.87 328.536L1319.82 328.41V342.474ZM946.619 339.837L946.284 350.21L943.384 350.215C941.789 350.218 938.348 350.422 935.738 350.669L930.992 351.117V340.489V329.863L938.902 329.664C943.253 329.554 946.844 329.465 946.884 329.465C946.922 329.465 946.803 334.133 946.619 339.837ZM910.197 331.75C910.133 332.814 910.039 337.561 909.989 342.299L909.898 350.913L902.34 350.912L894.781 350.911V340.363V329.816H902.548L910.315 329.816L910.197 331.75ZM1242.94 371.114C1242.69 385.657 1242.48 410.662 1242.48 426.679V455.801L1217.44 455.616L1192.4 455.431L1192.91 433.45L1193.43 411.467L1183.44 411.254C1177.94 411.136 1173.32 411.172 1173.16 411.333C1173 411.494 1172.87 421.541 1172.87 433.661V455.695L1166.36 455.687C1162.79 455.683 1158.67 455.483 1157.22 455.244L1154.59 454.808L1154.59 407.959C1154.59 382.192 1154.8 357.565 1155.05 353.233L1155.5 345.356L1158.73 345.086C1160.51 344.939 1180.29 344.785 1202.69 344.744L1243.41 344.671L1242.94 371.114ZM910.071 354.078C909.737 355.825 909.686 355.836 902.082 355.836H894.43V354.078V352.32H902.418H910.407L910.071 354.078ZM946.914 354.077L946.812 355.835H938.902L930.992 355.836V354.078V352.32H939.004H947.015L946.914 354.077ZM870.381 356.939L874.039 357.424L874.036 374.738L874.033 392.052L835.54 392.273L797.047 392.493L797.247 383.483L797.446 374.472L791.307 369.197C784.82 363.624 779.117 358.017 779.117 357.213C779.117 356.575 865.679 356.314 870.381 356.939ZM1319.82 407.348V456.398H1290.73C1274.73 456.398 1260.69 456.209 1259.54 455.978L1257.44 455.559L1257.3 407.462C1257.22 381.008 1257.3 359.124 1257.48 358.831C1257.66 358.537 1271.76 358.297 1288.82 358.297H1319.82V407.348ZM1338.75 359.643C1338.59 359.803 1338.55 364.866 1338.66 370.895L1338.87 381.856H1347.28H1355.68V370.604V359.352H1347.36C1342.78 359.352 1338.91 359.483 1338.75 359.643ZM1374.66 370.604V381.856H1383.45H1392.24V370.604V359.352H1383.45H1374.66V370.604ZM1410.52 370.604V381.856H1419.34H1428.15L1428.07 370.604L1427.98 359.352H1419.25H1410.52V370.604ZM1354.27 370.78V380.449H1347.24H1340.21L1340.21 370.78L1340.21 361.11H1347.24H1354.27L1354.27 370.78ZM1390.13 370.738V380.449H1383.1H1376.07L1376.07 370.78L1376.08 361.11L1383.1 361.069L1390.13 361.026V370.738ZM1425.99 370.738V380.449H1418.96H1411.93L1411.93 370.78L1411.93 361.11L1418.96 361.069L1425.99 361.026V370.738ZM1023.28 362.014L1016.07 362.214V373.441V384.668L1019.06 384.664C1020.7 384.661 1024.18 384.457 1026.79 384.21L1031.54 383.762V373.005C1031.54 367.088 1031.3 362.15 1031.01 362.031C1030.72 361.911 1027.24 361.903 1023.28 362.014ZM1046.3 373.241L1046.3 384.668L1048.59 384.664C1049.85 384.662 1053.49 384.456 1056.69 384.207L1062.51 383.754L1062.32 372.938L1062.12 362.121L1054.21 361.967L1046.3 361.813V373.241ZM984.494 373.447L984.357 384.729L992.303 384.514L1000.25 384.298V373.232V362.166H992.441L984.631 362.165L984.494 373.447ZM998.492 368.742C998.492 371.587 998.695 375.859 998.944 378.236L999.396 382.559H992.615H985.836L985.839 379.922C985.842 378.472 986.048 374.199 986.297 370.428L986.751 363.572H992.622H998.492V368.742ZM1030.13 373.065V382.559H1023.8H1017.48V373.065V363.572H1023.8H1030.13V373.065ZM1061.07 373.065V382.559H1054.39H1047.71V373.065V363.572H1054.39H1061.07V373.065ZM1173.57 375.175V384.668H1182.11H1190.65L1190.19 380.346C1189.95 377.969 1189.74 373.697 1189.74 370.852V365.681H1181.66H1173.57V375.175ZM1208.73 375.526V384.668H1216.81H1224.9V375.526V366.384H1216.81H1208.73V375.526ZM1188.34 374.823V382.559H1181.66H1174.98V374.823V367.088H1181.66H1188.34V374.823ZM1223.37 375.531L1223.6 382.559H1216.87H1210.13V375.526V368.494L1216.64 368.499L1223.14 368.504L1223.37 375.531ZM1270.63 369.775C1269.78 370.057 1269.59 392.161 1270.43 392.592C1270.72 392.74 1273.57 392.725 1276.77 392.558L1282.59 392.254L1282.4 380.901L1282.2 369.549L1276.78 369.541C1273.8 369.536 1271.03 369.641 1270.63 369.775ZM1296.16 370.269C1296 370.679 1295.96 375.906 1296.07 381.885L1296.27 392.756L1301.69 392.961C1308.32 393.211 1308 393.908 1307.72 379.746L1307.52 369.549L1301.98 369.536C1298.72 369.529 1296.33 369.83 1296.16 370.269ZM1280.99 380.915L1280.8 390.522L1276.05 390.818L1271.3 391.114V381.211V371.307H1276.25H1281.19L1280.99 380.915ZM1306.21 373.944C1305.97 375.395 1305.77 379.993 1305.77 384.162L1305.76 391.743L1302.07 391.546C1297.49 391.302 1297.48 391.275 1297.39 379.922L1297.32 371.307H1301.98H1306.65L1306.21 373.944ZM892.584 381.152C892.82 383.666 893.016 390.075 893.019 395.393L893.023 405.062H902.516H912.008V390.796V376.531L902.082 376.556L892.155 376.581L892.584 381.152ZM929.355 376.697C929.289 376.761 929.326 383.178 929.438 390.957L929.643 405.102L939.282 404.906L948.922 404.711L949.112 390.605L949.302 376.499L939.389 376.541C933.937 376.563 929.422 376.633 929.355 376.697ZM910.602 388.185V398.03H902.516H894.43V388.185V378.339H902.516H910.602V388.185ZM947.303 388.183L947.09 398.03H939.041H930.992V388.185V378.339L939.254 378.338L947.516 378.337L947.303 388.183ZM722.106 387.069C721.945 387.229 721.909 391.659 722.026 396.914L722.24 406.469H730.933C735.715 406.469 740.127 406.661 740.739 406.896C741.722 407.272 741.852 406.128 741.852 397.05V386.778H732.125C726.775 386.778 722.267 386.909 722.106 387.069ZM758.976 391.081C759.226 393.469 759.43 397.908 759.43 400.946V406.469H769.345H779.261L778.887 396.799L778.515 387.13L768.518 386.934L758.522 386.738L758.976 391.081ZM739.999 394.162C740.24 397.256 740.439 400.975 740.441 402.425L740.445 405.062H732.008H723.57L723.574 396.799L723.577 388.536H731.569H739.561L739.999 394.162ZM777.005 396.799L777.008 405.062H768.922H760.836V398.821C760.836 395.389 760.654 391.67 760.432 390.558L760.027 388.536H768.515H777.001L777.005 396.799ZM873.743 393.983C873.875 394.115 874.074 407.974 874.186 424.783L874.391 455.343L835.978 455.428L797.565 455.514L797.045 425.334C796.759 408.735 796.706 394.972 796.927 394.751C797.978 393.7 872.713 392.953 873.743 393.983ZM910.602 401.194V402.953H902.516C894.975 402.953 894.43 402.86 894.43 401.585C894.43 400.102 895.981 399.827 905.855 399.563C910.483 399.44 910.602 399.48 910.602 401.194ZM947.164 401.194V402.953H939.078H930.992V401.194V399.436H939.078H947.164V401.194ZM985.953 407.164C986.196 407.885 1054.4 408.704 1058.79 408.038C1060.04 407.847 1061.07 407.416 1061.07 407.08C1061.07 406.742 1044.26 406.469 1023.39 406.469C998.868 406.469 985.801 406.711 985.953 407.164ZM1270.06 420.674L1270.25 432.067L1276.49 432.349C1281.21 432.561 1282.88 432.398 1283.34 431.68C1283.67 431.158 1283.94 425.905 1283.95 420.006L1283.96 409.282H1276.91H1269.86L1270.06 420.674ZM1295.58 409.964C1295.32 410.37 1295.34 415.603 1295.62 421.595L1296.12 432.488H1302.21H1308.31L1308.07 421.061L1307.83 409.633L1301.93 409.431C1298.36 409.308 1295.85 409.519 1295.58 409.964ZM813.996 412.211C813.795 413.501 813.432 418.95 813.188 424.322C812.835 432.083 812.937 434.21 813.684 434.683C814.202 435.012 818.027 435.284 822.184 435.291L829.742 435.301V422.995V410.688H823.12C819.478 410.688 816.016 410.503 815.429 410.277C814.638 409.974 814.264 410.479 813.996 412.211ZM849.589 410.517L842.365 410.737L842.558 422.843L842.75 434.95L850.676 435.149L858.603 435.348L858.411 422.9C858.293 415.265 857.947 410.422 857.516 410.374C857.129 410.332 853.562 410.396 849.589 410.517ZM1282.45 420.488C1282.3 425.879 1282.02 430.396 1281.84 430.526C1281.65 430.656 1279.21 430.651 1276.4 430.514L1271.3 430.263L1271.31 424.168C1271.31 420.815 1271.52 416.411 1271.76 414.38L1272.2 410.688H1277.46H1282.71L1282.45 420.488ZM1306.46 420.977V431.266L1303.82 430.83C1302.37 430.59 1300.32 430.391 1299.25 430.386L1297.32 430.379V420.533V410.688H1301.89H1306.46V420.977ZM828.336 423.097V434.098L823.59 433.65C820.979 433.403 817.973 433.199 816.91 433.197L814.977 433.192L814.983 426.335C814.986 422.564 815.188 417.817 815.432 415.787L815.876 412.095H822.106H828.336V423.097ZM856.602 423.021L856.391 433.948L850.274 433.746L844.156 433.543L843.962 422.819L843.768 412.095L850.29 412.094L856.812 412.092L856.602 423.021ZM1209.18 418.512C1208.93 422.063 1208.73 426.71 1208.73 428.837V432.706L1217.62 432.254C1222.52 432.007 1226.61 431.71 1226.73 431.597C1226.84 431.483 1226.99 427.127 1227.05 421.918L1227.17 412.446L1218.4 412.25L1209.64 412.054L1209.18 418.512ZM1191.44 418.775C1191.38 421.87 1191.29 431.363 1191.24 439.872L1191.15 455.343L1182.66 455.433L1174.17 455.522L1174.37 434.239L1174.57 412.957L1183.05 413.053L1191.54 413.149L1191.44 418.775ZM1225.6 422.116L1225.6 430.379H1218.22H1210.84V422.061V413.742L1218.22 413.798L1225.6 413.853L1225.6 422.116ZM985.836 423.967C985.836 424.798 1034.65 425.763 1048.41 425.204C1054.41 424.961 1059.71 424.76 1060.19 424.757C1060.68 424.755 1061.07 424.436 1061.07 424.05C1061.07 423.59 1048.06 423.346 1023.45 423.346C1002.15 423.346 985.836 423.616 985.836 423.967ZM760.836 440.115V455.477L751.273 455.936C746.014 456.188 741.426 456.218 741.078 456.003C740.73 455.788 740.445 448.669 740.445 440.182V424.753H750.641H760.836V440.115Z" fill="#3377F4" fill-opacity="0.4"/>
<path fill-rule="evenodd" clip-rule="evenodd" d="M1132.09 20.0421V40.0843H1123.65H1115.21V44.5568C1115.21 47.0174 1115.01 50.4767 1114.77 52.2446L1114.33 55.4584L1109.61 55.0631L1104.89 54.6672L1104.42 61.1968C1104.17 64.7882 1103.96 69.7347 1103.96 72.1897V76.6524H1099.08C1096.4 76.6524 1094 76.9794 1093.75 77.3788C1093.5 77.7783 1093.34 84.2241 1093.38 91.7023L1093.47 105.299L1091.24 105.744C1090.02 105.988 1087.37 106.188 1085.35 106.188H1081.69L1081.22 121.484C1080.97 129.896 1080.76 149.314 1080.76 164.635L1080.76 192.49L1077.07 192.933C1075.04 193.177 1071.12 193.38 1068.37 193.383L1063.36 193.389L1062.92 191.191C1062.67 189.983 1062.48 186.343 1062.48 183.104V177.215L1044.72 177.151C1034.96 177.117 1023.96 176.952 1020.29 176.786C1016.62 176.62 1006.25 176.684 997.262 176.929L980.914 177.372V185.446V193.521L974.381 193.03C968.635 192.599 967.724 192.689 966.822 193.777C965.948 194.831 965.797 201.52 965.797 239.208C965.797 263.516 965.797 283.458 965.797 283.527C965.797 283.595 945.23 283.832 920.094 284.054L874.391 284.458L874.193 319.582C874.085 338.901 873.905 354.799 873.792 354.91C873.68 355.022 851.835 355.126 825.247 355.143L776.904 355.171L774.671 353.304C773.442 352.276 767.086 346.235 760.545 339.88L748.653 328.323L742.612 334.52C729.569 347.902 719.951 358.632 720.173 359.552C720.383 360.42 724.261 356.465 742.742 336.532L747.926 330.941L753.854 335.897C757.114 338.623 764.808 346.034 770.951 352.365C777.094 358.697 783.181 364.72 784.478 365.75C785.774 366.781 788.74 369.388 791.069 371.545L795.303 375.465L795.547 415.58L795.792 455.695H779.017H762.242V439.071V422.447L758.551 422.891C756.52 423.135 751.3 423.337 746.949 423.34L739.039 423.346L739.04 439.696L739.041 456.047L729.548 455.817C721.417 455.619 720.055 455.739 720.055 456.656C720.055 458.144 728.108 458.263 788.258 457.66C815.521 457.386 972.459 457.239 1137.01 457.332C1301.56 457.426 1437.06 457.376 1438.12 457.222C1439.18 457.068 1440.05 456.503 1440.05 455.967C1440.05 455.158 1436.64 454.992 1420.09 454.992H1400.12L1399.87 434.422C1399.63 414.66 1399.56 413.724 1398.01 410.574C1396.21 406.918 1385.91 396.623 1384.05 396.623C1381.94 396.623 1371.91 403.017 1369.38 405.965C1368.03 407.545 1366.61 409.967 1366.23 411.346C1365.32 414.596 1365.29 454.289 1366.19 454.289C1366.59 454.289 1366.94 445.886 1367.07 433.367L1367.28 412.446L1369.15 409.275C1371.01 406.111 1374.12 403.526 1380.49 399.872L1383.86 397.941L1387.29 400.815C1392.06 404.812 1395.03 408.339 1396.59 411.871C1397.76 414.505 1397.98 417.384 1398.36 434.841L1398.79 454.8L1360.27 455.423C1334.66 455.838 1321.67 455.811 1321.5 455.343C1321.37 454.957 1321.33 409.749 1321.42 354.881L1321.58 255.121L1374.35 255.233C1430.51 255.352 1440.05 255.075 1440.05 253.322C1440.05 252.442 1438.89 252.328 1432.74 252.601L1425.43 252.927L1425.02 250.408C1424.79 249.023 1424.6 244.996 1424.59 241.459L1424.59 235.03L1412.81 234.51C1406.33 234.224 1387 234.146 1369.84 234.336L1338.65 234.683L1338.76 243.923L1338.87 253.164H1329.35H1319.82V290.169V327.174L1304.88 326.849L1289.94 326.524L1289.7 267.165L1289.47 207.805L1282.48 201.476C1278.64 197.995 1267.88 187.474 1258.57 178.097C1243.57 162.977 1241.51 161.145 1240.41 161.922C1238.86 163.013 1225.23 177.312 1210.75 193.053C1204.7 199.62 1198.77 205.865 1197.56 206.932L1195.37 208.871L1195.35 254.752L1195.34 300.632L1190.19 305.331L1185.03 310.03L1184.56 297.947C1184.3 291.302 1184.11 245.7 1184.13 196.61C1184.15 143.384 1183.9 107.095 1183.51 106.711C1183.16 106.356 1180.33 105.892 1177.23 105.679L1171.58 105.292L1171.5 93.6095C1171.45 87.184 1171.22 80.7403 1171 79.2895L1170.58 76.6524H1165.39H1160.21V66.1545V55.6567L1156.49 55.1911C1154.44 54.9352 1152.14 54.8332 1151.39 54.9647C1150.12 55.1862 1149.99 54.6602 1149.66 47.8198L1149.31 40.4359L1141.4 40.2369L1133.49 40.0379V20.0189C1133.49 7.14203 1133.24 0 1132.79 0C1132.34 0 1132.09 7.14977 1132.09 20.0421ZM1147.38 42.4204C1147.97 42.8543 1148.26 45.1244 1148.26 49.2699V55.4703L1140.17 55.6883C1135.72 55.8086 1128.42 55.8079 1123.93 55.6876C1115.93 55.4724 1115.78 55.4387 1116.18 53.9295C1116.41 53.0828 1116.81 49.9253 1117.06 46.912L1117.53 41.4338L1132.01 41.6026C1139.98 41.6954 1146.9 42.0632 1147.38 42.4204ZM1158.54 60.7868C1158.31 62.7446 1158.11 67.2734 1158.11 70.8507L1158.1 77.3556L1142.11 77.3528C1133.31 77.3514 1121.6 77.144 1116.09 76.8922L1106.07 76.4337L1106.07 66.8732V57.3135L1132.52 57.2706L1158.97 57.2277L1158.54 60.7868ZM1141.65 78.6327L1169.14 78.7621L1169.64 91.8472C1169.91 99.0433 1169.94 105.135 1169.69 105.384C1169.44 105.633 1152.49 105.887 1132.03 105.949L1094.82 106.062V92.4491V78.836L1098.51 78.6229C1100.54 78.5061 1104.89 78.4316 1108.18 78.4569C1111.47 78.4822 1126.53 78.5617 1141.65 78.6327ZM1114.16 92.8268C1113.87 93.2888 1120.13 93.53 1132.4 93.53C1144.38 93.53 1151.07 93.2782 1151.07 92.8268C1151.07 92.376 1144.52 92.1235 1132.83 92.1235C1121.43 92.1235 1114.43 92.3872 1114.16 92.8268ZM1182.71 199.894C1182.72 250.659 1182.92 296.634 1183.17 302.061L1183.62 311.928L1168.42 328.432L1153.23 344.936L1153.21 400.315L1153.18 455.695H1148.49H1143.81L1144.1 305.027C1144.29 204.926 1144.15 154.301 1143.69 154.183C1142.99 154.009 1142.27 260.705 1142.03 396.799L1141.93 455.695H1132.72H1123.51L1123.76 305.262C1123.89 222.523 1123.76 154.591 1123.47 154.301C1123.18 154.011 1122.78 153.943 1122.57 154.149C1122.36 154.356 1122.17 222.288 1122.14 305.11L1122.09 455.695H1113.07C1104.34 455.695 1104.04 455.645 1103.55 454.113C1103.27 453.243 1103.17 385.442 1103.33 303.445C1103.51 204.335 1103.37 154.36 1102.91 154.36C1102.12 154.36 1102.18 145.181 1101.78 327.882L1101.5 455.694L1092.18 455.694L1082.87 455.695V281.645V107.595H1132.79H1182.71L1182.71 199.894ZM1122.24 134.669C1122.24 140.998 1122.51 144.866 1122.95 144.866C1123.38 144.866 1123.65 140.998 1123.65 134.669C1123.65 128.34 1123.38 124.472 1122.95 124.472C1122.51 124.472 1122.24 128.34 1122.24 134.669ZM1101.85 135.021C1101.85 141.116 1102.12 144.866 1102.55 144.866C1102.99 144.866 1103.26 141.116 1103.26 135.021C1103.26 128.926 1102.99 125.175 1102.55 125.175C1102.12 125.175 1101.85 128.926 1101.85 135.021ZM1142.54 127.109C1142.05 130.773 1142.72 144.866 1143.38 144.866C1143.76 144.866 1144.04 140.679 1144.04 135.021C1144.04 129.606 1143.76 125.175 1143.42 125.175C1143.07 125.175 1142.68 126.046 1142.54 127.109ZM1162.77 135.103C1162.31 144.165 1162.49 145.979 1163.78 145.187C1164.59 144.682 1164.65 126.8 1163.83 126.296C1163.51 126.094 1163.03 130.057 1162.77 135.103ZM1162.1 165.787C1161.35 191.858 1163.01 328.425 1164.08 328.398C1164.46 328.389 1164.75 327.201 1164.72 325.758C1164.65 323.024 1163.67 157.395 1163.71 155.239C1163.72 154.562 1163.44 154.008 1163.08 154.008C1162.73 154.008 1162.29 159.309 1162.1 165.787ZM1242.48 163.802C1242.48 164.354 1271.62 193.473 1283.96 205.253L1287.83 208.944L1243.44 208.727L1199.05 208.509L1204.06 202.918C1220.57 184.509 1240.89 163.15 1241.88 163.15C1242.21 163.15 1242.48 163.443 1242.48 163.802ZM1060.68 184.95C1060.84 188.238 1061.17 191.445 1061.41 192.076C1061.76 192.973 1061.35 193.284 1059.53 193.494C1058.25 193.642 1040.51 193.643 1020.11 193.497L983.023 193.23V185.92V178.609L1021.71 178.791L1060.39 178.973L1060.68 184.95ZM1080.76 325.421V455.695H1024.16H967.555L967.379 356.012C967.143 222.17 967.19 205.058 967.805 199.718L968.332 195.147H1024.55H1080.76V325.421ZM1287.66 268.361L1288.03 326.103L1282.3 326.549C1279.15 326.795 1273.86 326.997 1270.53 326.999C1267.2 327.001 1262.53 327.207 1260.16 327.455L1255.84 327.907V391.801V455.695H1250.16H1244.49L1244.71 399.434L1244.94 343.172L1222.17 320.375C1207.97 306.154 1199.05 297.719 1198.44 297.95C1197.63 298.263 1197.48 291.375 1197.48 254.329V210.338L1242.39 210.478L1287.3 210.618L1287.66 268.361ZM983.974 216.772C984.218 218.803 984.421 223.865 984.423 228.023L984.43 235.583H992.516H1000.6V224.331V213.08H992.066H983.53L983.974 216.772ZM1015.53 224.156L1015.72 235.231L1023.63 235.293L1031.54 235.356V224.217V213.08H1023.44H1015.33L1015.53 224.156ZM1046.46 224.156L1046.66 235.231L1054.57 235.361L1062.48 235.491V224.285V213.08H1054.37H1046.27L1046.46 224.156ZM999.11 224.376L999.303 233.473H992.608H985.914L985.7 224.27C985.581 219.208 985.536 215.016 985.598 214.952C985.662 214.889 988.684 214.937 992.315 215.059L998.918 215.279L999.11 224.376ZM1030.13 224.38V233.473L1023.63 233.472L1017.12 233.471L1016.88 224.154L1016.64 214.838L1023.39 215.062L1030.13 215.286V224.38ZM1061.07 224.38V233.473H1054.39H1047.71L1047.71 224.156L1047.71 214.838L1054.39 215.062L1061.07 215.286V224.38ZM1219.53 233.592C1219.77 235.961 1219.98 240.7 1219.98 244.125V250.351H1226.3C1230.05 250.351 1232.63 250.065 1232.63 249.648C1232.63 249.238 1230.3 248.945 1227.05 248.945H1221.46L1221.25 240.153L1221.03 231.361L1227.24 231.362C1231.9 231.364 1233.38 231.144 1233.16 230.485C1232.96 229.876 1230.74 229.556 1225.97 229.445L1219.08 229.285L1219.53 233.592ZM1257.42 229.776L1252.32 230.019L1252.33 236.493C1252.33 240.054 1252.53 244.628 1252.78 246.659L1253.22 250.351H1259.8H1266.38V239.802V229.254L1264.45 229.394C1263.39 229.471 1260.22 229.643 1257.42 229.776ZM1264.27 240.154V248.945H1259.39H1254.51L1254.3 240.445C1254.18 235.769 1254.21 231.814 1254.37 231.654C1254.53 231.494 1256.83 231.364 1259.47 231.364H1264.27V240.154ZM1423.18 244.725V253.164H1381.7H1340.21V244.725V236.286H1381.7H1423.18V244.725ZM984.43 260.899V272.151H992.516H1000.6V260.899V249.648H992.516H984.43V260.899ZM1015.37 260.899V272.151H1023.45H1031.54V260.899V249.648H1023.45H1015.37V260.899ZM1046.3 260.899V272.151H1054.39H1062.48V260.899V249.648H1054.39H1046.3V260.899ZM999.195 261.3V270.745H992.516H985.836L985.835 261.075L985.833 251.406L992.514 251.63L999.195 251.854V261.3ZM1030.13 261.075V270.745H1023.59H1017.04L1016.86 261.075L1016.67 251.406H1023.4H1030.13V261.075ZM1061.07 261.075V270.745H1054.39H1047.71V261.075V251.406H1054.39H1061.07V261.075ZM1219.68 270.745C1219.59 270.938 1219.66 275.775 1219.83 281.494L1220.13 291.891L1226.91 291.691L1233.69 291.49V281.163V270.837L1226.76 270.615C1222.95 270.493 1219.77 270.551 1219.68 270.745ZM1252.56 271.13C1252.41 271.536 1252.37 276.283 1252.47 281.679L1252.67 291.49H1259.35H1266.03L1265.9 281.06L1265.77 270.63L1259.31 270.511C1255.34 270.439 1252.73 270.678 1252.56 271.13ZM1231.93 281.293V290.435H1226.66H1221.38V281.293V272.151H1226.66H1231.93V281.293ZM1264.27 280.942V289.732H1259.35H1254.43V287.379C1254.43 286.084 1254.22 282.129 1253.97 278.589L1253.52 272.151H1258.89H1264.27V280.942ZM1338.66 284.613C1338.81 292.237 1339.14 295.837 1339.72 296.207C1340.75 296.859 1346.97 296.911 1351.99 296.309L1355.68 295.865V284.712V273.558L1347.07 273.557L1338.45 273.556L1338.66 284.613ZM1374.82 284.985L1375.02 296.413L1379.23 296.64C1381.55 296.765 1385.43 296.661 1387.85 296.409L1392.24 295.949V284.753V273.558H1383.44H1374.63L1374.82 284.985ZM1410.68 284.985L1410.88 296.413L1418.61 296.468C1422.86 296.498 1426.74 296.385 1427.22 296.217C1427.88 295.989 1428.1 293.044 1428.1 284.734V273.558H1419.29H1410.49L1410.68 284.985ZM1354.27 284.809V294.655H1347.24H1340.21V284.809V274.964H1347.24H1354.27V284.809ZM1390.13 284.809V294.655H1383.1H1376.07V284.809V274.964H1383.1H1390.13V284.809ZM1425.99 284.809V294.655H1418.96H1411.93V284.809V274.964H1418.96H1425.99V284.809ZM966.148 297.643V309.423L943.824 309.424C931.546 309.425 911.296 309.634 898.824 309.889L876.148 310.353V298.109V285.864H921.148H966.148V297.643ZM984.082 297.996L984.084 309.071L992.343 309.269L1000.6 309.467V298.193V286.919L992.34 286.92L984.078 286.921L984.082 297.996ZM1015.37 298.171V309.423H1023.45H1031.54V298.171V286.919H1023.45H1015.37V298.171ZM1046.3 298.171V309.423H1054.39H1062.48V298.171V286.919H1054.39H1046.3V298.171ZM999.193 298.171L999.193 307.664L992.514 307.877L985.836 308.09V298.383L985.835 288.677H992.514H999.194L999.193 298.171ZM1030.13 298.347V308.016H1023.9H1017.67L1017.23 304.324C1016.99 302.293 1016.78 297.942 1016.78 294.655L1016.77 288.677H1023.45H1030.13V298.347ZM1061.07 298.171L1061.07 307.664L1054.39 307.901L1047.71 308.137V298.407V288.677H1054.39H1061.07L1061.07 298.171ZM1235.42 342.996C1231.76 343.088 1212.6 343.247 1192.85 343.347L1156.94 343.529L1166.84 332.682C1172.28 326.716 1179.47 318.84 1182.8 315.18C1186.14 311.52 1191.19 306.465 1194.03 303.946L1199.19 299.366L1220.63 321.096L1242.08 342.826L1235.42 342.996ZM966.148 383.3V455.772L939.499 455.649L912.849 455.526L912.421 445.238C912.186 439.579 911.89 432.483 911.764 429.468C911.575 424.961 911.711 424.055 912.532 424.37C913.08 424.58 917.499 424.753 922.349 424.753H931.17L930.906 439.632C930.701 451.098 930.842 454.579 931.52 454.81C932.206 455.043 932.398 451.553 932.398 438.876V422.643H921.133H909.868L910.346 439.169L910.824 455.695H893.486H876.148V383.619V311.544L916.051 311.356C937.997 311.253 958.247 311.092 961.051 310.999L966.148 310.829V383.3ZM1338.57 316.219C1338.51 316.282 1338.55 321.583 1338.66 327.998L1338.87 339.662H1344.01C1346.84 339.662 1350.62 339.46 1352.42 339.214L1355.68 338.767V327.435V316.103H1347.18C1342.51 316.103 1338.63 316.155 1338.57 316.219ZM1382.91 316.302L1374.63 316.5L1374.82 327.905L1375.02 339.31L1378.53 339.541C1380.46 339.669 1384.34 339.563 1387.14 339.306L1392.24 338.838V327.688C1392.24 321.555 1392.01 316.44 1391.71 316.321C1391.42 316.201 1387.46 316.193 1382.91 316.302ZM1418.77 316.302L1410.49 316.5L1410.68 327.905L1410.88 339.31L1415.09 339.537C1417.41 339.662 1421.29 339.558 1423.71 339.306L1428.1 338.847V327.692C1428.1 321.558 1427.86 316.44 1427.57 316.321C1427.28 316.201 1423.32 316.193 1418.77 316.302ZM1354.27 327.707V337.552H1347.24H1340.21V327.707V317.861H1347.24H1354.27V327.707ZM1390.13 327.707V337.552H1383.1H1376.07V327.707V317.861H1383.1H1390.13V327.707ZM1425.99 327.707V337.552H1418.96H1411.93V327.707V317.861H1418.96H1425.99V327.707ZM983.885 335.97L984.078 347.046L992.34 347.244L1000.6 347.441V336.168V324.894H992.146H983.691L983.885 335.97ZM1015.53 335.97L1015.72 347.046L1023.63 347.245L1031.54 347.444V336.169V324.894H1023.44H1015.33L1015.53 335.97ZM1046.3 336.145V347.397H1054.39H1062.48V336.145V324.894H1054.39H1046.3V336.145ZM999.195 335.93V345.287L997.262 345.292C996.199 345.295 993.21 345.498 990.62 345.742L985.913 346.187L985.698 336.322L985.484 326.457L992.34 326.514L999.195 326.571V335.93ZM1030.13 335.866V345.08L1024.05 345.548C1020.71 345.804 1017.9 345.93 1017.81 345.827C1017.73 345.723 1017.43 341.339 1017.16 336.085L1016.67 326.531L1023.4 326.591L1030.13 326.652L1030.13 335.866ZM1061.07 335.873V345.094L1055.09 345.579C1051.8 345.846 1048.79 345.872 1048.41 345.635C1048 345.386 1047.71 341.292 1047.71 335.928V326.652H1054.39H1061.07V335.873ZM892.784 328.41C892.723 328.603 892.77 335.169 892.888 343.002L893.106 357.242H902.571H912.037L911.846 342.65L911.656 328.058H902.277C897.117 328.058 892.846 328.216 892.784 328.41ZM929.586 342.51V357.242H939.078H948.57V343.178C948.57 335.442 948.65 328.876 948.746 328.586C948.842 328.295 944.572 327.995 939.254 327.918L929.586 327.778V342.51ZM1319.82 342.474V356.539H1288.53H1257.24V342.865V329.19L1260.58 328.927C1262.42 328.782 1276.5 328.606 1291.87 328.536L1319.82 328.41V342.474ZM946.619 339.837L946.284 350.21L943.384 350.215C941.789 350.218 938.348 350.422 935.738 350.669L930.992 351.117V340.489V329.863L938.902 329.664C943.253 329.554 946.844 329.465 946.884 329.465C946.922 329.465 946.803 334.133 946.619 339.837ZM910.197 331.75C910.133 332.814 910.039 337.561 909.989 342.299L909.898 350.913L902.34 350.912L894.781 350.911V340.363V329.816H902.548L910.315 329.816L910.197 331.75ZM1242.94 371.114C1242.69 385.657 1242.48 410.662 1242.48 426.679V455.801L1217.44 455.616L1192.4 455.431L1192.91 433.45L1193.43 411.467L1183.44 411.254C1177.94 411.136 1173.32 411.172 1173.16 411.333C1173 411.494 1172.87 421.541 1172.87 433.661V455.695L1166.36 455.687C1162.79 455.683 1158.67 455.483 1157.22 455.244L1154.59 454.808L1154.59 407.959C1154.59 382.192 1154.8 357.565 1155.05 353.233L1155.5 345.356L1158.73 345.086C1160.51 344.939 1180.29 344.785 1202.69 344.744L1243.41 344.671L1242.94 371.114ZM910.071 354.078C909.737 355.825 909.686 355.836 902.082 355.836H894.43V354.078V352.32H902.418H910.407L910.071 354.078ZM946.914 354.077L946.812 355.835H938.902L930.992 355.836V354.078V352.32H939.004H947.015L946.914 354.077ZM870.381 356.939L874.039 357.424L874.036 374.738L874.033 392.052L835.54 392.273L797.047 392.493L797.247 383.483L797.446 374.472L791.307 369.197C784.82 363.624 779.117 358.017 779.117 357.213C779.117 356.575 865.679 356.314 870.381 356.939ZM1319.82 407.348V456.398H1290.73C1274.73 456.398 1260.69 456.209 1259.54 455.978L1257.44 455.559L1257.3 407.462C1257.22 381.008 1257.3 359.124 1257.48 358.831C1257.66 358.537 1271.76 358.297 1288.82 358.297H1319.82V407.348ZM1338.75 359.643C1338.59 359.803 1338.55 364.866 1338.66 370.895L1338.87 381.856H1347.28H1355.68V370.604V359.352H1347.36C1342.78 359.352 1338.91 359.483 1338.75 359.643ZM1374.66 370.604V381.856H1383.45H1392.24V370.604V359.352H1383.45H1374.66V370.604ZM1410.52 370.604V381.856H1419.34H1428.15L1428.07 370.604L1427.98 359.352H1419.25H1410.52V370.604ZM1354.27 370.78V380.449H1347.24H1340.21L1340.21 370.78L1340.21 361.11H1347.24H1354.27L1354.27 370.78ZM1390.13 370.738V380.449H1383.1H1376.07L1376.07 370.78L1376.08 361.11L1383.1 361.069L1390.13 361.026V370.738ZM1425.99 370.738V380.449H1418.96H1411.93L1411.93 370.78L1411.93 361.11L1418.96 361.069L1425.99 361.026V370.738ZM1023.28 362.014L1016.07 362.214V373.441V384.668L1019.06 384.664C1020.7 384.661 1024.18 384.457 1026.79 384.21L1031.54 383.762V373.005C1031.54 367.088 1031.3 362.15 1031.01 362.031C1030.72 361.911 1027.24 361.903 1023.28 362.014ZM1046.3 373.241L1046.3 384.668L1048.59 384.664C1049.85 384.662 1053.49 384.456 1056.69 384.207L1062.51 383.754L1062.32 372.938L1062.12 362.121L1054.21 361.967L1046.3 361.813V373.241ZM984.494 373.447L984.357 384.729L992.303 384.514L1000.25 384.298V373.232V362.166H992.441L984.631 362.165L984.494 373.447ZM998.492 368.742C998.492 371.587 998.695 375.859 998.944 378.236L999.396 382.559H992.615H985.836L985.839 379.922C985.842 378.472 986.048 374.199 986.297 370.428L986.751 363.572H992.622H998.492V368.742ZM1030.13 373.065V382.559H1023.8H1017.48V373.065V363.572H1023.8H1030.13V373.065ZM1061.07 373.065V382.559H1054.39H1047.71V373.065V363.572H1054.39H1061.07V373.065ZM1173.57 375.175V384.668H1182.11H1190.65L1190.19 380.346C1189.95 377.969 1189.74 373.697 1189.74 370.852V365.681H1181.66H1173.57V375.175ZM1208.73 375.526V384.668H1216.81H1224.9V375.526V366.384H1216.81H1208.73V375.526ZM1188.34 374.823V382.559H1181.66H1174.98V374.823V367.088H1181.66H1188.34V374.823ZM1223.37 375.531L1223.6 382.559H1216.87H1210.13V375.526V368.494L1216.64 368.499L1223.14 368.504L1223.37 375.531ZM1270.63 369.775C1269.78 370.057 1269.59 392.161 1270.43 392.592C1270.72 392.74 1273.57 392.725 1276.77 392.558L1282.59 392.254L1282.4 380.901L1282.2 369.549L1276.78 369.541C1273.8 369.536 1271.03 369.641 1270.63 369.775ZM1296.16 370.269C1296 370.679 1295.96 375.906 1296.07 381.885L1296.27 392.756L1301.69 392.961C1308.32 393.211 1308 393.908 1307.72 379.746L1307.52 369.549L1301.98 369.536C1298.72 369.529 1296.33 369.83 1296.16 370.269ZM1280.99 380.915L1280.8 390.522L1276.05 390.818L1271.3 391.114V381.211V371.307H1276.25H1281.19L1280.99 380.915ZM1306.21 373.944C1305.97 375.395 1305.77 379.993 1305.77 384.162L1305.76 391.743L1302.07 391.546C1297.49 391.302 1297.48 391.275 1297.39 379.922L1297.32 371.307H1301.98H1306.65L1306.21 373.944ZM892.584 381.152C892.82 383.666 893.016 390.075 893.019 395.393L893.023 405.062H902.516H912.008V390.796V376.531L902.082 376.556L892.155 376.581L892.584 381.152ZM929.355 376.697C929.289 376.761 929.326 383.178 929.438 390.957L929.643 405.102L939.282 404.906L948.922 404.711L949.112 390.605L949.302 376.499L939.389 376.541C933.937 376.563 929.422 376.633 929.355 376.697ZM910.602 388.185V398.03H902.516H894.43V388.185V378.339H902.516H910.602V388.185ZM947.303 388.183L947.09 398.03H939.041H930.992V388.185V378.339L939.254 378.338L947.516 378.337L947.303 388.183ZM722.106 387.069C721.945 387.229 721.909 391.659 722.026 396.914L722.24 406.469H730.933C735.715 406.469 740.127 406.661 740.739 406.896C741.722 407.272 741.852 406.128 741.852 397.05V386.778H732.125C726.775 386.778 722.267 386.909 722.106 387.069ZM758.976 391.081C759.226 393.469 759.43 397.908 759.43 400.946V406.469H769.345H779.261L778.887 396.799L778.515 387.13L768.518 386.934L758.522 386.738L758.976 391.081ZM739.999 394.162C740.24 397.256 740.439 400.975 740.441 402.425L740.445 405.062H732.008H723.57L723.574 396.799L723.577 388.536H731.569H739.561L739.999 394.162ZM777.005 396.799L777.008 405.062H768.922H760.836V398.821C760.836 395.389 760.654 391.67 760.432 390.558L760.027 388.536H768.515H777.001L777.005 396.799ZM873.743 393.983C873.875 394.115 874.074 407.974 874.186 424.783L874.391 455.343L835.978 455.428L797.565 455.514L797.045 425.334C796.759 408.735 796.706 394.972 796.927 394.751C797.978 393.7 872.713 392.953 873.743 393.983ZM910.602 401.194V402.953H902.516C894.975 402.953 894.43 402.86 894.43 401.585C894.43 400.102 895.981 399.827 905.855 399.563C910.483 399.44 910.602 399.48 910.602 401.194ZM947.164 401.194V402.953H939.078H930.992V401.194V399.436H939.078H947.164V401.194ZM985.953 407.164C986.196 407.885 1054.4 408.704 1058.79 408.038C1060.04 407.847 1061.07 407.416 1061.07 407.08C1061.07 406.742 1044.26 406.469 1023.39 406.469C998.868 406.469 985.801 406.711 985.953 407.164ZM1270.06 420.674L1270.25 432.067L1276.49 432.349C1281.21 432.561 1282.88 432.398 1283.34 431.68C1283.67 431.158 1283.94 425.905 1283.95 420.006L1283.96 409.282H1276.91H1269.86L1270.06 420.674ZM1295.58 409.964C1295.32 410.37 1295.34 415.603 1295.62 421.595L1296.12 432.488H1302.21H1308.31L1308.07 421.061L1307.83 409.633L1301.93 409.431C1298.36 409.308 1295.85 409.519 1295.58 409.964ZM813.996 412.211C813.795 413.501 813.432 418.95 813.188 424.322C812.835 432.083 812.937 434.21 813.684 434.683C814.202 435.012 818.027 435.284 822.184 435.291L829.742 435.301V422.995V410.688H823.12C819.478 410.688 816.016 410.503 815.429 410.277C814.638 409.974 814.264 410.479 813.996 412.211ZM849.589 410.517L842.365 410.737L842.558 422.843L842.75 434.95L850.676 435.149L858.603 435.348L858.411 422.9C858.293 415.265 857.947 410.422 857.516 410.374C857.129 410.332 853.562 410.396 849.589 410.517ZM1282.45 420.488C1282.3 425.879 1282.02 430.396 1281.84 430.526C1281.65 430.656 1279.21 430.651 1276.4 430.514L1271.3 430.263L1271.31 424.168C1271.31 420.815 1271.52 416.411 1271.76 414.38L1272.2 410.688H1277.46H1282.71L1282.45 420.488ZM1306.46 420.977V431.266L1303.82 430.83C1302.37 430.59 1300.32 430.391 1299.25 430.386L1297.32 430.379V420.533V410.688H1301.89H1306.46V420.977ZM828.336 423.097V434.098L823.59 433.65C820.979 433.403 817.973 433.199 816.91 433.197L814.977 433.192L814.983 426.335C814.986 422.564 815.188 417.817 815.432 415.787L815.876 412.095H822.106H828.336V423.097ZM856.602 423.021L856.391 433.948L850.274 433.746L844.156 433.543L843.962 422.819L843.768 412.095L850.29 412.094L856.812 412.092L856.602 423.021ZM1209.18 418.512C1208.93 422.063 1208.73 426.71 1208.73 428.837V432.706L1217.62 432.254C1222.52 432.007 1226.61 431.71 1226.73 431.597C1226.84 431.483 1226.99 427.127 1227.05 421.918L1227.17 412.446L1218.4 412.25L1209.64 412.054L1209.18 418.512ZM1191.44 418.775C1191.38 421.87 1191.29 431.363 1191.24 439.872L1191.15 455.343L1182.66 455.433L1174.17 455.522L1174.37 434.239L1174.57 412.957L1183.05 413.053L1191.54 413.149L1191.44 418.775ZM1225.6 422.116L1225.6 430.379H1218.22H1210.84V422.061V413.742L1218.22 413.798L1225.6 413.853L1225.6 422.116ZM985.836 423.967C985.836 424.798 1034.65 425.763 1048.41 425.204C1054.41 424.961 1059.71 424.76 1060.19 424.757C1060.68 424.755 1061.07 424.436 1061.07 424.05C1061.07 423.59 1048.06 423.346 1023.45 423.346C1002.15 423.346 985.836 423.616 985.836 423.967ZM760.836 440.115V455.477L751.273 455.936C746.014 456.188 741.426 456.218 741.078 456.003C740.73 455.788 740.445 448.669 740.445 440.182V424.753H750.641H760.836V440.115Z" fill="url(#paint0_linear_1149_3975)"/>
<path fill-rule="evenodd" clip-rule="evenodd" d="M307.96 20.0421V40.0843H316.399H324.838V44.5568C324.838 47.0174 325.036 50.4767 325.278 52.2446L325.719 55.4584L330.44 55.0631L335.163 54.6672L335.626 61.1968C335.881 64.7882 336.089 69.7347 336.089 72.1897V76.6524H340.971C343.656 76.6524 346.054 76.9794 346.301 77.3788C346.548 77.7783 346.713 84.2241 346.668 91.7023L346.586 105.299L348.81 105.744C350.032 105.988 352.684 106.188 354.701 106.188H358.369L358.831 121.484C359.085 129.896 359.293 149.314 359.295 164.635L359.296 192.49L362.988 192.933C365.018 193.177 368.935 193.38 371.691 193.383L376.701 193.389L377.141 191.191C377.383 189.983 377.58 186.343 377.58 183.104V177.215L395.337 177.151C405.103 177.117 416.1 176.952 419.774 176.786C423.449 176.62 433.812 176.684 442.805 176.929L459.155 177.372V185.446V193.521L465.69 193.03C471.436 192.599 472.347 192.689 473.249 193.777C474.124 194.831 474.275 201.52 474.275 239.208C474.275 263.516 474.275 283.458 474.275 283.527C474.275 283.595 494.844 283.832 519.985 284.054L565.695 284.458L565.893 319.582C566.001 338.901 566.181 354.799 566.293 354.91C566.405 355.022 588.254 355.126 614.846 355.143L663.196 355.171L665.43 353.304C666.659 352.276 673.016 346.235 679.558 339.88L691.452 328.323L697.494 334.52C710.539 347.902 720.159 358.632 719.937 359.552C719.726 360.42 715.847 356.465 697.363 336.532L692.179 330.941L686.25 335.897C682.99 338.623 675.295 346.034 669.15 352.365C663.006 358.697 656.918 364.72 655.622 365.75C654.325 366.781 651.359 369.388 649.03 371.545L644.795 375.465L644.551 415.58L644.306 455.695H661.084H677.861V439.071V422.447L681.553 422.891C683.584 423.135 688.804 423.337 693.156 423.34L701.067 423.346L701.067 439.696L701.065 456.047L710.56 455.817C718.693 455.619 720.055 455.739 720.055 456.656C720.055 458.144 712 458.263 651.841 457.66C624.573 457.386 467.612 457.239 303.037 457.332C138.463 457.426 2.94189 457.376 1.87793 457.222C0.813904 457.068 -0.0559692 456.503 -0.0559692 455.967C-0.0559692 455.158 3.35822 454.992 19.9159 454.992H39.8876L40.1366 434.422C40.375 414.66 40.4481 413.724 41.9974 410.574C43.7962 406.918 54.0972 396.623 55.9573 396.623C58.0634 396.623 68.1035 403.017 70.6267 405.965C71.979 407.545 73.3995 409.967 73.7821 411.346C74.6857 414.596 74.7223 454.289 73.8222 454.289C73.4241 454.289 73.0711 445.886 72.9431 433.367L72.7286 412.446L70.8644 409.275C69.0043 406.111 65.8848 403.526 59.5177 399.872L56.152 397.941L52.7195 400.815C47.946 404.812 44.9777 408.339 43.4158 411.871C42.2498 414.505 42.0283 417.384 41.6486 434.841L41.2147 454.8L79.7413 455.423C105.354 455.838 118.351 455.811 118.515 455.343C118.651 454.957 118.689 409.749 118.601 354.881L118.439 255.121L65.6591 255.233C9.49396 255.352 -0.0559692 255.075 -0.0559692 253.322C-0.0559692 252.442 1.10645 252.328 7.25555 252.601L14.5664 252.927L14.9833 250.408C15.2119 249.023 15.4032 244.996 15.4074 241.459L15.4152 235.03L27.1943 234.51C33.6725 234.224 53.0114 234.146 70.1682 234.336L101.364 234.683L101.252 243.923L101.141 253.164H110.669H120.197V290.169V327.174L135.141 326.849L150.084 326.524L150.32 267.165L150.555 207.805L157.543 201.476C161.387 197.995 172.147 187.474 181.455 178.097C196.462 162.977 198.519 161.145 199.623 161.922C201.173 163.013 214.799 177.312 229.288 193.053C235.333 199.62 241.266 205.865 242.474 206.932L244.669 208.871L244.682 254.752L244.694 300.632L249.849 305.331L255.004 310.03L255.474 297.947C255.733 291.302 255.929 245.7 255.912 196.61C255.892 143.384 256.139 107.095 256.524 106.711C256.878 106.356 259.708 105.892 262.813 105.679L268.457 105.292L268.542 93.6095C268.589 87.184 268.815 80.7403 269.045 79.2895L269.462 76.6524H274.647H279.831V66.1545V55.6567L283.557 55.1911C285.606 54.9352 287.9 54.8332 288.656 54.9647C289.926 55.1862 290.054 54.6602 290.379 47.8198L290.731 40.4359L298.642 40.2369L306.554 40.0379V20.0189C306.554 7.14203 306.805 0 307.257 0C307.709 0 307.96 7.14977 307.96 20.0421ZM292.665 42.4204C292.077 42.8543 291.786 45.1244 291.786 49.2699V55.4703L299.873 55.6883C304.321 55.8086 311.631 55.8079 316.118 55.6876C324.12 55.4724 324.268 55.4387 323.864 53.9295C323.637 53.0828 323.243 49.9253 322.987 46.912L322.521 41.4338L308.033 41.6026C300.064 41.6954 293.148 42.0632 292.665 42.4204ZM281.5 60.7868C281.736 62.7446 281.931 67.2734 281.934 70.8507L281.94 77.3556L297.939 77.3528C306.739 77.3514 318.447 77.144 323.959 76.8922L333.98 76.4337L333.979 66.8732V57.3135L307.526 57.2706L281.073 57.2277L281.5 60.7868ZM298.395 78.6327L270.898 78.7621L270.4 91.8472C270.125 99.0433 270.105 105.135 270.354 105.384C270.603 105.633 287.552 105.887 308.019 105.949L345.231 106.062V92.4491V78.836L341.539 78.6229C339.509 78.5061 335.158 78.4316 331.87 78.4569C328.582 78.4822 313.519 78.5617 298.395 78.6327ZM325.893 92.8268C326.178 93.2888 319.922 93.53 307.65 93.53C295.668 93.53 288.973 93.2782 288.973 92.8268C288.973 92.376 295.523 92.1235 307.215 92.1235C318.618 92.1235 325.621 92.3872 325.893 92.8268ZM257.324 199.894C257.323 250.659 257.119 296.634 256.871 302.061L256.419 311.928L271.616 328.432L286.812 344.936L286.838 400.315L286.863 455.695H291.549H296.235L295.944 305.027C295.751 204.926 295.89 154.301 296.357 154.183C297.049 154.009 297.777 260.705 298.013 396.799L298.115 455.695H307.324H316.535L316.291 305.262C316.157 222.523 316.284 154.591 316.575 154.301C316.865 154.011 317.271 153.943 317.478 154.149C317.684 154.356 317.877 222.288 317.906 305.11L317.959 455.695H326.977C335.71 455.695 336.011 455.645 336.501 454.113C336.78 453.243 336.88 385.442 336.724 303.445C336.536 204.335 336.677 154.36 337.144 154.36C337.933 154.36 337.873 145.181 338.272 327.882L338.551 455.694L347.869 455.694L357.186 455.695V281.645V107.595H307.257H257.327L257.324 199.894ZM317.805 134.669C317.805 140.998 317.539 144.866 317.102 144.866C316.665 144.866 316.399 140.998 316.399 134.669C316.399 128.34 316.665 124.472 317.102 124.472C317.539 124.472 317.805 128.34 317.805 134.669ZM338.199 135.021C338.199 141.116 337.931 144.866 337.496 144.866C337.061 144.866 336.793 141.116 336.793 135.021C336.793 128.926 337.061 125.175 337.496 125.175C337.931 125.175 338.199 128.926 338.199 135.021ZM297.508 127.109C297.992 130.773 297.323 144.866 296.665 144.866C296.286 144.866 296.005 140.679 296.005 135.021C296.005 129.606 296.286 125.175 296.629 125.175C296.971 125.175 297.367 126.046 297.508 127.109ZM277.268 135.103C277.727 144.165 277.547 145.979 276.266 145.187C275.448 144.682 275.393 126.8 276.208 126.296C276.535 126.094 277.013 130.057 277.268 135.103ZM277.941 165.787C278.694 191.858 277.033 328.425 275.963 328.398C275.576 328.389 275.288 327.201 275.323 325.758C275.388 323.024 276.372 157.395 276.336 155.239C276.324 154.562 276.604 154.008 276.957 154.008C277.311 154.008 277.753 159.309 277.941 165.787ZM197.553 163.802C197.553 164.354 168.406 193.473 156.062 205.253L152.194 208.944L196.589 208.727L240.984 208.509L235.97 202.918C219.459 184.509 199.143 163.15 198.145 163.15C197.819 163.15 197.553 163.443 197.553 163.802ZM379.377 184.95C379.221 188.238 378.89 191.445 378.644 192.076C378.295 192.973 378.708 193.284 380.525 193.494C381.807 193.642 399.548 193.643 419.95 193.497L457.046 193.23V185.92V178.609L418.354 178.791L379.662 178.973L379.377 184.95ZM359.296 325.421V455.695H415.906H472.517L472.692 356.012C472.929 222.17 472.882 205.058 472.266 199.718L471.739 195.147H415.517H359.296V325.421ZM152.36 268.361L151.996 326.103L157.721 326.549C160.87 326.795 166.168 326.997 169.496 326.999C172.823 327.001 177.491 327.207 179.868 327.455L184.191 327.907V391.801V455.695H189.865H195.54L195.315 399.434L195.091 343.172L217.858 320.375C232.061 306.154 240.988 297.719 241.592 297.95C242.407 298.263 242.559 291.375 242.559 254.329V210.338L197.642 210.478L152.724 210.618L152.36 268.361ZM456.095 216.772C455.851 218.803 455.648 223.865 455.645 228.023L455.639 235.583H447.552H439.465V224.331V213.08H448.001H456.538L456.095 216.772ZM424.539 224.156L424.345 235.231L416.434 235.293L408.522 235.356V224.217V213.08H416.627H424.733L424.539 224.156ZM393.596 224.156L393.403 235.231L385.492 235.361L377.58 235.491V224.285V213.08H385.685H393.79L393.596 224.156ZM440.956 224.376L440.764 233.473H447.459H454.155L454.369 224.27C454.487 219.208 454.533 215.016 454.47 214.952C454.407 214.889 451.384 214.937 447.752 215.059L441.149 215.279L440.956 224.376ZM409.929 224.38V233.473L416.434 233.472L422.939 233.471L423.182 224.154L423.425 214.838L416.677 215.062L409.929 215.286V224.38ZM378.987 224.38V233.473H385.667H392.348L392.349 224.156L392.351 214.838L385.669 215.062L378.987 215.286V224.38ZM220.506 233.592C220.259 235.961 220.056 240.7 220.056 244.125V250.351H213.727C209.977 250.351 207.398 250.065 207.398 249.648C207.398 249.238 209.728 248.945 212.984 248.945H218.569L218.785 240.153L219.001 231.361L212.789 231.362C208.132 231.364 206.651 231.144 206.87 230.485C207.073 229.876 209.287 229.556 214.06 229.445L220.956 229.285L220.506 233.592ZM182.609 229.776L187.707 230.019L187.701 236.493C187.698 240.054 187.496 244.628 187.252 246.659L186.808 250.351H180.226H173.643V239.802V229.254L175.576 229.394C176.641 229.471 179.805 229.643 182.609 229.776ZM175.752 240.154V248.945H180.633H185.515L185.732 240.445C185.851 235.769 185.817 231.814 185.656 231.654C185.495 231.494 183.201 231.364 180.557 231.364H175.752V240.154ZM16.8216 244.725V253.164H58.3124H99.8031V244.725V236.286H58.3124H16.8216V244.725ZM455.639 260.899V272.151H447.552H439.465V260.899V249.648H447.552H455.639V260.899ZM424.697 260.899V272.151H416.61H408.522V260.899V249.648H416.61H424.697V260.899ZM393.755 260.899V272.151H385.667H377.58V260.899V249.648H385.667H393.755V260.899ZM440.871 261.3V270.745H447.552H454.233L454.234 261.075L454.235 251.406L447.553 251.63L440.871 251.854V261.3ZM409.929 261.075V270.745H416.476H423.024L423.206 261.075L423.389 251.406H416.659H409.929V261.075ZM378.987 261.075V270.745H385.667H392.348V261.075V251.406H385.667H378.987V261.075ZM220.355 270.745C220.443 270.938 220.377 275.775 220.207 281.494L219.898 291.891L213.121 291.691L206.343 291.49V281.163V270.837L213.268 270.615C217.078 270.493 220.267 270.551 220.355 270.745ZM187.466 271.13C187.621 271.536 187.66 276.283 187.553 281.679L187.356 291.49H180.675H173.994L174.124 281.06L174.254 270.63L180.719 270.511C184.686 270.439 187.293 270.678 187.466 271.13ZM208.101 281.293V290.435H213.375H218.65V281.293V272.151H213.375H208.101V281.293ZM175.752 280.942V289.732H180.675H185.598V287.379C185.598 286.084 185.803 282.129 186.055 278.589L186.511 272.151H181.132H175.752V280.942ZM101.349 284.613C101.203 292.237 100.876 295.837 100.295 296.207C99.2679 296.859 93.0408 296.911 88.024 296.309L84.332 295.865V284.712V273.558L92.9466 273.557L101.561 273.556L101.349 284.613ZM65.1865 284.985L64.9931 296.413L60.7737 296.64C58.453 296.765 54.5761 296.661 52.1591 296.409L47.7639 295.949V284.753V273.558H56.5719H65.3799L65.1865 284.985ZM29.3216 284.985L29.1282 296.413L21.3926 296.468C17.1381 296.498 13.2612 296.385 12.778 296.217C12.1248 295.989 11.899 293.044 11.899 284.734V273.558H20.707H29.515L29.3216 284.985ZM85.7385 284.809V294.655H92.7708H99.8031V284.809V274.964H92.7708H85.7385V284.809ZM49.8736 284.809V294.655H56.9059H63.9382V284.809V274.964H56.9059H49.8736V284.809ZM14.0087 284.809V294.655H21.041H28.0734V284.809V274.964H21.041H14.0087V284.809ZM473.923 297.643V309.423L496.251 309.424C508.531 309.425 528.784 309.634 541.258 309.889L563.937 310.353V298.109V285.864H518.93H473.923V297.643ZM455.987 297.996L455.984 309.071L447.724 309.269L439.465 309.467V298.193V286.919L447.728 286.92L455.991 286.921L455.987 297.996ZM424.697 298.171V309.423H416.61H408.522V298.171V286.919H416.61H424.697V298.171ZM393.755 298.171V309.423H385.667H377.58V298.171V286.919H385.667H393.755V298.171ZM440.873 298.171L440.874 307.664L447.553 307.877L454.233 308.09V298.383L454.233 288.677H447.553H440.873L440.873 298.171ZM409.929 298.347V308.016H416.16H422.391L422.835 304.324C423.079 302.293 423.281 297.942 423.284 294.655L423.29 288.677H416.61H409.929V298.347ZM378.988 298.171L378.989 307.664L385.669 307.901L392.348 308.137V298.407V288.677H385.667H378.987L378.988 298.171ZM204.608 342.996C208.27 343.088 227.429 343.247 247.185 343.347L283.104 343.529L273.204 332.682C267.76 326.716 260.573 318.84 257.235 315.18C253.898 311.52 248.845 306.465 246.007 303.946L240.848 299.366L219.4 321.096L197.951 342.826L204.608 342.996ZM473.923 383.3V455.772L500.577 455.649L527.231 455.526L527.659 445.238C527.893 439.579 528.189 432.483 528.316 429.468C528.505 424.961 528.369 424.055 527.548 424.37C527 424.58 522.581 424.753 517.729 424.753H508.907L509.171 439.632C509.376 451.098 509.235 454.579 508.557 454.81C507.871 455.043 507.678 451.553 507.678 438.876V422.643H518.946H530.212L529.735 439.169L529.256 455.695H546.597H563.937V383.619V311.544L524.028 311.356C502.079 311.253 481.826 311.092 479.022 310.999L473.923 310.829V383.3ZM101.444 316.219C101.508 316.282 101.468 321.583 101.352 327.998L101.144 339.662H96.0007C93.1716 339.662 89.389 339.46 87.595 339.214L84.332 338.767V327.435V316.103H92.8292C97.5029 316.103 101.38 316.155 101.444 316.219ZM57.0993 316.302L65.3792 316.5L65.1865 327.905L64.9931 339.31L61.4769 339.541C59.543 339.669 55.6661 339.563 52.8623 339.306L47.7639 338.838V327.688C47.7639 321.555 48.0009 316.44 48.2913 316.321C48.5817 316.201 52.5452 316.193 57.0993 316.302ZM21.2344 316.302L29.5143 316.5L29.3216 327.905L29.1282 339.31L24.9088 339.537C22.5881 339.662 18.7112 339.558 16.2942 339.306L11.899 338.847V327.692C11.899 321.558 12.136 316.44 12.4264 316.321C12.7169 316.201 16.6803 316.193 21.2344 316.302ZM85.7385 327.707V337.552H92.7708H99.8031V327.707V317.861H92.7708H85.7385V327.707ZM49.8736 327.707V337.552H56.9059H63.9382V327.707V317.861H56.9059H49.8736V327.707ZM14.0087 327.707V337.552H21.041H28.0734V327.707V317.861H21.041H14.0087V327.707ZM456.184 335.97L455.991 347.046L447.728 347.244L439.465 347.441V336.168V324.894H447.921H456.378L456.184 335.97ZM424.539 335.97L424.345 347.046L416.434 347.245L408.522 347.444V336.169V324.894H416.627H424.733L424.539 335.97ZM393.755 336.145V347.397H385.667H377.58V336.145V324.894H385.667H393.755V336.145ZM440.871 335.93V345.287L442.805 345.292C443.868 345.295 446.858 345.498 449.448 345.742L454.156 346.187L454.37 336.322L454.584 326.457L447.728 326.514L440.871 326.571V335.93ZM409.929 335.866V345.08L416.011 345.548C419.356 345.804 422.165 345.93 422.252 345.827C422.338 345.723 422.63 341.339 422.9 336.085L423.392 326.531L416.66 326.591L409.93 326.652L409.929 335.866ZM378.987 335.873V345.094L384.971 345.579C388.262 345.846 391.269 345.872 391.652 345.635C392.054 345.386 392.348 341.292 392.348 335.928V326.652H385.667H378.987V335.873ZM547.298 328.41C547.36 328.603 547.313 335.169 547.194 343.002L546.977 357.242H537.51H528.043L528.234 342.65L528.424 328.058H537.805C542.965 328.058 547.237 328.216 547.298 328.41ZM510.491 342.51V357.242H500.998H491.504V343.178C491.504 335.442 491.424 328.876 491.328 328.586C491.232 328.295 495.503 327.995 500.822 327.918L510.491 327.778V342.51ZM120.197 342.474V356.539H151.491H182.785V342.865V329.19L179.444 328.927C177.607 328.782 163.524 328.606 148.15 328.536L120.197 328.41V342.474ZM493.455 339.837L493.791 350.21L496.691 350.215C498.286 350.218 501.728 350.422 504.338 350.669L509.085 351.117V340.489V329.863L501.173 329.664C496.822 329.554 493.23 329.465 493.191 329.465C493.152 329.465 493.271 334.133 493.455 339.837ZM529.883 331.75C529.948 332.814 530.041 337.561 530.091 342.299L530.182 350.913L537.742 350.912L545.301 350.911V340.363V329.816H537.533L529.765 329.816L529.883 331.75ZM197.088 371.114C197.343 385.657 197.553 410.662 197.553 426.679V455.801L222.595 455.616L247.638 455.431L247.123 433.45L246.607 411.467L256.6 411.254C262.095 411.136 266.722 411.172 266.882 411.333C267.042 411.494 267.173 421.541 267.173 433.661V455.695L273.677 455.687C277.255 455.683 281.369 455.483 282.82 455.244L285.457 454.808L285.453 407.959C285.452 382.192 285.246 357.565 284.996 353.233L284.542 345.356L281.308 345.086C279.528 344.939 259.746 344.785 237.348 344.744L196.623 344.671L197.088 371.114ZM530.009 354.078C530.344 355.825 530.394 355.836 538 355.836H545.653V354.078V352.32H537.663H529.673L530.009 354.078ZM493.161 354.077L493.262 355.835H501.173L509.085 355.836V354.078V352.32H501.072H493.059L493.161 354.077ZM569.706 356.939L566.047 357.424L566.049 374.738L566.053 392.052L604.551 392.273L643.051 392.493L642.851 383.483L642.652 374.472L648.791 369.197C655.279 363.624 660.983 358.017 660.983 357.213C660.983 356.575 574.408 356.314 569.706 356.939ZM120.197 407.348V456.398H149.293C165.296 456.398 179.334 456.209 180.489 455.978L182.588 455.559L182.731 407.462C182.811 381.008 182.727 359.124 182.546 358.831C182.364 358.537 168.261 358.297 151.207 358.297H120.197V407.348ZM101.268 359.643C101.429 359.803 101.466 364.866 101.351 370.895L101.141 381.856H92.7363H84.332V370.604V359.352H92.6534C97.2307 359.352 101.107 359.483 101.268 359.643ZM65.3447 370.604V381.856H56.5543H47.7639V370.604V359.352H56.5543H65.3447V370.604ZM29.4798 370.604V381.856H20.6648H11.8491L11.9349 370.604L12.0206 359.352H20.7505H29.4798V370.604ZM85.7385 370.78V380.449H92.7708H99.8031L99.8024 370.78L99.8017 361.11H92.7694H85.7378L85.7385 370.78ZM49.8736 370.738V380.449H56.9059H63.9382L63.9354 370.78L63.9333 361.11L56.9031 361.069L49.8736 361.026V370.738ZM14.0087 370.738V380.449H21.041H28.0734L28.0705 370.78L28.0684 361.11L21.0382 361.069L14.0087 361.026V370.738ZM416.785 362.014L423.994 362.214V373.441V384.668L421.005 384.664C419.361 384.661 415.88 384.457 413.269 384.21L408.522 383.762V373.005C408.522 367.088 408.759 362.15 409.05 362.031C409.34 361.911 412.821 361.903 416.785 362.014ZM393.755 373.241L393.755 384.668L391.469 384.664C390.212 384.662 386.565 384.456 383.364 384.207L377.546 383.754L377.738 372.938L377.932 362.121L385.844 361.967L393.755 361.813V373.241ZM455.574 373.447L455.712 384.729L447.764 384.514L439.816 384.298V373.232V362.166H447.626L455.437 362.165L455.574 373.447ZM441.574 368.742C441.574 371.587 441.371 375.859 441.123 378.236L440.671 382.559H447.452H454.233L454.229 379.922C454.227 378.472 454.021 374.199 453.771 370.428L453.317 363.572H447.446H441.574V368.742ZM409.929 373.065V382.559H416.258H422.587V373.065V363.572H416.258H409.929V373.065ZM378.987 373.065V382.559H385.667H392.348V373.065V363.572H385.667H378.987V373.065ZM266.469 375.175V384.668H257.931H249.391L249.844 380.346C250.092 377.969 250.295 373.697 250.295 370.852V365.681H258.382H266.469V375.175ZM231.308 375.526V384.668H223.221H215.133V375.526V366.384H223.221H231.308V375.526ZM251.701 374.823V382.559H258.382H265.063V374.823V367.088H258.382H251.701V374.823ZM216.663 375.531L216.434 382.559H223.168H229.901V375.526V368.494L223.396 368.499L216.891 368.504L216.663 375.531ZM169.397 369.775C170.242 370.057 170.438 392.161 169.599 392.592C169.309 392.74 166.453 392.725 163.253 392.558L157.434 392.254L157.627 380.901L157.82 369.549L163.244 369.541C166.227 369.536 168.996 369.641 169.397 369.775ZM143.859 370.269C144.016 370.679 144.058 375.906 143.95 381.885L143.755 392.756L138.326 392.961C131.703 393.211 132.021 393.908 132.302 379.746L132.503 369.549L138.039 369.536C141.298 369.529 143.69 369.83 143.859 370.269ZM159.031 380.915L159.226 390.522L163.973 390.818L168.72 391.114V381.211V371.307H163.778H158.835L159.031 380.915ZM133.81 373.944C134.05 375.395 134.25 379.993 134.254 384.162L134.262 391.743L137.953 391.546C142.527 391.302 142.538 391.275 142.63 379.922L142.7 371.307H138.037H133.374L133.81 373.944ZM547.499 381.152C547.263 383.666 547.067 390.075 547.064 395.393L547.059 405.062H537.566H528.072V390.796V376.531L538 376.556L547.928 376.581L547.499 381.152ZM510.722 376.697C510.789 376.761 510.751 383.178 510.639 390.957L510.434 405.102L500.794 404.906L491.152 404.711L490.962 390.605L490.773 376.499L500.687 376.541C506.14 376.563 510.655 376.633 510.722 376.697ZM529.479 388.185V398.03H537.566H545.653V388.185V378.339H537.566H529.479V388.185ZM492.772 388.183L492.984 398.03H501.035H509.085V388.185V378.339L500.822 378.338L492.559 378.337L492.772 388.183ZM718.003 387.069C718.164 387.229 718.2 391.659 718.083 396.914L717.869 406.469H709.174C704.392 406.469 699.979 406.661 699.367 406.896C698.384 407.272 698.254 406.128 698.254 397.05V386.778H707.982C713.333 386.778 717.842 386.909 718.003 387.069ZM681.127 391.081C680.878 393.469 680.674 397.908 680.674 400.946V406.469H670.757H660.84L661.213 396.799L661.586 387.13L671.584 386.934L681.582 386.738L681.127 391.081ZM700.107 394.162C699.866 397.256 699.667 400.975 699.665 402.425L699.661 405.062H708.1H716.539L716.535 396.799L716.532 388.536H708.539H700.546L700.107 394.162ZM663.096 396.799L663.093 405.062H671.18H679.267V398.821C679.267 395.389 679.449 391.67 679.672 390.558L680.076 388.536H671.587H663.099L663.096 396.799ZM566.343 393.983C566.211 394.115 566.012 407.974 565.9 424.783L565.695 455.343L604.113 455.428L642.532 455.514L643.053 425.334C643.339 408.735 643.392 394.972 643.171 394.751C642.12 393.7 567.373 392.953 566.343 393.983ZM529.479 401.194V402.953H537.566C545.108 402.953 545.653 402.86 545.653 401.585C545.653 400.102 544.101 399.827 534.225 399.563C529.597 399.44 529.479 399.48 529.479 401.194ZM492.91 401.194V402.953H500.998H509.085V401.194V399.436H500.998H492.91V401.194ZM454.115 407.164C453.873 407.885 385.657 408.704 381.272 408.038C380.015 407.847 378.987 407.416 378.987 407.08C378.987 406.742 395.797 406.469 416.668 406.469C441.199 406.469 454.268 406.711 454.115 407.164ZM169.968 420.674L169.775 432.067L163.531 432.349C158.811 432.561 157.141 432.398 156.686 431.68C156.354 431.158 156.079 425.905 156.072 420.006L156.062 409.282H163.112H170.162L169.968 420.674ZM144.446 409.964C144.696 410.37 144.676 415.603 144.402 421.595L143.904 432.488H137.807H131.708L131.949 421.061L132.19 409.633L138.091 409.431C141.66 409.308 144.171 409.519 144.446 409.964ZM626.099 412.211C626.3 413.501 626.663 418.95 626.907 424.322C627.26 432.083 627.158 434.21 626.411 434.683C625.893 435.012 622.068 435.284 617.91 435.291L610.35 435.301V422.995V410.688H616.973C620.616 410.688 624.078 410.503 624.666 410.277C625.456 409.974 625.831 410.479 626.099 412.211ZM590.5 410.517L597.725 410.737L597.532 422.843L597.341 434.95L589.413 435.149L581.485 435.348L581.677 422.9C581.795 415.265 582.142 410.422 582.573 410.374C582.959 410.332 586.527 410.396 590.5 410.517ZM157.578 420.488C157.726 425.879 157.999 430.396 158.185 430.526C158.371 430.656 160.818 430.651 163.622 430.514L168.72 430.263L168.714 424.168C168.711 420.815 168.508 416.411 168.264 414.38L167.821 410.688H162.565H157.309L157.578 420.488ZM133.558 420.977V431.266L136.195 430.83C137.646 430.59 139.702 430.391 140.766 430.386L142.7 430.379V420.533V410.688H138.129H133.558V420.977ZM611.757 423.097V434.098L616.504 433.65C619.115 433.403 622.121 433.199 623.184 433.197L625.118 433.192L625.112 426.335C625.109 422.564 624.907 417.817 624.663 415.787L624.219 412.095H617.988H611.757V423.097ZM583.486 423.021L583.697 433.948L589.815 433.746L595.934 433.543L596.128 422.819L596.322 412.095L589.799 412.094L583.276 412.092L583.486 423.021ZM230.849 418.512C231.102 422.063 231.308 426.71 231.308 428.837V432.706L222.409 432.254C217.515 432.007 213.417 431.71 213.304 431.597C213.19 431.483 213.045 427.127 212.981 421.918L212.866 412.446L221.628 412.25L230.391 412.054L230.849 418.512ZM248.6 418.775C248.655 421.87 248.743 431.363 248.795 439.872L248.889 455.343L257.381 455.433L265.872 455.522L265.672 434.239L265.471 412.957L256.986 413.053L248.5 413.149L248.6 418.775ZM214.432 422.116L214.43 430.379H221.814H229.198V422.061V413.742L221.815 413.798L214.433 413.853L214.432 422.116ZM454.233 423.967C454.233 424.798 405.406 425.763 391.645 425.204C385.65 424.961 380.349 424.76 379.866 424.757C379.382 424.755 378.987 424.436 378.987 424.05C378.987 423.59 391.996 423.346 416.61 423.346C437.915 423.346 454.233 423.616 454.233 423.967ZM679.267 440.115V455.477L688.831 455.936C694.091 456.188 698.68 456.218 699.028 456.003C699.376 455.788 699.661 448.669 699.661 440.182V424.753H689.464H679.267V440.115Z" fill="#3377F4" fill-opacity="0.4"/>
<path fill-rule="evenodd" clip-rule="evenodd" d="M307.96 20.0421V40.0843H316.399H324.838V44.5568C324.838 47.0174 325.036 50.4767 325.278 52.2446L325.719 55.4584L330.44 55.0631L335.163 54.6672L335.626 61.1968C335.881 64.7882 336.089 69.7347 336.089 72.1897V76.6524H340.971C343.656 76.6524 346.054 76.9794 346.301 77.3788C346.548 77.7783 346.713 84.2241 346.668 91.7023L346.586 105.299L348.81 105.744C350.032 105.988 352.684 106.188 354.701 106.188H358.369L358.831 121.484C359.085 129.896 359.293 149.314 359.295 164.635L359.296 192.49L362.988 192.933C365.018 193.177 368.935 193.38 371.691 193.383L376.701 193.389L377.141 191.191C377.383 189.983 377.58 186.343 377.58 183.104V177.215L395.337 177.151C405.103 177.117 416.1 176.952 419.774 176.786C423.449 176.62 433.812 176.684 442.805 176.929L459.155 177.372V185.446V193.521L465.69 193.03C471.436 192.599 472.347 192.689 473.249 193.777C474.124 194.831 474.275 201.52 474.275 239.208C474.275 263.516 474.275 283.458 474.275 283.527C474.275 283.595 494.844 283.832 519.985 284.054L565.695 284.458L565.893 319.582C566.001 338.901 566.181 354.799 566.293 354.91C566.405 355.022 588.254 355.126 614.846 355.143L663.196 355.171L665.43 353.304C666.659 352.276 673.016 346.235 679.558 339.88L691.452 328.323L697.494 334.52C710.539 347.902 720.159 358.632 719.937 359.552C719.726 360.42 715.847 356.465 697.363 336.532L692.179 330.941L686.25 335.897C682.99 338.623 675.295 346.034 669.15 352.365C663.006 358.697 656.918 364.72 655.622 365.75C654.325 366.781 651.359 369.388 649.03 371.545L644.795 375.465L644.551 415.58L644.306 455.695H661.084H677.861V439.071V422.447L681.553 422.891C683.584 423.135 688.804 423.337 693.156 423.34L701.067 423.346L701.067 439.696L701.065 456.047L710.56 455.817C718.693 455.619 720.055 455.739 720.055 456.656C720.055 458.144 712 458.263 651.841 457.66C624.573 457.386 467.612 457.239 303.037 457.332C138.463 457.426 2.94189 457.376 1.87793 457.222C0.813904 457.068 -0.0559692 456.503 -0.0559692 455.967C-0.0559692 455.158 3.35822 454.992 19.9159 454.992H39.8876L40.1366 434.422C40.375 414.66 40.4481 413.724 41.9974 410.574C43.7962 406.918 54.0972 396.623 55.9573 396.623C58.0634 396.623 68.1035 403.017 70.6267 405.965C71.979 407.545 73.3995 409.967 73.7821 411.346C74.6857 414.596 74.7223 454.289 73.8222 454.289C73.4241 454.289 73.0711 445.886 72.9431 433.367L72.7286 412.446L70.8644 409.275C69.0043 406.111 65.8848 403.526 59.5177 399.872L56.152 397.941L52.7195 400.815C47.946 404.812 44.9777 408.339 43.4158 411.871C42.2498 414.505 42.0283 417.384 41.6486 434.841L41.2147 454.8L79.7413 455.423C105.354 455.838 118.351 455.811 118.515 455.343C118.651 454.957 118.689 409.749 118.601 354.881L118.439 255.121L65.6591 255.233C9.49396 255.352 -0.0559692 255.075 -0.0559692 253.322C-0.0559692 252.442 1.10645 252.328 7.25555 252.601L14.5664 252.927L14.9833 250.408C15.2119 249.023 15.4032 244.996 15.4074 241.459L15.4152 235.03L27.1943 234.51C33.6725 234.224 53.0114 234.146 70.1682 234.336L101.364 234.683L101.252 243.923L101.141 253.164H110.669H120.197V290.169V327.174L135.141 326.849L150.084 326.524L150.32 267.165L150.555 207.805L157.543 201.476C161.387 197.995 172.147 187.474 181.455 178.097C196.462 162.977 198.519 161.145 199.623 161.922C201.173 163.013 214.799 177.312 229.288 193.053C235.333 199.62 241.266 205.865 242.474 206.932L244.669 208.871L244.682 254.752L244.694 300.632L249.849 305.331L255.004 310.03L255.474 297.947C255.733 291.302 255.929 245.7 255.912 196.61C255.892 143.384 256.139 107.095 256.524 106.711C256.878 106.356 259.708 105.892 262.813 105.679L268.457 105.292L268.542 93.6095C268.589 87.184 268.815 80.7403 269.045 79.2895L269.462 76.6524H274.647H279.831V66.1545V55.6567L283.557 55.1911C285.606 54.9352 287.9 54.8332 288.656 54.9647C289.926 55.1862 290.054 54.6602 290.379 47.8198L290.731 40.4359L298.642 40.2369L306.554 40.0379V20.0189C306.554 7.14203 306.805 0 307.257 0C307.709 0 307.96 7.14977 307.96 20.0421ZM292.665 42.4204C292.077 42.8543 291.786 45.1244 291.786 49.2699V55.4703L299.873 55.6883C304.321 55.8086 311.631 55.8079 316.118 55.6876C324.12 55.4724 324.268 55.4387 323.864 53.9295C323.637 53.0828 323.243 49.9253 322.987 46.912L322.521 41.4338L308.033 41.6026C300.064 41.6954 293.148 42.0632 292.665 42.4204ZM281.5 60.7868C281.736 62.7446 281.931 67.2734 281.934 70.8507L281.94 77.3556L297.939 77.3528C306.739 77.3514 318.447 77.144 323.959 76.8922L333.98 76.4337L333.979 66.8732V57.3135L307.526 57.2706L281.073 57.2277L281.5 60.7868ZM298.395 78.6327L270.898 78.7621L270.4 91.8472C270.125 99.0433 270.105 105.135 270.354 105.384C270.603 105.633 287.552 105.887 308.019 105.949L345.231 106.062V92.4491V78.836L341.539 78.6229C339.509 78.5061 335.158 78.4316 331.87 78.4569C328.582 78.4822 313.519 78.5617 298.395 78.6327ZM325.893 92.8268C326.178 93.2888 319.922 93.53 307.65 93.53C295.668 93.53 288.973 93.2782 288.973 92.8268C288.973 92.376 295.523 92.1235 307.215 92.1235C318.618 92.1235 325.621 92.3872 325.893 92.8268ZM257.324 199.894C257.323 250.659 257.119 296.634 256.871 302.061L256.419 311.928L271.616 328.432L286.812 344.936L286.838 400.315L286.863 455.695H291.549H296.235L295.944 305.027C295.751 204.926 295.89 154.301 296.357 154.183C297.049 154.009 297.777 260.705 298.013 396.799L298.115 455.695H307.324H316.535L316.291 305.262C316.157 222.523 316.284 154.591 316.575 154.301C316.865 154.011 317.271 153.943 317.478 154.149C317.684 154.356 317.877 222.288 317.906 305.11L317.959 455.695H326.977C335.71 455.695 336.011 455.645 336.501 454.113C336.78 453.243 336.88 385.442 336.724 303.445C336.536 204.335 336.677 154.36 337.144 154.36C337.933 154.36 337.873 145.181 338.272 327.882L338.551 455.694L347.869 455.694L357.186 455.695V281.645V107.595H307.257H257.327L257.324 199.894ZM317.805 134.669C317.805 140.998 317.539 144.866 317.102 144.866C316.665 144.866 316.399 140.998 316.399 134.669C316.399 128.34 316.665 124.472 317.102 124.472C317.539 124.472 317.805 128.34 317.805 134.669ZM338.199 135.021C338.199 141.116 337.931 144.866 337.496 144.866C337.061 144.866 336.793 141.116 336.793 135.021C336.793 128.926 337.061 125.175 337.496 125.175C337.931 125.175 338.199 128.926 338.199 135.021ZM297.508 127.109C297.992 130.773 297.323 144.866 296.665 144.866C296.286 144.866 296.005 140.679 296.005 135.021C296.005 129.606 296.286 125.175 296.629 125.175C296.971 125.175 297.367 126.046 297.508 127.109ZM277.268 135.103C277.727 144.165 277.547 145.979 276.266 145.187C275.448 144.682 275.393 126.8 276.208 126.296C276.535 126.094 277.013 130.057 277.268 135.103ZM277.941 165.787C278.694 191.858 277.033 328.425 275.963 328.398C275.576 328.389 275.288 327.201 275.323 325.758C275.388 323.024 276.372 157.395 276.336 155.239C276.324 154.562 276.604 154.008 276.957 154.008C277.311 154.008 277.753 159.309 277.941 165.787ZM197.553 163.802C197.553 164.354 168.406 193.473 156.062 205.253L152.194 208.944L196.589 208.727L240.984 208.509L235.97 202.918C219.459 184.509 199.143 163.15 198.145 163.15C197.819 163.15 197.553 163.443 197.553 163.802ZM379.377 184.95C379.221 188.238 378.89 191.445 378.644 192.076C378.295 192.973 378.708 193.284 380.525 193.494C381.807 193.642 399.548 193.643 419.95 193.497L457.046 193.23V185.92V178.609L418.354 178.791L379.662 178.973L379.377 184.95ZM359.296 325.421V455.695H415.906H472.517L472.692 356.012C472.929 222.17 472.882 205.058 472.266 199.718L471.739 195.147H415.517H359.296V325.421ZM152.36 268.361L151.996 326.103L157.721 326.549C160.87 326.795 166.168 326.997 169.496 326.999C172.823 327.001 177.491 327.207 179.868 327.455L184.191 327.907V391.801V455.695H189.865H195.54L195.315 399.434L195.091 343.172L217.858 320.375C232.061 306.154 240.988 297.719 241.592 297.95C242.407 298.263 242.559 291.375 242.559 254.329V210.338L197.642 210.478L152.724 210.618L152.36 268.361ZM456.095 216.772C455.851 218.803 455.648 223.865 455.645 228.023L455.639 235.583H447.552H439.465V224.331V213.08H448.001H456.538L456.095 216.772ZM424.539 224.156L424.345 235.231L416.434 235.293L408.522 235.356V224.217V213.08H416.627H424.733L424.539 224.156ZM393.596 224.156L393.403 235.231L385.492 235.361L377.58 235.491V224.285V213.08H385.685H393.79L393.596 224.156ZM440.956 224.376L440.764 233.473H447.459H454.155L454.369 224.27C454.487 219.208 454.533 215.016 454.47 214.952C454.407 214.889 451.384 214.937 447.752 215.059L441.149 215.279L440.956 224.376ZM409.929 224.38V233.473L416.434 233.472L422.939 233.471L423.182 224.154L423.425 214.838L416.677 215.062L409.929 215.286V224.38ZM378.987 224.38V233.473H385.667H392.348L392.349 224.156L392.351 214.838L385.669 215.062L378.987 215.286V224.38ZM220.506 233.592C220.259 235.961 220.056 240.7 220.056 244.125V250.351H213.727C209.977 250.351 207.398 250.065 207.398 249.648C207.398 249.238 209.728 248.945 212.984 248.945H218.569L218.785 240.153L219.001 231.361L212.789 231.362C208.132 231.364 206.651 231.144 206.87 230.485C207.073 229.876 209.287 229.556 214.06 229.445L220.956 229.285L220.506 233.592ZM182.609 229.776L187.707 230.019L187.701 236.493C187.698 240.054 187.496 244.628 187.252 246.659L186.808 250.351H180.226H173.643V239.802V229.254L175.576 229.394C176.641 229.471 179.805 229.643 182.609 229.776ZM175.752 240.154V248.945H180.633H185.515L185.732 240.445C185.851 235.769 185.817 231.814 185.656 231.654C185.495 231.494 183.201 231.364 180.557 231.364H175.752V240.154ZM16.8216 244.725V253.164H58.3124H99.8031V244.725V236.286H58.3124H16.8216V244.725ZM455.639 260.899V272.151H447.552H439.465V260.899V249.648H447.552H455.639V260.899ZM424.697 260.899V272.151H416.61H408.522V260.899V249.648H416.61H424.697V260.899ZM393.755 260.899V272.151H385.667H377.58V260.899V249.648H385.667H393.755V260.899ZM440.871 261.3V270.745H447.552H454.233L454.234 261.075L454.235 251.406L447.553 251.63L440.871 251.854V261.3ZM409.929 261.075V270.745H416.476H423.024L423.206 261.075L423.389 251.406H416.659H409.929V261.075ZM378.987 261.075V270.745H385.667H392.348V261.075V251.406H385.667H378.987V261.075ZM220.355 270.745C220.443 270.938 220.377 275.775 220.207 281.494L219.898 291.891L213.121 291.691L206.343 291.49V281.163V270.837L213.268 270.615C217.078 270.493 220.267 270.551 220.355 270.745ZM187.466 271.13C187.621 271.536 187.66 276.283 187.553 281.679L187.356 291.49H180.675H173.994L174.124 281.06L174.254 270.63L180.719 270.511C184.686 270.439 187.293 270.678 187.466 271.13ZM208.101 281.293V290.435H213.375H218.65V281.293V272.151H213.375H208.101V281.293ZM175.752 280.942V289.732H180.675H185.598V287.379C185.598 286.084 185.803 282.129 186.055 278.589L186.511 272.151H181.132H175.752V280.942ZM101.349 284.613C101.203 292.237 100.876 295.837 100.295 296.207C99.2679 296.859 93.0408 296.911 88.024 296.309L84.332 295.865V284.712V273.558L92.9466 273.557L101.561 273.556L101.349 284.613ZM65.1865 284.985L64.9931 296.413L60.7737 296.64C58.453 296.765 54.5761 296.661 52.1591 296.409L47.7639 295.949V284.753V273.558H56.5719H65.3799L65.1865 284.985ZM29.3216 284.985L29.1282 296.413L21.3926 296.468C17.1381 296.498 13.2612 296.385 12.778 296.217C12.1248 295.989 11.899 293.044 11.899 284.734V273.558H20.707H29.515L29.3216 284.985ZM85.7385 284.809V294.655H92.7708H99.8031V284.809V274.964H92.7708H85.7385V284.809ZM49.8736 284.809V294.655H56.9059H63.9382V284.809V274.964H56.9059H49.8736V284.809ZM14.0087 284.809V294.655H21.041H28.0734V284.809V274.964H21.041H14.0087V284.809ZM473.923 297.643V309.423L496.251 309.424C508.531 309.425 528.784 309.634 541.258 309.889L563.937 310.353V298.109V285.864H518.93H473.923V297.643ZM455.987 297.996L455.984 309.071L447.724 309.269L439.465 309.467V298.193V286.919L447.728 286.92L455.991 286.921L455.987 297.996ZM424.697 298.171V309.423H416.61H408.522V298.171V286.919H416.61H424.697V298.171ZM393.755 298.171V309.423H385.667H377.58V298.171V286.919H385.667H393.755V298.171ZM440.873 298.171L440.874 307.664L447.553 307.877L454.233 308.09V298.383L454.233 288.677H447.553H440.873L440.873 298.171ZM409.929 298.347V308.016H416.16H422.391L422.835 304.324C423.079 302.293 423.281 297.942 423.284 294.655L423.29 288.677H416.61H409.929V298.347ZM378.988 298.171L378.989 307.664L385.669 307.901L392.348 308.137V298.407V288.677H385.667H378.987L378.988 298.171ZM204.608 342.996C208.27 343.088 227.429 343.247 247.185 343.347L283.104 343.529L273.204 332.682C267.76 326.716 260.573 318.84 257.235 315.18C253.898 311.52 248.845 306.465 246.007 303.946L240.848 299.366L219.4 321.096L197.951 342.826L204.608 342.996ZM473.923 383.3V455.772L500.577 455.649L527.231 455.526L527.659 445.238C527.893 439.579 528.189 432.483 528.316 429.468C528.505 424.961 528.369 424.055 527.548 424.37C527 424.58 522.581 424.753 517.729 424.753H508.907L509.171 439.632C509.376 451.098 509.235 454.579 508.557 454.81C507.871 455.043 507.678 451.553 507.678 438.876V422.643H518.946H530.212L529.735 439.169L529.256 455.695H546.597H563.937V383.619V311.544L524.028 311.356C502.079 311.253 481.826 311.092 479.022 310.999L473.923 310.829V383.3ZM101.444 316.219C101.508 316.282 101.468 321.583 101.352 327.998L101.144 339.662H96.0007C93.1716 339.662 89.389 339.46 87.595 339.214L84.332 338.767V327.435V316.103H92.8292C97.5029 316.103 101.38 316.155 101.444 316.219ZM57.0993 316.302L65.3792 316.5L65.1865 327.905L64.9931 339.31L61.4769 339.541C59.543 339.669 55.6661 339.563 52.8623 339.306L47.7639 338.838V327.688C47.7639 321.555 48.0009 316.44 48.2913 316.321C48.5817 316.201 52.5452 316.193 57.0993 316.302ZM21.2344 316.302L29.5143 316.5L29.3216 327.905L29.1282 339.31L24.9088 339.537C22.5881 339.662 18.7112 339.558 16.2942 339.306L11.899 338.847V327.692C11.899 321.558 12.136 316.44 12.4264 316.321C12.7169 316.201 16.6803 316.193 21.2344 316.302ZM85.7385 327.707V337.552H92.7708H99.8031V327.707V317.861H92.7708H85.7385V327.707ZM49.8736 327.707V337.552H56.9059H63.9382V327.707V317.861H56.9059H49.8736V327.707ZM14.0087 327.707V337.552H21.041H28.0734V327.707V317.861H21.041H14.0087V327.707ZM456.184 335.97L455.991 347.046L447.728 347.244L439.465 347.441V336.168V324.894H447.921H456.378L456.184 335.97ZM424.539 335.97L424.345 347.046L416.434 347.245L408.522 347.444V336.169V324.894H416.627H424.733L424.539 335.97ZM393.755 336.145V347.397H385.667H377.58V336.145V324.894H385.667H393.755V336.145ZM440.871 335.93V345.287L442.805 345.292C443.868 345.295 446.858 345.498 449.448 345.742L454.156 346.187L454.37 336.322L454.584 326.457L447.728 326.514L440.871 326.571V335.93ZM409.929 335.866V345.08L416.011 345.548C419.356 345.804 422.165 345.93 422.252 345.827C422.338 345.723 422.63 341.339 422.9 336.085L423.392 326.531L416.66 326.591L409.93 326.652L409.929 335.866ZM378.987 335.873V345.094L384.971 345.579C388.262 345.846 391.269 345.872 391.652 345.635C392.054 345.386 392.348 341.292 392.348 335.928V326.652H385.667H378.987V335.873ZM547.298 328.41C547.36 328.603 547.313 335.169 547.194 343.002L546.977 357.242H537.51H528.043L528.234 342.65L528.424 328.058H537.805C542.965 328.058 547.237 328.216 547.298 328.41ZM510.491 342.51V357.242H500.998H491.504V343.178C491.504 335.442 491.424 328.876 491.328 328.586C491.232 328.295 495.503 327.995 500.822 327.918L510.491 327.778V342.51ZM120.197 342.474V356.539H151.491H182.785V342.865V329.19L179.444 328.927C177.607 328.782 163.524 328.606 148.15 328.536L120.197 328.41V342.474ZM493.455 339.837L493.791 350.21L496.691 350.215C498.286 350.218 501.728 350.422 504.338 350.669L509.085 351.117V340.489V329.863L501.173 329.664C496.822 329.554 493.23 329.465 493.191 329.465C493.152 329.465 493.271 334.133 493.455 339.837ZM529.883 331.75C529.948 332.814 530.041 337.561 530.091 342.299L530.182 350.913L537.742 350.912L545.301 350.911V340.363V329.816H537.533L529.765 329.816L529.883 331.75ZM197.088 371.114C197.343 385.657 197.553 410.662 197.553 426.679V455.801L222.595 455.616L247.638 455.431L247.123 433.45L246.607 411.467L256.6 411.254C262.095 411.136 266.722 411.172 266.882 411.333C267.042 411.494 267.173 421.541 267.173 433.661V455.695L273.677 455.687C277.255 455.683 281.369 455.483 282.82 455.244L285.457 454.808L285.453 407.959C285.452 382.192 285.246 357.565 284.996 353.233L284.542 345.356L281.308 345.086C279.528 344.939 259.746 344.785 237.348 344.744L196.623 344.671L197.088 371.114ZM530.009 354.078C530.344 355.825 530.394 355.836 538 355.836H545.653V354.078V352.32H537.663H529.673L530.009 354.078ZM493.161 354.077L493.262 355.835H501.173L509.085 355.836V354.078V352.32H501.072H493.059L493.161 354.077ZM569.706 356.939L566.047 357.424L566.049 374.738L566.053 392.052L604.551 392.273L643.051 392.493L642.851 383.483L642.652 374.472L648.791 369.197C655.279 363.624 660.983 358.017 660.983 357.213C660.983 356.575 574.408 356.314 569.706 356.939ZM120.197 407.348V456.398H149.293C165.296 456.398 179.334 456.209 180.489 455.978L182.588 455.559L182.731 407.462C182.811 381.008 182.727 359.124 182.546 358.831C182.364 358.537 168.261 358.297 151.207 358.297H120.197V407.348ZM101.268 359.643C101.429 359.803 101.466 364.866 101.351 370.895L101.141 381.856H92.7363H84.332V370.604V359.352H92.6534C97.2307 359.352 101.107 359.483 101.268 359.643ZM65.3447 370.604V381.856H56.5543H47.7639V370.604V359.352H56.5543H65.3447V370.604ZM29.4798 370.604V381.856H20.6648H11.8491L11.9349 370.604L12.0206 359.352H20.7505H29.4798V370.604ZM85.7385 370.78V380.449H92.7708H99.8031L99.8024 370.78L99.8017 361.11H92.7694H85.7378L85.7385 370.78ZM49.8736 370.738V380.449H56.9059H63.9382L63.9354 370.78L63.9333 361.11L56.9031 361.069L49.8736 361.026V370.738ZM14.0087 370.738V380.449H21.041H28.0734L28.0705 370.78L28.0684 361.11L21.0382 361.069L14.0087 361.026V370.738ZM416.785 362.014L423.994 362.214V373.441V384.668L421.005 384.664C419.361 384.661 415.88 384.457 413.269 384.21L408.522 383.762V373.005C408.522 367.088 408.759 362.15 409.05 362.031C409.34 361.911 412.821 361.903 416.785 362.014ZM393.755 373.241L393.755 384.668L391.469 384.664C390.212 384.662 386.565 384.456 383.364 384.207L377.546 383.754L377.738 372.938L377.932 362.121L385.844 361.967L393.755 361.813V373.241ZM455.574 373.447L455.712 384.729L447.764 384.514L439.816 384.298V373.232V362.166H447.626L455.437 362.165L455.574 373.447ZM441.574 368.742C441.574 371.587 441.371 375.859 441.123 378.236L440.671 382.559H447.452H454.233L454.229 379.922C454.227 378.472 454.021 374.199 453.771 370.428L453.317 363.572H447.446H441.574V368.742ZM409.929 373.065V382.559H416.258H422.587V373.065V363.572H416.258H409.929V373.065ZM378.987 373.065V382.559H385.667H392.348V373.065V363.572H385.667H378.987V373.065ZM266.469 375.175V384.668H257.931H249.391L249.844 380.346C250.092 377.969 250.295 373.697 250.295 370.852V365.681H258.382H266.469V375.175ZM231.308 375.526V384.668H223.221H215.133V375.526V366.384H223.221H231.308V375.526ZM251.701 374.823V382.559H258.382H265.063V374.823V367.088H258.382H251.701V374.823ZM216.663 375.531L216.434 382.559H223.168H229.901V375.526V368.494L223.396 368.499L216.891 368.504L216.663 375.531ZM169.397 369.775C170.242 370.057 170.438 392.161 169.599 392.592C169.309 392.74 166.453 392.725 163.253 392.558L157.434 392.254L157.627 380.901L157.82 369.549L163.244 369.541C166.227 369.536 168.996 369.641 169.397 369.775ZM143.859 370.269C144.016 370.679 144.058 375.906 143.95 381.885L143.755 392.756L138.326 392.961C131.703 393.211 132.021 393.908 132.302 379.746L132.503 369.549L138.039 369.536C141.298 369.529 143.69 369.83 143.859 370.269ZM159.031 380.915L159.226 390.522L163.973 390.818L168.72 391.114V381.211V371.307H163.778H158.835L159.031 380.915ZM133.81 373.944C134.05 375.395 134.25 379.993 134.254 384.162L134.262 391.743L137.953 391.546C142.527 391.302 142.538 391.275 142.63 379.922L142.7 371.307H138.037H133.374L133.81 373.944ZM547.499 381.152C547.263 383.666 547.067 390.075 547.064 395.393L547.059 405.062H537.566H528.072V390.796V376.531L538 376.556L547.928 376.581L547.499 381.152ZM510.722 376.697C510.789 376.761 510.751 383.178 510.639 390.957L510.434 405.102L500.794 404.906L491.152 404.711L490.962 390.605L490.773 376.499L500.687 376.541C506.14 376.563 510.655 376.633 510.722 376.697ZM529.479 388.185V398.03H537.566H545.653V388.185V378.339H537.566H529.479V388.185ZM492.772 388.183L492.984 398.03H501.035H509.085V388.185V378.339L500.822 378.338L492.559 378.337L492.772 388.183ZM718.003 387.069C718.164 387.229 718.2 391.659 718.083 396.914L717.869 406.469H709.174C704.392 406.469 699.979 406.661 699.367 406.896C698.384 407.272 698.254 406.128 698.254 397.05V386.778H707.982C713.333 386.778 717.842 386.909 718.003 387.069ZM681.127 391.081C680.878 393.469 680.674 397.908 680.674 400.946V406.469H670.757H660.84L661.213 396.799L661.586 387.13L671.584 386.934L681.582 386.738L681.127 391.081ZM700.107 394.162C699.866 397.256 699.667 400.975 699.665 402.425L699.661 405.062H708.1H716.539L716.535 396.799L716.532 388.536H708.539H700.546L700.107 394.162ZM663.096 396.799L663.093 405.062H671.18H679.267V398.821C679.267 395.389 679.449 391.67 679.672 390.558L680.076 388.536H671.587H663.099L663.096 396.799ZM566.343 393.983C566.211 394.115 566.012 407.974 565.9 424.783L565.695 455.343L604.113 455.428L642.532 455.514L643.053 425.334C643.339 408.735 643.392 394.972 643.171 394.751C642.12 393.7 567.373 392.953 566.343 393.983ZM529.479 401.194V402.953H537.566C545.108 402.953 545.653 402.86 545.653 401.585C545.653 400.102 544.101 399.827 534.225 399.563C529.597 399.44 529.479 399.48 529.479 401.194ZM492.91 401.194V402.953H500.998H509.085V401.194V399.436H500.998H492.91V401.194ZM454.115 407.164C453.873 407.885 385.657 408.704 381.272 408.038C380.015 407.847 378.987 407.416 378.987 407.08C378.987 406.742 395.797 406.469 416.668 406.469C441.199 406.469 454.268 406.711 454.115 407.164ZM169.968 420.674L169.775 432.067L163.531 432.349C158.811 432.561 157.141 432.398 156.686 431.68C156.354 431.158 156.079 425.905 156.072 420.006L156.062 409.282H163.112H170.162L169.968 420.674ZM144.446 409.964C144.696 410.37 144.676 415.603 144.402 421.595L143.904 432.488H137.807H131.708L131.949 421.061L132.19 409.633L138.091 409.431C141.66 409.308 144.171 409.519 144.446 409.964ZM626.099 412.211C626.3 413.501 626.663 418.95 626.907 424.322C627.26 432.083 627.158 434.21 626.411 434.683C625.893 435.012 622.068 435.284 617.91 435.291L610.35 435.301V422.995V410.688H616.973C620.616 410.688 624.078 410.503 624.666 410.277C625.456 409.974 625.831 410.479 626.099 412.211ZM590.5 410.517L597.725 410.737L597.532 422.843L597.341 434.95L589.413 435.149L581.485 435.348L581.677 422.9C581.795 415.265 582.142 410.422 582.573 410.374C582.959 410.332 586.527 410.396 590.5 410.517ZM157.578 420.488C157.726 425.879 157.999 430.396 158.185 430.526C158.371 430.656 160.818 430.651 163.622 430.514L168.72 430.263L168.714 424.168C168.711 420.815 168.508 416.411 168.264 414.38L167.821 410.688H162.565H157.309L157.578 420.488ZM133.558 420.977V431.266L136.195 430.83C137.646 430.59 139.702 430.391 140.766 430.386L142.7 430.379V420.533V410.688H138.129H133.558V420.977ZM611.757 423.097V434.098L616.504 433.65C619.115 433.403 622.121 433.199 623.184 433.197L625.118 433.192L625.112 426.335C625.109 422.564 624.907 417.817 624.663 415.787L624.219 412.095H617.988H611.757V423.097ZM583.486 423.021L583.697 433.948L589.815 433.746L595.934 433.543L596.128 422.819L596.322 412.095L589.799 412.094L583.276 412.092L583.486 423.021ZM230.849 418.512C231.102 422.063 231.308 426.71 231.308 428.837V432.706L222.409 432.254C217.515 432.007 213.417 431.71 213.304 431.597C213.19 431.483 213.045 427.127 212.981 421.918L212.866 412.446L221.628 412.25L230.391 412.054L230.849 418.512ZM248.6 418.775C248.655 421.87 248.743 431.363 248.795 439.872L248.889 455.343L257.381 455.433L265.872 455.522L265.672 434.239L265.471 412.957L256.986 413.053L248.5 413.149L248.6 418.775ZM214.432 422.116L214.43 430.379H221.814H229.198V422.061V413.742L221.815 413.798L214.433 413.853L214.432 422.116ZM454.233 423.967C454.233 424.798 405.406 425.763 391.645 425.204C385.65 424.961 380.349 424.76 379.866 424.757C379.382 424.755 378.987 424.436 378.987 424.05C378.987 423.59 391.996 423.346 416.61 423.346C437.915 423.346 454.233 423.616 454.233 423.967ZM679.267 440.115V455.477L688.831 455.936C694.091 456.188 698.68 456.218 699.028 456.003C699.376 455.788 699.661 448.669 699.661 440.182V424.753H689.464H679.267V440.115Z" fill="url(#paint1_linear_1149_3975)"/>
<path d="M0.0546875 384.3L15.0547 396.8C30.0547 409.3 60.0547 434.3 90.0547 437.8C120.055 441.3 150.055 423.3 180.055 414C210.055 404.6 240.055 404 270.055 413C300.055 422 330.055 440.6 360.055 437.1C390.055 433.6 420.055 408 450.055 398.5C480.055 389 510.055 395.6 540.055 396.8C570.055 398 600.055 393.6 630.055 397.1C660.055 400.6 690.055 412 720.055 421C750.055 430 780.055 436.6 810.055 422C840.055 407.3 870.055 371.3 900.055 370C930.055 368.6 960.055 402 990.055 409.3C1020.05 416.6 1050.05 398 1080.05 382.3C1110.05 366.6 1140.05 354 1170.05 349.6C1200.05 345.3 1230.05 349.3 1260.05 366.1C1290.05 383 1320.05 412.6 1350.05 427C1380.05 441.3 1410.05 440.3 1425.05 439.8L1440.05 439.3V627.3H1425.05C1410.05 627.3 1380.05 627.3 1350.05 627.3C1320.05 627.3 1290.05 627.3 1260.05 627.3C1230.05 627.3 1200.05 627.3 1170.05 627.3C1140.05 627.3 1110.05 627.3 1080.05 627.3C1050.05 627.3 1020.05 627.3 990.055 627.3C960.055 627.3 930.055 627.3 900.055 627.3C870.055 627.3 840.055 627.3 810.055 627.3C780.055 627.3 750.055 627.3 720.055 627.3C690.055 627.3 660.055 627.3 630.055 627.3C600.055 627.3 570.055 627.3 540.055 627.3C510.055 627.3 480.055 627.3 450.055 627.3C420.055 627.3 390.055 627.3 360.055 627.3C330.055 627.3 300.055 627.3 270.055 627.3C240.055 627.3 210.055 627.3 180.055 627.3C150.055 627.3 120.055 627.3 90.0547 627.3C60.0547 627.3 30.0547 627.3 15.0547 627.3H0.0546875V384.3Z" fill="#6699F7"/>
<path d="M0.0546875 457.299L15.0547 466.499C30.0547 475.599 60.0547 493.999 90.0547 506.599C120.055 519.299 150.055 526.299 180.055 516.999C210.055 507.599 240.055 481.999 270.055 471.299C300.055 460.599 330.055 464.999 360.055 467.299C390.055 469.599 420.055 469.999 450.055 470.099C480.055 470.299 510.055 470.299 540.055 470.299C570.055 470.299 600.055 470.299 630.055 465.999C660.055 461.599 690.055 452.999 720.055 462.499C750.055 471.999 780.055 499.599 810.055 505.599C840.055 511.599 870.055 495.999 900.055 489.499C930.055 482.999 960.055 485.599 990.055 478.299C1020.05 470.999 1050.05 453.599 1080.05 445.599C1110.05 437.599 1140.05 438.999 1170.05 452.599C1200.05 466.299 1230.05 492.299 1260.05 491.599C1290.05 490.999 1320.05 463.599 1350.05 456.999C1380.05 450.299 1410.05 464.299 1425.05 471.299L1440.05 478.299V627.299H1425.05C1410.05 627.299 1380.05 627.299 1350.05 627.299C1320.05 627.299 1290.05 627.299 1260.05 627.299C1230.05 627.299 1200.05 627.299 1170.05 627.299C1140.05 627.299 1110.05 627.299 1080.05 627.299C1050.05 627.299 1020.05 627.299 990.055 627.299C960.055 627.299 930.055 627.299 900.055 627.299C870.055 627.299 840.055 627.299 810.055 627.299C780.055 627.299 750.055 627.299 720.055 627.299C690.055 627.299 660.055 627.299 630.055 627.299C600.055 627.299 570.055 627.299 540.055 627.299C510.055 627.299 480.055 627.299 450.055 627.299C420.055 627.299 390.055 627.299 360.055 627.299C330.055 627.299 300.055 627.299 270.055 627.299C240.055 627.299 210.055 627.299 180.055 627.299C150.055 627.299 120.055 627.299 90.0547 627.299C60.0547 627.299 30.0547 627.299 15.0547 627.299H0.0546875V457.299Z" fill="#3377F4"/>
<defs>
<linearGradient id="paint0_linear_1149_3975" x1="1080.05" y1="0" x2="1080.05" y2="458" gradientUnits="userSpaceOnUse">
<stop stop-color="white" stop-opacity="0.8"/>
<stop offset="1" stop-color="white" stop-opacity="0"/>
</linearGradient>
<linearGradient id="paint1_linear_1149_3975" x1="359.999" y1="0" x2="359.999" y2="458" gradientUnits="userSpaceOnUse">
<stop stop-color="white" stop-opacity="0.8"/>
<stop offset="1" stop-color="white" stop-opacity="0"/>
</linearGradient>
</defs>
</svg>
