<svg width="48" height="48" viewBox="0 0 48 48" fill="none" xmlns="http://www.w3.org/2000/svg">
<path d="M9.28613 5.5H18.1367C18.7249 5.50018 19.0906 5.93234 19.0908 6.33301C19.0908 6.73375 18.725 7.16682 18.1367 7.16699H9.28613C9.12426 7.16701 8.9771 7.18194 8.84473 7.21191L8.71777 7.24707C8.59745 7.28615 8.48365 7.34116 8.37695 7.41992L8.27246 7.50684C7.3446 8.36926 6.68549 9.6842 6.07422 11.5166L5.63477 12.833H14.2275C14.8158 12.8331 15.1816 13.2662 15.1816 13.667C15.1814 14.0677 14.8157 14.4999 14.2275 14.5H4.4541C4.13592 14.4999 3.85447 14.3617 3.68262 14.1553C3.53553 13.9786 3.47837 13.7671 3.50684 13.5654L3.52441 13.4795C4.30123 10.5649 5.12045 8.21326 6.58203 6.66504L6.88281 6.36621C7.59783 5.70181 8.49391 5.50006 9.28613 5.5ZM29.8633 5.5H38.7139C39.4565 5.50004 40.2901 5.67754 40.9805 6.24707L41.1162 6.36621C42.5627 7.71036 43.4156 9.76848 44.1611 12.3447L44.4756 13.4795C44.5359 13.7058 44.4856 13.9532 44.3174 14.1553C44.1454 14.3618 43.8634 14.5 43.5449 14.5H33.7725C33.1842 14.4998 32.8186 14.0677 32.8184 13.667C32.8184 13.2662 33.1841 12.8332 33.7725 12.833H42.3652L41.9258 11.5166C41.3527 9.79863 40.7375 8.53559 39.8984 7.67383L39.7275 7.50684L39.7256 7.50488L39.6221 7.41895C39.5161 7.34095 39.4028 7.28623 39.2822 7.24707H39.2832C39.1196 7.1939 38.9294 7.16701 38.7139 7.16699H29.8633C29.275 7.16684 28.9092 6.73376 28.9092 6.33301C28.9094 5.93233 29.2752 5.50016 29.8633 5.5Z" fill="white" stroke="white" stroke-width="2"/>
<path d="M24 3.5C29.0604 3.5 33.2863 7.08072 34.2793 11.8467L34.3652 12.3115C34.4723 12.9742 35.0431 13.5 35.7549 13.5H42C42.2761 13.5 42.5 13.7239 42.5 14V36.1035C42.5 37.698 42.4986 38.986 42.3984 40.0254L42.3496 40.4561H42.3486C42.2043 41.5297 41.9151 42.3765 41.3076 43.0498L41.1816 43.1816C40.5746 43.7889 39.8196 44.1095 38.873 44.2832L38.4561 44.3486V44.3496C37.3479 44.4987 35.9257 44.5 34.1035 44.5H31V37.5C31 33.6339 27.8661 30.5 24 30.5C20.1339 30.5 17 33.6339 17 37.5V44.5H13.8965C12.302 44.5 11.014 44.4987 9.97461 44.3984L9.54395 44.3496V44.3486C8.47043 44.2043 7.62358 43.9151 6.9502 43.3076L6.81836 43.1816L6.69238 43.0498C6.16581 42.4662 5.87814 41.7522 5.7168 40.873L5.65137 40.4561C5.50237 39.3479 5.49994 37.9262 5.5 36.1045V14C5.5 13.7239 5.72387 13.5 6 13.5H12.2461C12.9133 13.4998 13.456 13.0374 13.6094 12.4336L13.6348 12.3115C14.4418 7.31554 18.7764 3.5 24 3.5ZM12 26.5C10.6193 26.5 9.5 27.6193 9.5 29C9.5 30.3807 10.6193 31.5 12 31.5H13C14.3807 31.5 15.5 30.3807 15.5 29C15.5 27.6193 14.3807 26.5 13 26.5H12ZM35 26.5C33.6193 26.5 32.5 27.6193 32.5 29C32.5 30.3807 33.6193 31.5 35 31.5H36C37.3807 31.5 38.5 30.3807 38.5 29C38.5 27.6193 37.3807 26.5 36 26.5H35ZM12 19.5C10.6193 19.5 9.5 20.6193 9.5 22C9.5 23.3807 10.6193 24.5 12 24.5H13C14.3807 24.5 15.5 23.3807 15.5 22C15.5 20.6193 14.3807 19.5 13 19.5H12ZM27 13.5C25.6193 13.5 24.5 14.6193 24.5 16V16.5H23.5V16C23.5 14.6193 22.3807 13.5 21 13.5C19.6193 13.5 18.5 14.6193 18.5 16V22C18.5 23.3807 19.6193 24.5 21 24.5C22.3807 24.5 23.5 23.3807 23.5 22V21.5H24.5V22C24.5 23.3807 25.6193 24.5 27 24.5C28.3807 24.5 29.5 23.3807 29.5 22V16C29.5 14.6193 28.3807 13.5 27 13.5ZM35 19.5C33.6193 19.5 32.5 20.6193 32.5 22C32.5 23.3807 33.6193 24.5 35 24.5H36C37.3807 24.5 38.5 23.3807 38.5 22C38.5 20.6193 37.3807 19.5 36 19.5H35Z" fill="white" stroke="white" stroke-width="2"/>
<path d="M24 36.5C24.5523 36.5 25 36.9477 25 37.5V44.5H23V37.5C23 36.9477 23.4477 36.5 24 36.5Z" fill="white" stroke="white" stroke-width="2"/>
</svg>
