<svg width="48" height="48" viewBox="0 0 48 48" fill="none" xmlns="http://www.w3.org/2000/svg">
<path d="M24 3.5C27.2466 3.5 30.2458 4.74541 32.0088 6.77539L32.1748 6.97461C32.4349 7.29635 32.8333 7.49996 33.2715 7.5H44C44.5523 7.5 45 7.94771 45 8.5C45 9.05229 44.5523 9.5 44 9.5H43.9004C43.1275 9.5 42.5 10.127 42.5 10.9004V40.0898L42.499 40.7236C42.4963 41.126 42.4885 41.4871 42.4668 41.8086L42.4219 42.2607C42.3512 42.7865 42.2108 43.2391 41.9082 43.6123L41.7676 43.7676C41.417 44.1183 40.987 44.295 40.4824 44.3877L40.2607 44.4219C39.6959 44.4978 38.9774 44.5002 38.0898 44.5H31V37.5C31 33.6339 27.8661 30.5 24 30.5C20.1339 30.5 17 33.6339 17 37.5V44.5H9.91016C9.24432 44.5002 8.6735 44.4994 8.19141 44.4668L7.73926 44.4219C7.21332 44.3512 6.76105 44.21 6.3877 43.9072L6.23242 43.7676C5.88175 43.4169 5.70501 42.9869 5.6123 42.4824L5.57812 42.2607C5.50223 41.696 5.4999 40.9777 5.5 40.0898V10.9004L5.49316 10.7568C5.42148 10.0508 4.82445 9.5 4.09961 9.5H4C3.44772 9.5 3 9.05228 3 8.5C3 7.94772 3.44772 7.5 4 7.5H14.7285C15.167 7.49998 15.5653 7.29602 15.8252 6.97461L15.8242 6.97363C17.5608 4.82657 20.6488 3.5 24 3.5ZM12 29.5C10.6193 29.5 9.5 30.6193 9.5 32C9.5 33.3807 10.6193 34.5 12 34.5H14C15.3807 34.5 16.5 33.3807 16.5 32C16.5 30.6193 15.3807 29.5 14 29.5H12ZM34 29.5C32.6193 29.5 31.5 30.6193 31.5 32C31.5 33.3807 32.6193 34.5 34 34.5H36C37.3807 34.5 38.5 33.3807 38.5 32C38.5 30.6193 37.3807 29.5 36 29.5H34ZM12 21.5C10.6193 21.5 9.5 22.6193 9.5 24C9.5 25.3807 10.6193 26.5 12 26.5H14C15.3807 26.5 16.5 25.3807 16.5 24C16.5 22.6193 15.3807 21.5 14 21.5H12ZM34 21.5C32.6193 21.5 31.5 22.6193 31.5 24C31.5 25.3807 32.6193 26.5 34 26.5H36C37.3807 26.5 38.5 25.3807 38.5 24C38.5 22.6193 37.3807 21.5 36 21.5H34ZM27 13.5C25.6193 13.5 24.5 14.6193 24.5 16V16.5H23.5V16C23.5 14.6193 22.3807 13.5 21 13.5C19.6193 13.5 18.5 14.6193 18.5 16V22C18.5 23.3807 19.6193 24.5 21 24.5C22.3807 24.5 23.5 23.3807 23.5 22V21.5H24.5V22C24.5 23.3807 25.6193 24.5 27 24.5C28.3807 24.5 29.5 23.3807 29.5 22V16C29.5 14.6193 28.3807 13.5 27 13.5ZM12 13.5C10.6193 13.5 9.5 14.6193 9.5 16C9.5 17.3807 10.6193 18.5 12 18.5H14C15.3807 18.5 16.5 17.3807 16.5 16C16.5 14.6193 15.3807 13.5 14 13.5H12ZM34 13.5C32.6193 13.5 31.5 14.6193 31.5 16C31.5 17.3807 32.6193 18.5 34 18.5H36C37.3807 18.5 38.5 17.3807 38.5 16C38.5 14.6193 37.3807 13.5 36 13.5H34Z" fill="white" stroke="white" stroke-width="2"/>
<path d="M24 36.5C24.5523 36.5 25 36.9477 25 37.5V44.5H23V37.5C23 36.9477 23.4477 36.5 24 36.5Z" fill="white" stroke="white" stroke-width="2"/>
</svg>
