<svg width="48" height="48" viewBox="0 0 48 48" fill="none" xmlns="http://www.w3.org/2000/svg">
<path d="M6.5 29.5322L5.89258 29.2725C5.34196 29.0375 4.85589 28.631 4.47852 28.1279H4.47754C3.86419 27.3097 3.5 26.2021 3.5 25C3.5 23.7976 3.86391 22.6894 4.47754 21.8711L4.47852 21.8721C5.09387 21.0516 5.98085 20.5 7 20.5C8.01915 20.5 8.90613 21.0516 9.52148 21.8721V21.8711C10.1352 22.6895 10.5 23.7975 10.5 25C10.5 26.1273 10.1795 27.1713 9.63379 27.9717L9.52148 28.1279C9.14411 28.631 8.65804 29.0375 8.10742 29.2725L7.5 29.5322V41C7.5 41.2761 7.27613 41.5 7 41.5C6.72387 41.5 6.5 41.2761 6.5 41V29.5322Z" fill="white" stroke="white" stroke-width="2"/>
<path d="M4 40.5H44C44.2761 40.5 44.5 40.7239 44.5 41C44.5 41.2761 44.2761 41.5 44 41.5H4C3.72387 41.5 3.5 41.2761 3.5 41C3.5 40.7239 3.72387 40.5 4 40.5Z" fill="white" stroke="white" stroke-width="2"/>
<path d="M29 6.5C29.811 6.5 30.5369 6.76483 31.3018 7.23926L31.6328 7.45508C32.2772 7.89669 32.9879 8.49743 33.8301 9.24121L34.7188 10.0322L44.333 18.627C44.513 18.7878 44.5494 19.05 44.4326 19.251L44.373 19.333C44.189 19.5389 43.8729 19.5569 43.667 19.373V19.3721L43.166 18.9258L41.5 17.4365V41C41.5 41.2761 41.2761 41.5 41 41.5H36.4492C36.482 41.3384 36.5 41.1713 36.5 41V32.9102L36.499 32.2764C36.4957 31.7477 36.483 31.2257 36.4365 30.751L36.4043 30.4727C36.3008 29.703 36.0512 28.7774 35.332 27.9766L35.1816 27.8184C34.4507 27.0873 33.5953 26.7838 32.8428 26.6455L32.5273 26.5957C31.8011 26.4981 30.9327 26.5 30.0898 26.5H27.9102C27.1726 26.5 26.4153 26.4985 25.751 26.5635L25.4727 26.5957C24.703 26.6992 23.7774 26.9488 22.9766 27.668L22.8184 27.8184C22.0878 28.549 21.784 29.4039 21.6455 30.1562L21.5957 30.4717C21.498 31.198 21.5 32.0674 21.5 32.9102V41C21.5 41.1713 21.518 41.3384 21.5508 41.5H17C16.7239 41.5 16.5 41.2761 16.5 41V17.4365L14.834 18.9258L14.333 19.373C14.1528 19.5339 13.8886 19.5401 13.7021 19.4014L13.627 19.333C13.4662 19.1529 13.4599 18.8886 13.5986 18.7021L13.667 18.627L23.2812 10.0322C24.3742 9.05508 25.2593 8.26598 26.0391 7.68945L26.3672 7.45508C27.2569 6.84548 28.0731 6.5 29 6.5ZM28 31.5H30C30.6948 31.5 31.1516 31.5034 31.4795 31.5195C31.4957 31.8475 31.5 32.3045 31.5 33V41C31.5 41.1713 31.518 41.3384 31.5508 41.5H26.4492C26.482 41.3384 26.5 41.1713 26.5 41V32.999C26.5 32.3041 26.5033 31.8473 26.5195 31.5195C26.8475 31.5033 27.3045 31.5 28 31.5ZM27 18.5C25.6193 18.5 24.5 19.6193 24.5 21C24.5 22.3807 25.6193 23.5 27 23.5H31C32.3807 23.5 33.5 22.3807 33.5 21C33.5 19.6193 32.3807 18.5 31 18.5H27ZM27 12.5C25.6193 12.5 24.5 13.6193 24.5 15C24.5 16.3807 25.6193 17.5 27 17.5H31C32.3807 17.5 33.5 16.3807 33.5 15C33.5 13.6193 32.3807 12.5 31 12.5H27Z" fill="white" stroke="white" stroke-width="2"/>
</svg>
