<svg width="48" height="48" viewBox="0 0 48 48" fill="none" xmlns="http://www.w3.org/2000/svg">
<path d="M7.99988 6.50037C8.55217 6.50037 8.99988 6.94808 8.99988 7.50037V15.6967C8.99988 16.249 8.55217 16.6967 7.99988 16.6967C7.4476 16.6967 6.99988 16.2489 6.99988 15.6967V7.50037C6.99988 6.94809 7.4476 6.50037 7.99988 6.50037Z" fill="white" stroke="white" stroke-width="2"/>
<path d="M21.4666 23.5398C21.685 23.7606 22.0393 24.1173 22.4998 24.4812V41.0007C22.4998 41.2769 22.2759 41.5007 21.9998 41.5007H17.2C17.1251 41.5007 17.0594 41.4991 17.0007 41.4988C17.0004 41.4403 16.9998 41.3749 16.9998 41.3005V35.0007C16.9998 33.3438 15.6566 32.0007 13.9998 32.0007C12.3429 32.0007 10.9998 33.3438 10.9998 35.0007V41.3005C10.9998 41.3749 10.9981 41.4403 10.9978 41.4988C10.9393 41.4991 10.874 41.5007 10.7996 41.5007H5.99976C5.72362 41.5007 5.49976 41.2769 5.49976 41.0007V25.8767C6.62962 25.6297 7.68821 25.0141 8.4812 24.0535L8.48218 24.0544L14.5857 16.6589L21.4666 23.5398ZM14.0066 22.0007C12.3505 22.0007 11.0154 23.3481 11.0154 25.0007C11.0156 26.6532 12.3506 28.0007 14.0066 28.0007H14.0242C15.6802 28.0007 17.0152 26.6532 17.0154 25.0007C17.0154 23.3481 15.6803 22.0007 14.0242 22.0007H14.0066Z" fill="white" stroke="white" stroke-width="2"/>
<path d="M27.4088 26.0007V26.0017L42.4987 26.0007C42.4987 26.1396 42.4996 26.2805 42.4996 26.4236V41.0007C42.4996 41.2767 42.2755 41.5005 41.9996 41.5007H26.9752L26.9801 41.4373C26.9926 41.2938 26.9996 41.1481 26.9996 41.0007V25.9978C27.157 26.0002 27.2962 26.0014 27.4088 26.0007ZM31.9996 28.5007C30.6189 28.5007 29.4996 29.62 29.4996 31.0007C29.4997 32.3814 30.619 33.5007 31.9996 33.5007H35.9996C37.3806 33.5007 38.4996 32.3813 38.4996 31.0007C38.4996 29.6202 37.3806 28.5008 35.9996 28.5007H31.9996Z" fill="white" stroke="white" stroke-width="2"/>
<path d="M30.5272 8.50037C32.0553 8.49873 33.0322 8.5136 33.869 8.85291L34.035 8.92517C34.6912 9.23249 35.2237 9.73684 35.8885 10.4984L36.6073 11.348L36.6083 11.349L44.3837 20.681V20.6801C44.4926 20.8108 44.5268 20.9866 44.4784 21.1459L44.453 21.2123V21.2133C44.3809 21.367 44.2362 21.4717 44.0712 21.4955L43.9999 21.5004L27.4969 21.5013H27.494C26.8958 21.5032 26.4379 21.4944 26.0389 21.3705L25.8719 21.3109C25.5428 21.1745 25.2571 20.9455 24.9315 20.6351L24.5897 20.2982L15.9794 11.6879C15.7822 11.4907 15.5621 11.267 15.3514 11.1078C15.147 10.9533 14.8538 10.781 14.4735 10.7552L14.3055 10.7543C13.8429 10.7764 13.5135 11.0075 13.2977 11.2054C13.2005 11.2947 13.1017 11.4001 13.0057 11.5101L12.7274 11.8431L5.01257 21.1898C4.7088 21.5576 4.1735 21.6047 3.81238 21.3011C3.46828 21.0116 3.40113 20.5043 3.64832 20.1342L3.70203 20.0619L12.9872 8.81189C13.1416 8.62481 13.3546 8.52103 13.5751 8.5033L13.6708 8.50134L13.8104 8.50525C13.8387 8.50531 13.9107 8.50339 13.9862 8.50134L13.9852 8.50037H30.5272Z" fill="white" stroke="white" stroke-width="2"/>
</svg>
