<svg width="48" height="48" viewBox="0 0 48 48" fill="none" xmlns="http://www.w3.org/2000/svg">
<path d="M24 3.5C25.5969 3.5 27.1127 4.09256 29.5176 5.18945L30.6055 5.69043H30.6064L30.9238 5.83691L34.4521 7.46875C36.6857 8.50116 38.4732 9.32924 39.7754 10.1006L40.3037 10.4277C41.6507 11.3058 42.5 12.2379 42.5 13.5C42.5 14.6833 41.754 15.5767 40.5508 16.4072L40.3037 16.5723C39.3069 17.2221 37.95 17.8982 36.2568 18.6934L34.4531 19.5312H34.4521L30.9238 21.1631L30.6064 21.3096H30.6055C27.544 22.7259 25.825 23.5 24 23.5C22.4032 23.5 20.8873 22.9074 18.4824 21.8105L17.3936 21.3096L17.0762 21.1631L13.5469 19.5312C11.3135 18.499 9.52679 17.6707 8.22461 16.8994L7.69629 16.5723C6.34936 15.6942 5.5 14.7622 5.5 13.5C5.5 12.3167 6.24604 11.4233 7.44922 10.5928L7.69629 10.4277C8.69314 9.77792 10.0501 9.10179 11.7432 8.30664L13.5469 7.46875L17.0762 5.83691L17.3936 5.69043H17.3945C20.4559 4.27419 22.175 3.5 24 3.5Z" fill="white" stroke="white" stroke-width="2"/>
<path d="M7.40039 34.1475C7.39857 34.0522 7.4087 33.9324 7.45312 33.7988C7.48871 33.6918 7.53601 33.6081 7.56152 33.5645L7.5625 33.5635L7.67188 33.3984C7.80006 33.2271 7.98555 33.0357 8.24805 32.8213L8.32227 32.7539C8.67387 32.4003 8.72119 31.8104 8.40137 31.3984L8.33594 31.3232C7.99856 30.9681 7.46077 30.9326 7.08301 31.2412L6.91309 31.3848C6.07779 32.1134 5.5 32.9931 5.5 34.1348C5.50017 35.6693 6.5341 36.7195 7.86621 37.5977L8.3916 37.9268C9.6842 38.7013 11.4424 39.525 13.5957 40.5312L17.0684 42.1543H17.0693L17.4424 42.3291L18.4854 42.8145C20.8041 43.8835 22.3587 44.499 24 44.499C25.8758 44.499 27.6384 43.6953 30.5576 42.3291H30.5586L30.9316 42.1543L34.4043 40.5312L36.1514 39.7109C37.7988 38.9284 39.141 38.2519 40.1338 37.5977L40.3799 37.4307C41.5911 36.586 42.4998 35.5734 42.5 34.1348C42.5 32.9172 41.8429 31.9975 40.917 31.2412L40.8389 31.1846C40.4413 30.9217 39.9077 31.0005 39.5986 31.3984L39.54 31.4834C39.2689 31.9171 39.3601 32.501 39.752 32.8213L39.9893 33.0283C40.1313 33.1613 40.2426 33.2842 40.3281 33.3984L40.4375 33.5635L40.4883 33.6562C40.5078 33.696 40.528 33.7443 40.5459 33.7979C40.5903 33.9308 40.6015 34.0505 40.5996 34.1475M7.40039 34.1475C7.40065 34.1667 7.40077 34.1823 7.40137 34.1924L7.40332 34.2109M7.40039 34.1475C7.40082 34.17 7.40174 34.1912 7.40332 34.2109M7.40039 34.1475C7.40034 34.1434 7.40039 34.1392 7.40039 34.1348C7.40039 34.1417 7.40219 34.1495 7.40234 34.1582M7.40332 34.2109V34.2139C7.40338 34.2149 7.40423 34.2158 7.4043 34.2168M7.40332 34.2109C7.4025 34.1967 7.40244 34.1788 7.40234 34.1582M7.4043 34.2168C7.40562 34.2376 7.40744 34.2558 7.40918 34.2705C7.4104 34.2803 7.41148 34.2904 7.41309 34.3008M7.4043 34.2168C7.40522 34.2313 7.40702 34.2444 7.4082 34.2559C7.40652 34.2406 7.4062 34.2263 7.40527 34.2129H7.40332C7.4034 34.2142 7.40421 34.2155 7.4043 34.2168ZM7.41309 34.3008C7.41468 34.3115 7.41569 34.3208 7.41699 34.3281C7.41812 34.3345 7.41976 34.3409 7.4209 34.3467M7.41309 34.3008C7.41959 34.3428 7.43026 34.3894 7.44531 34.4395L7.44434 34.4404C7.44309 34.4363 7.43785 34.42 7.43262 34.3994C7.43092 34.3928 7.4261 34.3731 7.4209 34.3467M7.41309 34.3008C7.41579 34.3189 7.4185 34.3345 7.4209 34.3467M7.4209 34.3467C7.4221 34.3528 7.42292 34.358 7.42383 34.3623C7.43048 34.3934 7.43743 34.4182 7.44043 34.4287C7.44407 34.4414 7.44787 34.4517 7.4502 34.459C7.45477 34.4732 7.45887 34.4861 7.46289 34.4971C7.46593 34.5054 7.47403 34.5267 7.48535 34.5527L7.49414 34.5732C7.53568 34.666 7.59385 34.7663 7.6748 34.874V34.873C7.84265 35.0964 8.09694 35.3422 8.46582 35.6172L8.87402 35.9023C9.78046 36.4999 11.0442 37.1352 12.7109 37.9258L14.5146 38.7725L17.8389 40.3262C19.5203 41.1119 20.6959 41.6505 21.6035 41.9893C22.5298 42.335 23.2427 42.499 24 42.499C24.7573 42.499 25.4702 42.335 26.3965 41.9893C27.0772 41.7352 27.9087 41.3689 28.9912 40.8701L30.1611 40.3262L33.4854 38.7725C35.7496 37.7143 37.4445 36.9207 38.6426 36.2051L39.126 35.9023C39.6489 35.5576 40.0032 35.2564 40.2334 34.9873L40.3252 34.874V34.873C40.3989 34.7749 40.4532 34.6844 40.4932 34.6006L40.4941 34.5986L40.4932 34.5977C40.5111 34.5598 40.5275 34.5235 40.54 34.4883M40.54 34.4883L40.5391 34.4873M40.54 34.4883L40.5391 34.4873M40.54 34.4883L39.7842 34.168M40.5391 34.4873C40.5435 34.4749 40.5536 34.4509 40.5615 34.4229C40.5735 34.3801 40.582 34.3392 40.5879 34.3008C40.5887 34.2953 40.5881 34.2895 40.5889 34.2842L40.5918 34.2715L40.5967 34.2168C40.5974 34.2083 40.5971 34.1994 40.5977 34.1904M40.5391 34.4873C40.5414 34.4807 40.5447 34.4742 40.5469 34.4678C40.5532 34.4487 40.5725 34.3901 40.585 34.3125C40.5857 34.3079 40.5851 34.3025 40.5859 34.2969L40.5811 34.3262M40.5977 34.1904C40.5978 34.1884 40.5985 34.1865 40.5986 34.1846L40.5996 34.1475M40.5977 34.1904C40.5985 34.1767 40.5993 34.1623 40.5996 34.1475M40.5977 34.1904C40.5975 34.1935 40.5969 34.1968 40.5967 34.2002M40.5996 34.1475C40.5997 34.1434 40.5996 34.1398 40.5996 34.1377L40.5967 34.1758M40.5811 34.3262L39.7842 34.168M40.5811 34.3262C40.5895 34.2834 40.5913 34.2453 40.5938 34.2158M40.5811 34.3262L39.7842 34.168M39.7842 34.168L39.751 34.1543H39.8643M40.5938 34.2158L39.8643 34.1543M40.5938 34.2158C40.5927 34.2305 40.5918 34.2461 40.5898 34.2627C40.5914 34.2485 40.5946 34.233 40.5957 34.2158M40.5938 34.2158H40.5957M40.5938 34.2158H40.5957M40.5938 34.2158C40.5942 34.2103 40.5963 34.2052 40.5967 34.2002M40.5938 34.2158C40.5948 34.2013 40.5962 34.188 40.5967 34.1758M40.5938 34.2158L39.8643 34.1543M39.8643 34.1543H40.5967C40.5967 34.162 40.5968 34.1691 40.5967 34.1758M40.5957 34.2158C40.5958 34.2136 40.5966 34.2113 40.5967 34.209C40.5968 34.2064 40.5965 34.2032 40.5967 34.2002M40.5967 34.2002C40.597 34.1932 40.5965 34.185 40.5967 34.1758M7.40234 34.1582C7.40249 34.1663 7.40292 34.175 7.40332 34.1846C7.40249 34.158 7.40227 34.1225 7.40527 34.0811C7.40331 34.1081 7.40242 34.1315 7.40234 34.1494C7.40233 34.1524 7.40233 34.1553 7.40234 34.1582ZM8.13867 33.1885C8.14585 33.1865 8.15298 33.1844 8.16016 33.1826C8.15299 33.1844 8.14587 33.1865 8.13867 33.1885ZM8.13867 33.1885C8.11404 33.1952 8.08911 33.2031 8.06445 33.2119C8.0592 33.2138 8.05401 33.2158 8.04883 33.2178C8.07896 33.2064 8.10893 33.1966 8.13867 33.1885ZM39.582 35.1533C39.5451 35.1527 39.5073 35.1496 39.4688 35.1445C39.508 35.1496 39.5457 35.1527 39.582 35.1533ZM39.707 35.1465C39.676 35.1499 39.6441 35.1529 39.6113 35.1533C39.6447 35.1529 39.6766 35.1499 39.707 35.1465ZM8.37695 35.1514C8.34985 35.1507 8.32344 35.1501 8.29785 35.1475C8.28899 35.1465 8.2801 35.1447 8.27148 35.1436C8.30491 35.148 8.34003 35.1504 8.37695 35.1514ZM39.7266 35.1455H39.7236C39.7266 35.1451 39.7295 35.144 39.7324 35.1436C39.7304 35.1438 39.7286 35.1452 39.7266 35.1455ZM39.4404 35.1406C39.416 35.1367 39.3911 35.1329 39.3662 35.127C39.3552 35.1243 39.3448 35.1201 39.334 35.1172C39.3688 35.1267 39.4042 35.1348 39.4404 35.1406ZM8.11719 35.1123C8.14926 35.1218 8.18473 35.1288 8.22266 35.1357C8.18601 35.1291 8.15153 35.1225 8.12012 35.1133L8.11719 35.1123ZM39.8818 35.1113C39.8763 35.113 39.8708 35.1147 39.8652 35.1162C39.8709 35.1146 39.8764 35.1129 39.8818 35.1113ZM39.2891 35.1045C39.2508 35.0921 39.214 35.0778 39.1787 35.0615C39.2144 35.078 39.2512 35.0922 39.2891 35.1045ZM8.75977 35.0869C8.75799 35.0876 8.75568 35.0872 8.75391 35.0879C8.75954 35.0858 8.76496 35.0833 8.77051 35.0811C8.76675 35.0825 8.76356 35.0855 8.75977 35.0869ZM40.0303 35.0527C40.0071 35.0639 39.9821 35.0746 39.9551 35.085C39.9822 35.0745 40.0072 35.0638 40.0303 35.0527ZM7.99805 35.0674C7.9946 35.0659 7.99062 35.065 7.9873 35.0635C7.97601 35.0583 7.96559 35.0521 7.95508 35.0469C7.96856 35.0536 7.98279 35.0606 7.99805 35.0674ZM39.1553 35.0498C39.1197 35.0322 39.0858 35.013 39.0537 34.9922C39.0863 35.0133 39.1201 35.0324 39.1553 35.0498ZM8.88477 35.0273C8.87664 35.0318 8.8687 35.0367 8.86035 35.041C8.86869 35.0367 8.87664 35.0318 8.88477 35.0273ZM40.1221 35.0039C40.1092 35.0118 40.0952 35.02 40.0801 35.0283C40.0953 35.0199 40.1093 35.0118 40.1221 35.0039ZM7.91797 35.0273C7.87753 35.0049 7.84404 34.9833 7.81836 34.9648C7.81687 34.9638 7.81592 34.962 7.81445 34.9609C7.84238 34.9813 7.87672 35.0045 7.91797 35.0273ZM9.01367 34.9424C8.98546 34.9643 8.95493 34.9843 8.92285 35.0039C8.95483 34.9843 8.98536 34.9643 9.01367 34.9424ZM39.0371 34.9814C39.034 34.9793 39.0305 34.9777 39.0273 34.9756C39.0149 34.9669 39.0039 34.9562 38.9922 34.9473C39.0071 34.9587 39.0215 34.9709 39.0371 34.9814ZM40.165 34.9775C40.1639 34.9783 40.1623 34.9787 40.1611 34.9795C40.2049 34.9496 40.2395 34.921 40.2646 34.8984C40.237 34.9232 40.204 34.9507 40.165 34.9775ZM9.11523 34.8516C9.09557 34.8716 9.07515 34.8919 9.05273 34.9111C9.07565 34.8914 9.09572 34.8706 9.11523 34.8506V34.8516ZM7.72656 34.8916C7.7252 34.8904 7.72397 34.8889 7.72266 34.8877C7.71765 34.8831 7.71367 34.8776 7.70898 34.873C7.71479 34.8786 7.71997 34.8856 7.72656 34.8916ZM38.9141 34.8828C38.9031 34.8725 38.8929 34.8619 38.8828 34.8516H38.8838C38.8938 34.8618 38.9033 34.8727 38.9141 34.8828ZM40.3369 34.8281C40.3252 34.8409 40.3092 34.8555 40.291 34.873C40.3231 34.8421 40.3471 34.8135 40.3643 34.793C40.3553 34.8037 40.3475 34.8165 40.3369 34.8281ZM7.64062 34.7998C7.63588 34.7942 7.63062 34.7896 7.62695 34.7852C7.62378 34.7813 7.6211 34.7772 7.61816 34.7734C7.62454 34.7815 7.63236 34.7901 7.64062 34.7998ZM40.4141 34.7324C40.4079 34.7411 40.399 34.7498 40.3906 34.7607C40.4101 34.7353 40.4257 34.7131 40.4365 34.6963C40.4294 34.7074 40.4227 34.7202 40.4141 34.7324ZM40.5352 34.4951C40.5277 34.5155 40.5214 34.5378 40.5117 34.5596C40.5069 34.5704 40.4995 34.5828 40.4922 34.5977L40.1484 34.4277L40.5352 34.4951ZM40.583 33.9834C40.5852 33.9959 40.5843 34.0086 40.5859 34.0205C40.5834 34.0019 40.5822 33.9818 40.5781 33.9609C40.5797 33.9689 40.5818 33.9763 40.583 33.9834ZM40.5547 33.8662C40.559 33.8804 40.5621 33.8942 40.5654 33.9072C40.5622 33.8947 40.5591 33.8808 40.5547 33.8662ZM40.5146 33.7549C40.521 33.7695 40.5249 33.7848 40.5303 33.7988C40.5211 33.7748 40.5116 33.749 40.499 33.7227C40.5044 33.734 40.5101 33.7445 40.5146 33.7549ZM7.48438 33.7549C7.49816 33.7232 7.51736 33.6871 7.54004 33.6484C7.5172 33.6874 7.49818 33.7231 7.48438 33.7549ZM40.4648 33.6582C40.4702 33.6676 40.4757 33.6765 40.4805 33.6855C40.4758 33.6767 40.4703 33.6678 40.4648 33.6582ZM40.4131 33.5771C40.4214 33.589 40.4291 33.6008 40.4365 33.6123C40.4292 33.6009 40.4215 33.5891 40.4131 33.5771ZM7.58691 33.5742C7.58235 33.5806 7.57851 33.5874 7.57422 33.5938C7.5765 33.5904 7.5787 33.5864 7.58105 33.583C7.58305 33.5801 7.58486 33.5771 7.58691 33.5742ZM40.3193 33.4648C40.3371 33.4835 40.3538 33.5019 40.3691 33.5205C40.3539 33.502 40.3373 33.4836 40.3193 33.4648ZM7.65918 33.4844C7.65378 33.4904 7.6487 33.4969 7.64355 33.5029C7.65619 33.4882 7.67017 33.4739 7.68457 33.459C7.67614 33.4677 7.6671 33.4756 7.65918 33.4844ZM40.2666 33.4111C40.2711 33.4152 40.275 33.4198 40.2793 33.4238C40.2559 33.402 40.2298 33.3814 40.2021 33.3604C40.2239 33.3769 40.2463 33.3929 40.2666 33.4111ZM8.99512 33.3486C9.0248 33.3705 9.05057 33.3925 9.07227 33.4121C9.05062 33.3925 9.02237 33.3694 8.98828 33.3447C8.99043 33.3463 8.99305 33.3471 8.99512 33.3486ZM7.75684 33.3896C7.76 33.387 7.76337 33.3845 7.7666 33.3818C7.77036 33.3787 7.77449 33.3761 7.77832 33.373C7.7712 33.3787 7.7637 33.3838 7.75684 33.3896ZM40.1406 33.3154C40.1462 33.319 40.1518 33.3225 40.1572 33.3262C40.1518 33.3225 40.1462 33.319 40.1406 33.3154ZM7.88672 33.2979C7.89741 33.2914 7.90786 33.2844 7.91895 33.2783C7.90785 33.2844 7.89739 33.2914 7.88672 33.2979ZM8.875 33.2725C8.87833 33.2742 8.88152 33.2765 8.88477 33.2783C8.87299 33.2718 8.86064 33.2653 8.84766 33.2588C8.85715 33.2635 8.86639 33.2678 8.875 33.2725ZM39.126 33.2725C39.1337 33.2683 39.1421 33.2649 39.1504 33.2607C39.1421 33.2649 39.1337 33.2683 39.126 33.2725ZM7.94238 33.2666C7.97183 33.2513 8.00211 33.2363 8.03418 33.2236C8.00199 33.2364 7.97173 33.2514 7.94238 33.2666ZM8.71973 33.207C8.74952 33.217 8.77756 33.2263 8.80273 33.2373C8.77842 33.2267 8.75035 33.2173 8.71973 33.207ZM39.252 33.2168C39.2603 33.2137 39.2686 33.21 39.2773 33.207C39.2855 33.2043 39.294 33.2019 39.3027 33.1992C39.2851 33.2047 39.2683 33.2108 39.252 33.2168ZM39.8652 33.1914C39.876 33.1944 39.8869 33.1969 39.8975 33.2002C39.8869 33.1969 39.876 33.1944 39.8652 33.1914ZM39.3389 33.1885C39.3681 33.1806 39.4003 33.1746 39.4346 33.1689C39.401 33.1745 39.369 33.1804 39.3389 33.1885ZM8.18457 33.1777C8.2081 33.1725 8.23157 33.1685 8.25488 33.165C8.2317 33.1685 8.20823 33.1725 8.18457 33.1777ZM8.54688 33.165C8.55346 33.166 8.55997 33.1669 8.56641 33.168C8.55997 33.1669 8.55346 33.166 8.54688 33.165ZM39.6133 33.1553C39.6034 33.1551 39.5937 33.1551 39.584 33.1553C39.5936 33.1551 39.6034 33.1551 39.6133 33.1553ZM8.4209 33.1543C8.41507 33.1542 8.40921 33.1533 8.40332 33.1533C8.40462 33.1533 8.40593 33.1533 8.40723 33.1533C8.41178 33.1533 8.4164 33.1542 8.4209 33.1543Z" fill="white" stroke="white" stroke-width="2"/>
<path d="M7.40039 23.8896C7.3986 23.7962 7.40823 23.676 7.45312 23.541C7.48911 23.4328 7.53693 23.3482 7.5625 23.3047L7.67188 23.1406C7.80006 22.9693 7.98556 22.7779 8.24805 22.5635L8.32227 22.4961C8.67386 22.1425 8.72121 21.5526 8.40137 21.1406L8.33594 21.0654C7.99848 20.7102 7.46069 20.6749 7.08301 20.9834L6.91309 21.127C6.07778 21.8558 5.5 22.7354 5.5 23.877C5.50015 25.4115 6.53417 26.4619 7.86621 27.3398L8.3916 27.6689C9.68416 28.4436 11.4424 29.2672 13.5957 30.2734L17.0684 31.8965H17.0693L17.4424 32.0713L18.4854 32.5566C20.8041 33.6257 22.3586 34.2412 24 34.2412C25.8758 34.2412 27.6384 33.4374 30.5576 32.0713H30.5586L30.9316 31.8965L34.4043 30.2734L36.1514 29.4531C37.7987 28.6706 39.141 27.9942 40.1338 27.3398L40.3799 27.1729C41.5911 26.3284 42.4999 25.3156 42.5 23.877C42.5 22.6594 41.8429 21.7399 40.917 20.9834L40.8389 20.9268C40.4414 20.664 39.9077 20.7426 39.5986 21.1406L39.54 21.2256C39.2688 21.6593 39.3601 22.2432 39.752 22.5635L39.9893 22.7705C40.2015 22.9692 40.3438 23.1461 40.4365 23.3037L40.4873 23.3975C40.507 23.4375 40.5278 23.486 40.5459 23.54C40.5908 23.6744 40.6014 23.7945 40.5996 23.8896M7.40039 23.8896C7.40065 23.9089 7.40077 23.9245 7.40137 23.9346L7.40332 23.9531M7.40039 23.8896C7.40083 23.9125 7.40177 23.9337 7.40332 23.9531M7.40039 23.8896C7.40034 23.8856 7.40039 23.8813 7.40039 23.877C7.40039 23.8838 7.40219 23.8917 7.40234 23.9004M7.40332 23.9531V23.9541M7.40332 23.9531C7.4025 23.9388 7.40244 23.921 7.40234 23.9004M7.40332 23.9541C7.40346 23.9564 7.40415 23.9587 7.4043 23.9609M7.40332 23.9541C7.40346 23.9564 7.40415 23.9587 7.4043 23.9609M7.40332 23.9541L7.40527 23.9531C7.40621 23.967 7.40643 23.9821 7.4082 23.998C7.40708 23.9871 7.40519 23.9747 7.4043 23.9609M7.4043 23.9609C7.40561 23.9809 7.4075 23.9984 7.40918 24.0127C7.4104 24.0225 7.41148 24.0326 7.41309 24.043M7.41309 24.043C7.41468 24.0537 7.41569 24.063 7.41699 24.0703C7.41812 24.0766 7.41977 24.0831 7.4209 24.0889M7.41309 24.043C7.41959 24.085 7.43026 24.1316 7.44531 24.1816L7.44434 24.1826L7.43262 24.1416C7.43092 24.1349 7.42609 24.1152 7.4209 24.0889M7.41309 24.043C7.41579 24.0611 7.4185 24.0767 7.4209 24.0889M7.4209 24.0889C7.42209 24.0949 7.42292 24.1002 7.42383 24.1045C7.43048 24.1356 7.43743 24.1604 7.44043 24.1709C7.44407 24.1836 7.44787 24.1939 7.4502 24.2012C7.45484 24.2156 7.45882 24.2291 7.46289 24.2402C7.46602 24.2488 7.47419 24.2693 7.48535 24.2949L7.49414 24.3154C7.52184 24.3773 7.5571 24.4423 7.60156 24.5107L7.6748 24.6162C7.84265 24.8395 8.09711 25.0846 8.46582 25.3594L8.87402 25.6445C9.78042 26.2419 11.0442 26.8773 12.7109 27.668L14.5146 28.5156L17.8389 30.0684C19.5203 30.8541 20.6959 31.3927 21.6035 31.7314C22.5298 32.0772 23.2427 32.2412 24 32.2412C24.7573 32.2412 25.4702 32.0772 26.3965 31.7314C27.0773 31.4774 27.9087 31.1111 28.9912 30.6123L30.1611 30.0684L33.4854 28.5156C35.7496 27.4573 37.4445 26.6628 38.6426 25.9473L39.126 25.6445C39.6489 25.2998 40.0032 24.9986 40.2334 24.7295L40.3252 24.6162V24.6152C40.4328 24.4719 40.4996 24.3452 40.54 24.2314L40.5391 24.2305M40.5391 24.2305C40.5398 24.2283 40.541 24.2257 40.542 24.2227C40.5434 24.2186 40.5456 24.2149 40.5469 24.2109C40.5475 24.2091 40.547 24.2058 40.5479 24.2031M40.5391 24.2305C40.5412 24.2243 40.5441 24.2147 40.5479 24.2031M40.5391 24.2305L39.7812 23.9092M40.5479 24.2031C40.5515 24.1919 40.5576 24.1791 40.5615 24.165C40.5735 24.1223 40.582 24.0814 40.5879 24.043C40.5887 24.0375 40.5881 24.0317 40.5889 24.0264L40.5918 24.0127L40.5967 23.9561C40.5973 23.9488 40.5972 23.9413 40.5977 23.9336M40.5479 24.2031C40.5556 24.1792 40.5737 24.125 40.585 24.0547C40.5857 24.0498 40.5851 24.0441 40.5859 24.0381L40.5811 24.0684M40.5977 23.9336C40.5978 23.9312 40.5985 23.929 40.5986 23.9268L40.5996 23.8896M40.5977 23.9336C40.5985 23.9196 40.5993 23.905 40.5996 23.8896M40.5977 23.9336C40.5975 23.9364 40.5969 23.9393 40.5967 23.9424M40.5996 23.8896C40.5997 23.8856 40.5996 23.882 40.5996 23.8799L40.5967 23.918M39.167 24.7988C39.2062 24.8176 39.2471 24.8331 39.2891 24.8467C39.2466 24.8329 39.2057 24.8173 39.167 24.7988ZM39.167 24.7988C39.127 24.7797 39.0895 24.7576 39.0537 24.7344C39.09 24.7579 39.1275 24.78 39.167 24.7988ZM40.5811 24.0684L39.7812 23.9092M40.5811 24.0684C40.5881 24.0328 40.5891 24.0004 40.5918 23.9736M40.5811 24.0684L39.7812 23.9092M39.7812 23.9092L39.75 23.8965H39.873M40.5938 23.9551C40.5933 23.9611 40.5924 23.9672 40.5918 23.9736M40.5938 23.9551L39.873 23.8965M40.5938 23.9551C40.5947 23.9417 40.5963 23.9294 40.5967 23.918M40.5938 23.9551L39.873 23.8965M40.5918 23.9736C40.5909 23.9836 40.5911 23.9941 40.5898 24.0049C40.5915 23.9899 40.5946 23.9733 40.5957 23.9551M40.5918 23.9736C40.5925 23.9671 40.5942 23.961 40.5947 23.9551M39.873 23.8965H40.5967C40.5967 23.9042 40.5968 23.9113 40.5967 23.918M40.5957 23.9551H40.5947M40.5957 23.9551C40.5958 23.9538 40.5966 23.9525 40.5967 23.9512C40.5968 23.9486 40.5965 23.9454 40.5967 23.9424M40.5957 23.9551H40.5947M40.5947 23.9551C40.5951 23.9506 40.5964 23.9464 40.5967 23.9424M40.5967 23.9424C40.597 23.9353 40.5965 23.9272 40.5967 23.918M7.40234 23.9004C7.40249 23.9085 7.40292 23.9172 7.40332 23.9268C7.40259 23.9033 7.40324 23.8731 7.40527 23.8379C7.40406 23.8587 7.40241 23.877 7.40234 23.8916C7.40233 23.8946 7.40233 23.8975 7.40234 23.9004ZM8.13867 22.9307C8.14585 22.9287 8.15298 22.9266 8.16016 22.9248C8.15299 22.9266 8.14587 22.9287 8.13867 22.9307ZM8.13867 22.9307C8.11404 22.9374 8.08911 22.9453 8.06445 22.9541C8.0592 22.956 8.05401 22.958 8.04883 22.96C8.07896 22.9486 8.10893 22.9388 8.13867 22.9307ZM39.582 24.8955C39.5451 24.8949 39.5073 24.8917 39.4688 24.8867C39.508 24.8918 39.5457 24.8949 39.582 24.8955ZM39.707 24.8887C39.676 24.8921 39.6441 24.8951 39.6113 24.8955C39.6447 24.8951 39.6766 24.892 39.707 24.8887ZM8.37695 24.8936C8.34985 24.8929 8.32344 24.8923 8.29785 24.8896C8.28899 24.8887 8.28011 24.8869 8.27148 24.8857C8.30491 24.8902 8.34003 24.8926 8.37695 24.8936ZM39.7266 24.8877H39.7236C39.7266 24.8873 39.7295 24.8861 39.7324 24.8857C39.7304 24.886 39.7286 24.8874 39.7266 24.8877ZM39.4404 24.8828C39.416 24.8789 39.3911 24.8751 39.3662 24.8691C39.3552 24.8665 39.3448 24.8623 39.334 24.8594C39.3688 24.8689 39.4042 24.877 39.4404 24.8828ZM8.11719 24.8545C8.14926 24.864 8.18473 24.871 8.22266 24.8779C8.18601 24.8712 8.15153 24.8647 8.12012 24.8555L8.11719 24.8545ZM39.8828 24.8535C39.877 24.8552 39.8712 24.8568 39.8652 24.8584C39.8712 24.8567 39.8771 24.8552 39.8828 24.8535ZM40.0439 24.7891C40.0147 24.8037 39.9821 24.8177 39.9463 24.8311C39.9823 24.8176 40.0149 24.8036 40.0439 24.7891ZM8.75977 24.8291C8.758 24.8298 8.75567 24.8294 8.75391 24.8301C8.75954 24.828 8.76496 24.8254 8.77051 24.8232C8.76675 24.8247 8.76356 24.8276 8.75977 24.8291ZM7.99805 24.8096C7.9946 24.808 7.99062 24.8072 7.9873 24.8057C7.97601 24.8005 7.96559 24.7943 7.95508 24.7891C7.96856 24.7958 7.98279 24.8028 7.99805 24.8096ZM8.88477 24.7695C8.87664 24.774 8.8687 24.7789 8.86035 24.7832C8.86869 24.7789 8.87664 24.774 8.88477 24.7695ZM40.1338 24.7393C40.1155 24.7509 40.0948 24.7637 40.0713 24.7764C40.0951 24.7636 40.1158 24.7507 40.1338 24.7393ZM7.91797 24.7695C7.87753 24.7471 7.84403 24.7255 7.81836 24.707C7.81687 24.706 7.81592 24.7042 7.81445 24.7031C7.84238 24.7234 7.87672 24.7467 7.91797 24.7695ZM9.01367 24.6846C8.98546 24.7065 8.95493 24.7264 8.92285 24.7461C8.95483 24.7265 8.98536 24.7065 9.01367 24.6846ZM39.0371 24.7236C39.034 24.7215 39.0305 24.7199 39.0273 24.7178C39.0149 24.7091 39.0039 24.6984 38.9922 24.6895C39.0071 24.7009 39.0215 24.713 39.0371 24.7236ZM40.165 24.7197C40.1637 24.7206 40.1615 24.7208 40.1602 24.7217C40.2042 24.6917 40.2394 24.6633 40.2646 24.6406C40.237 24.6654 40.204 24.6929 40.165 24.7197ZM9.11523 24.5938C9.09557 24.6138 9.07515 24.6341 9.05273 24.6533C9.07565 24.6336 9.09572 24.6127 9.11523 24.5928V24.5938ZM38.9141 24.625C38.9031 24.6147 38.8929 24.6041 38.8828 24.5938H38.8838C38.8938 24.604 38.9033 24.6149 38.9141 24.625ZM40.3369 24.5703C40.3252 24.5831 40.3092 24.5977 40.291 24.6152C40.3231 24.5843 40.3471 24.5557 40.3643 24.5352C40.3553 24.5459 40.3475 24.5587 40.3369 24.5703ZM7.64062 24.542C7.63589 24.5364 7.63061 24.5318 7.62695 24.5273C7.62378 24.5235 7.6211 24.5193 7.61816 24.5156C7.62454 24.5237 7.63236 24.5323 7.64062 24.542ZM40.4141 24.4746C40.4083 24.4828 40.3994 24.4907 40.3916 24.501C40.4104 24.4762 40.4259 24.4549 40.4365 24.4385C40.4294 24.4496 40.4227 24.4624 40.4141 24.4746ZM40.4814 24.3652C40.4798 24.3683 40.4776 24.3714 40.4756 24.375C40.4804 24.3662 40.4842 24.3586 40.4873 24.3525C40.4853 24.3565 40.4836 24.3611 40.4814 24.3652ZM40.5361 24.2373C40.5287 24.2578 40.5214 24.2798 40.5117 24.3018C40.507 24.3125 40.5004 24.3252 40.4932 24.3398L40.1484 24.1699L40.5361 24.2373ZM40.583 23.7256C40.5852 23.7381 40.5843 23.7508 40.5859 23.7627C40.5834 23.7441 40.5822 23.724 40.5781 23.7031C40.5797 23.7111 40.5818 23.7185 40.583 23.7256ZM40.5547 23.6084C40.559 23.6226 40.5621 23.6364 40.5654 23.6494C40.5622 23.6368 40.5591 23.623 40.5547 23.6084ZM40.5146 23.4971C40.521 23.5117 40.5249 23.527 40.5303 23.541C40.5211 23.517 40.5116 23.4912 40.499 23.4648C40.5044 23.4761 40.5101 23.4867 40.5146 23.4971ZM7.48438 23.4971C7.49816 23.4654 7.51735 23.4293 7.54004 23.3906C7.5172 23.4296 7.49818 23.4653 7.48438 23.4971ZM40.4639 23.3984C40.4696 23.4085 40.4754 23.4181 40.4805 23.4277C40.4755 23.4183 40.4697 23.4087 40.4639 23.3984ZM40.4131 23.3193C40.4214 23.3311 40.4291 23.343 40.4365 23.3545C40.4292 23.3431 40.4215 23.3313 40.4131 23.3193ZM7.58496 23.3193C7.58112 23.3248 7.57787 23.3305 7.57422 23.3359C7.57649 23.3326 7.5787 23.3286 7.58105 23.3252C7.58254 23.3231 7.58344 23.3205 7.58496 23.3184V23.3193ZM40.3193 23.207C40.3371 23.2257 40.3538 23.2441 40.3691 23.2627C40.3539 23.2442 40.3373 23.2258 40.3193 23.207ZM7.65918 23.2266C7.65378 23.2326 7.64869 23.2391 7.64355 23.2451C7.65619 23.2304 7.67017 23.2161 7.68457 23.2012C7.67614 23.2099 7.6671 23.2178 7.65918 23.2266ZM40.2666 23.1533C40.2711 23.1573 40.275 23.162 40.2793 23.166C40.2559 23.1442 40.2298 23.1236 40.2021 23.1025C40.224 23.1191 40.2463 23.1351 40.2666 23.1533ZM8.99512 23.0908C9.02479 23.1127 9.05058 23.1347 9.07227 23.1543C9.05061 23.1347 9.02237 23.1116 8.98828 23.0869C8.99043 23.0885 8.99305 23.0893 8.99512 23.0908ZM7.75684 23.1318C7.75999 23.1292 7.76338 23.1267 7.7666 23.124C7.77036 23.1209 7.77449 23.1183 7.77832 23.1152C7.7712 23.1209 7.7637 23.126 7.75684 23.1318ZM40.1406 23.0576C40.1462 23.0612 40.1518 23.0647 40.1572 23.0684C40.1518 23.0647 40.1462 23.0612 40.1406 23.0576ZM7.88672 23.04C7.89741 23.0336 7.90786 23.0266 7.91895 23.0205C7.90785 23.0266 7.89739 23.0336 7.88672 23.04ZM8.875 23.0146C8.87833 23.0164 8.88152 23.0187 8.88477 23.0205C8.87299 23.014 8.86064 23.0074 8.84766 23.001C8.85715 23.0057 8.86639 23.01 8.875 23.0146ZM39.126 23.0146C39.1337 23.0105 39.1421 23.0071 39.1504 23.0029C39.1421 23.0071 39.1337 23.0105 39.126 23.0146ZM7.94238 23.0088C7.97183 22.9935 8.00211 22.9785 8.03418 22.9658C8.00199 22.9785 7.97173 22.9936 7.94238 23.0088ZM8.71973 22.9492C8.74952 22.9592 8.77756 22.9685 8.80273 22.9795C8.77843 22.9689 8.75035 22.9595 8.71973 22.9492ZM39.252 22.959C39.2603 22.9559 39.2686 22.9522 39.2773 22.9492C39.2845 22.9468 39.2921 22.9448 39.2998 22.9424C39.2832 22.9476 39.2674 22.9533 39.252 22.959ZM39.8652 22.9336C39.876 22.9366 39.8869 22.9391 39.8975 22.9424C39.8869 22.9391 39.876 22.9366 39.8652 22.9336ZM39.3486 22.9287C39.3712 22.9229 39.3954 22.9187 39.4209 22.9141C39.3959 22.9186 39.3717 22.9228 39.3486 22.9287ZM8.18457 22.9199C8.2081 22.9147 8.23158 22.9107 8.25488 22.9072C8.2317 22.9107 8.20823 22.9147 8.18457 22.9199ZM8.54688 22.9072C8.55346 22.9082 8.55997 22.9091 8.56641 22.9102C8.55997 22.9091 8.55346 22.9082 8.54688 22.9072ZM39.7373 22.9062C39.7429 22.907 39.7484 22.9083 39.7539 22.9092C39.7444 22.9077 39.735 22.9065 39.7256 22.9053C39.7295 22.9058 39.7334 22.9057 39.7373 22.9062ZM39.6133 22.8975C39.6034 22.8973 39.5937 22.8973 39.584 22.8975C39.5936 22.8973 39.6034 22.8973 39.6133 22.8975ZM8.4209 22.8965C8.41507 22.8964 8.40921 22.8955 8.40332 22.8955C8.40462 22.8955 8.40593 22.8955 8.40723 22.8955C8.41178 22.8955 8.4164 22.8964 8.4209 22.8965Z" fill="white" stroke="white" stroke-width="2"/>
</svg>
