<svg width="189" height="28" viewBox="0 0 189 28" fill="none" xmlns="http://www.w3.org/2000/svg">
<g clip-path="url(#clip0_1177_136)">
<path d="M23.1279 0.114258C23.3724 0.114258 23.5122 0.288544 23.5122 0.427972V27.6863C23.5122 27.8257 23.3724 28 23.1279 28H18.5163C18.4464 28 18.2368 27.9651 18.2018 27.8954L5.34526 9.52569V21.3074H0V0.427972C0 0.288544 0.174682 0.114258 0.349364 0.114258H4.9959C5.06577 0.114258 5.27539 0.149114 5.31033 0.218828L18.2018 18.5885V0.427972C18.2018 0.288544 18.3765 0.114258 18.6211 0.114258H23.1279ZM39.3744 22.8063V28H26.4829C26.2732 28 26.0986 27.8257 26.0986 27.6863V0.427972C26.0986 0.288544 26.2732 0.114258 26.4829 0.114258H39.3744V5.16854H31.4438V11.4777H42.4138C42.6235 11.4777 42.7981 11.6171 42.7981 11.7914V16.2183C42.7981 16.3577 42.6235 16.532 42.4138 16.532H31.4438V22.8063H39.3744ZM70.501 0.114258C70.8853 0.114258 71.0251 0.393114 70.8504 0.637116L61.2079 14.0571C63.2692 16.8805 65.3304 19.7737 67.3917 22.6668H60.8935L57.9938 18.5885L51.3209 27.8954C51.286 27.9651 51.0764 28 51.0065 28H45.4167C45.0673 28 44.9276 27.7211 45.1372 27.4771L54.7098 14.0571C52.6485 11.2337 50.6222 8.34054 48.561 5.4474H55.0591L57.9938 9.52569L64.5968 0.218828C64.6317 0.149114 64.8413 0.114258 64.9112 0.114258H70.501ZM79.3863 10.2228H84.6966V27.6863C84.6966 27.8257 84.5219 28 84.2774 28H79.7706C79.526 28 79.3863 27.8257 79.3863 27.6863V10.2228ZM74.0061 4.88969C73.7965 4.88969 73.6218 4.75026 73.6218 4.57597V0.427972C73.6218 0.288544 73.7965 0.114258 74.0061 0.114258H90.0419C90.2864 0.114258 90.4262 0.288544 90.4262 0.427972V4.57597C90.4262 4.75026 90.2864 4.88969 90.0419 4.88969H74.0061Z" fill="#001A48"/>
<path d="M98.509 0H174.968C182.718 0 189 6.268 189 14C189 21.732 182.718 28 174.968 28H98.509V0Z" fill="#0055F1"/>
<path d="M107.902 21.9999V5.99995H113.217C117.638 5.99995 121.235 9.58852 121.235 13.9999C121.235 18.4114 117.638 21.9999 113.217 21.9999H107.902ZM111.063 18.8457H113.217C115.851 18.8457 118.073 16.6857 118.073 13.9999C118.073 11.3371 115.863 9.15423 113.217 9.15423H111.063V18.8457ZM123.919 21.9999V5.99995H134.068V9.15423H127.081V11.8514H132.533V15.0057H127.081V18.8457H134.068V21.9999H123.919ZM142.456 5.99995H146.053L151.872 21.9999H148.516L147.553 19.3485H140.956L139.993 21.9999H136.637L142.456 5.99995ZM142.113 16.1942H146.397L144.243 10.3314L142.113 16.1942ZM154.679 21.9999V5.99995H157.841V18.8457H164.301V21.9999H154.679ZM173.574 22.2971C170.882 22.2971 168.328 20.9599 167.515 18.7542L170.481 17.6571C170.756 18.4342 172.016 19.1428 173.574 19.1428C175.063 19.1428 176.449 18.4228 176.449 17.3599C176.449 16.2742 174.972 15.7942 173.574 15.5771C170.115 15.0742 167.526 13.7485 167.526 10.6514C167.526 7.69138 170.367 5.71423 173.574 5.71423C176.243 5.71423 178.82 7.03995 179.622 9.27995L176.655 10.3542C176.381 9.57709 175.121 8.89138 173.574 8.89138C172.108 8.86852 170.688 9.6228 170.688 10.6514C170.688 11.9999 171.993 12.1828 173.574 12.4228C176.839 12.9142 179.611 14.4457 179.611 17.3599C179.611 20.3199 176.816 22.2971 173.574 22.2971Z" fill="white"/>
</g>
<defs>
<clipPath id="clip0_1177_136">
<rect width="189" height="28" fill="white"/>
</clipPath>
</defs>
</svg>
