<svg width="48" height="48" viewBox="0 0 48 48" fill="none" xmlns="http://www.w3.org/2000/svg">
<path d="M15.8643 3.5H16.1357C18.4434 3.49995 20.321 3.50194 21.8408 3.65039L22.4707 3.72266C24.0425 3.93683 25.3122 4.37046 26.3291 5.2998L26.5283 5.49219C27.4477 6.42411 27.926 7.57918 28.1826 8.99609L28.2793 9.61914C28.4978 11.266 28.5 13.3722 28.5 16.0439V44.5H15.8643C13.5565 44.5 11.6789 44.4981 10.1592 44.3496L9.5293 44.2773C7.95741 44.0632 6.68772 43.6296 5.6709 42.7002L5.47168 42.5078C4.55238 41.5761 4.07406 40.4215 3.81738 39.0049L3.7207 38.3809C3.50225 36.7339 3.49994 34.6276 3.5 31.9561V16.0439L3.50391 14.1445C3.51287 12.647 3.5436 11.3601 3.64844 10.2578L3.7207 9.61914C3.93283 8.02015 4.36246 6.72804 5.28125 5.69531L5.47168 5.49219C6.45492 4.49583 7.68738 4.01316 9.21875 3.76855L9.5293 3.72266C10.7456 3.55692 12.2172 3.51481 13.9893 3.50391L15.8643 3.5ZM16 5.40918C13.5918 5.40918 11.7799 5.41055 10.3594 5.54785L9.77344 5.61523C8.29756 5.81633 7.42034 6.19804 6.77539 6.85156C6.21264 7.42189 5.8553 8.16983 5.64258 9.3457L5.56055 9.87695C5.35926 11.3944 5.35742 13.3911 5.35742 16.1816V31.8184C5.35742 34.2602 5.35888 36.0943 5.49414 37.5312L5.56055 38.123C5.74576 39.5193 6.08555 40.3838 6.65723 41.0234L6.77539 41.1484C7.33967 41.7202 8.08166 42.0842 9.24707 42.3008L9.77344 42.3848C11.274 42.5893 13.2475 42.5908 16 42.5908H26.6426V16.1816C26.6426 13.7398 26.6411 11.9057 26.5059 10.4688L26.4395 9.87695C26.2543 8.48055 25.9144 7.61618 25.3428 6.97656L25.2246 6.85156C24.6602 6.27985 23.9184 5.91589 22.7529 5.69922L22.2266 5.61523C20.726 5.41079 18.7525 5.40918 16 5.40918Z" fill="white" stroke="white" stroke-width="2"/>
<path d="M11 29H13C13.5523 29 14 29.4477 14 30C14 30.5523 13.5523 31 13 31H11C10.4477 31 10 30.5523 10 30C10 29.4477 10.4477 29 11 29ZM19 29H21C21.5523 29 22 29.4477 22 30C22 30.5523 21.5523 31 21 31H19C18.4477 31 18 30.5523 18 30C18 29.4477 18.4477 29 19 29ZM11 21H13C13.5523 21 14 21.4477 14 22C14 22.5523 13.5523 23 13 23H11C10.4477 23 10 22.5523 10 22C10 21.4477 10.4477 21 11 21ZM19 21H21C21.5523 21 22 21.4477 22 22C22 22.5523 21.5523 23 21 23H19C18.4477 23 18 22.5523 18 22C18 21.4477 18.4477 21 19 21ZM11 13H13C13.5523 13 14 13.4477 14 14C14 14.5523 13.5523 15 13 15H11C10.4477 15 10 14.5523 10 14C10 13.4477 10.4477 13 11 13ZM19 13H21C21.5523 13 22 13.4477 22 14C22 14.5523 21.5523 15 21 15H19C18.4477 15 18 14.5523 18 14C18 13.4477 18.4477 13 19 13Z" fill="white" stroke="white" stroke-width="2"/>
<path d="M36.1045 15.5C37.6985 15.4999 38.986 15.5014 40.0254 15.6016L40.4561 15.6514C41.5297 15.7957 42.3766 16.0849 43.0498 16.6924L43.1816 16.8184C43.7889 17.4256 44.1095 18.1804 44.2832 19.127L44.3486 19.5439H44.3496C44.4987 20.6521 44.5 22.0743 44.5 23.8965V36.1035C44.5 37.698 44.4986 38.986 44.3984 40.0254L44.3496 40.4561H44.3486C44.2043 41.5297 43.9151 42.3765 43.3076 43.0498L43.1816 43.1816C42.5746 43.7889 41.8196 44.1095 40.873 44.2832L40.4561 44.3486V44.3496C39.3479 44.4987 37.9257 44.5 36.1035 44.5H27.5V15.5H36.1045ZM35 27.5C33.6193 27.5 32.5 28.6193 32.5 30C32.5 31.3807 33.6193 32.5 35 32.5H37C38.3807 32.5 39.5 31.3807 39.5 30C39.5 28.6193 38.3807 27.5 37 27.5H35ZM35 19.5C33.6193 19.5 32.5 20.6193 32.5 22C32.5 23.3807 33.6193 24.5 35 24.5H37C38.3807 24.5 39.5 23.3807 39.5 22C39.5 20.6193 38.3807 19.5 37 19.5H35Z" fill="white" stroke="white" stroke-width="2"/>
</svg>
