<svg width="29" height="28" viewBox="0 0 29 28" fill="none" xmlns="http://www.w3.org/2000/svg">
<g id="ProfileVerification_tick">
<path id="Vector" fill-rule="evenodd" clip-rule="evenodd" d="M15.8345 0.543486C14.9649 -0.181162 13.7017 -0.181162 12.8322 0.543486L9.94973 2.94555H5.62381C4.32878 2.94555 3.27893 3.99539 3.27893 5.29043V9.61635L0.87686 12.4989C0.152212 13.3684 0.152212 14.6315 0.87686 15.5011L3.27893 18.3836L3.27894 22.7096C3.27894 24.0046 4.32878 25.0544 5.62382 25.0544H9.94973L12.8322 27.4565C13.7017 28.1812 14.9649 28.1812 15.8345 27.4565L18.717 25.0544H23.0429C24.338 25.0544 25.3878 24.0046 25.3878 22.7096V18.3836L27.7899 15.5011C28.5145 14.6315 28.5145 13.3684 27.7899 12.4989L25.3878 9.61635V5.29043C25.3878 3.99539 24.338 2.94555 23.0429 2.94555H18.717L15.8345 0.543486ZM18.9722 11.8386C19.6285 11.4967 19.8835 10.6875 19.5417 10.0312C19.1999 9.37483 18.3905 9.11988 17.7343 9.46172C15.821 10.4583 14.2598 12.366 13.2283 13.8703C13.1391 14.0005 13.0528 14.1292 12.9697 14.2554C12.7823 14.5403 12.611 14.8136 12.4571 15.0681C12.3421 14.9708 12.2304 14.881 12.1242 14.7989C12.0902 14.7727 12.0568 14.7473 12.0241 14.7226C11.7356 14.5054 11.4761 14.3342 11.2866 14.216C11.1915 14.1566 11.113 14.11 11.056 14.0769C11.0275 14.0604 11.0042 14.0472 10.9869 14.0375L10.9654 14.0256L10.9581 14.0216L10.9554 14.0201L10.9532 14.0189C10.3029 13.6657 9.48942 13.9065 9.13621 14.5567C8.78307 15.2069 9.02415 16.0205 9.6741 16.3738L9.67688 16.3753L9.71262 16.3958C9.74667 16.4155 9.80004 16.4471 9.86821 16.4896C10.0054 16.5752 10.1981 16.7024 10.4121 16.8634C10.8591 17.2 11.3145 17.6225 11.5908 18.0624C11.8503 18.4758 12.3141 18.7152 12.8014 18.6876C13.2885 18.66 13.7222 18.3694 13.9335 17.9296L13.9369 17.9226L13.9539 17.8882C13.9697 17.8563 13.9944 17.8071 14.0275 17.7427C14.0937 17.6137 14.1935 17.4239 14.3239 17.1894C14.5851 16.7193 14.9653 16.0761 15.4385 15.3858C16.417 13.959 17.6697 12.517 18.9722 11.8386Z" fill="white"/>
</g>
</svg>
