<svg width="48" height="48" viewBox="0 0 48 48" fill="none" xmlns="http://www.w3.org/2000/svg">
<path d="M41.293 5.29297C41.659 4.92699 42.2382 4.90439 42.6309 5.22461L42.707 5.29297C43.0733 5.65921 43.0961 6.23905 42.7754 6.63184L42.707 6.70703L9.37891 40.0352L11.0537 40.4834C11.3632 40.5661 11.701 40.6364 12.0713 40.6963L12.4521 40.7529C14.2764 40.9982 16.6726 41 20 41H42C42.5523 41 43 41.4477 43 42C43 42.5523 42.5523 43 42 43H19.8564C17.0536 43 14.7821 42.9981 12.9463 42.8213L12.1855 42.7344C10.2943 42.4802 8.78449 41.9679 7.58008 40.8818L7.34277 40.6572C6.17871 39.493 5.60946 38.0283 5.31934 36.1875L5.26562 35.8145C5.00235 33.8562 4.99994 31.3467 5 28.1436V6C5 5.44773 5.44773 5 6 5C6.55229 5 7 5.44772 7 6V28C7 30.9115 7.00132 33.1098 7.16602 34.8359L7.24707 35.5479C7.31742 36.0711 7.40628 36.5344 7.5166 36.9473L7.96484 38.6221L9.19043 37.3955L41.293 5.29297Z" fill="white" stroke="white" stroke-width="2"/>
<path d="M30 6H30.0176C31.1221 6 32.0176 6.89544 32.0176 8C32.0176 9.10456 31.1221 10 30.0176 10H30C28.8955 10 28 9.10456 28 8C28 6.89544 28.8955 6 30 6Z" fill="white" stroke="white" stroke-width="2"/>
<path d="M16 3.5H16.0176C17.3983 3.5 18.5176 4.61928 18.5176 6C18.5176 7.38072 17.3983 8.5 16.0176 8.5H16C14.6193 8.5 13.5 7.38072 13.5 6C13.5 4.61928 14.6193 3.5 16 3.5Z" fill="white" stroke="white"/>
<path d="M16 15.5H16.0176C17.3983 15.5 18.5176 16.6193 18.5176 18C18.5176 19.3807 17.3983 20.5 16.0176 20.5H16C14.6193 20.5 13.5 19.3807 13.5 18C13.5 16.6193 14.6193 15.5 16 15.5Z" fill="white" stroke="white"/>
<path d="M40 19.5H40.0176C41.3982 19.5 42.5176 20.6193 42.5176 22C42.5176 23.3807 41.3982 24.5 40.0176 24.5H40C38.6193 24.5 37.5 23.3807 37.5 22C37.5 20.6193 38.6193 19.5 40 19.5Z" fill="white" stroke="white"/>
<path d="M26 31.5H26.0176C27.3982 31.5 28.5176 32.6193 28.5176 34C28.5176 35.3807 27.3982 36.5 26.0176 36.5H26C24.6193 36.5 23.5 35.3807 23.5 34C23.5 32.6193 24.6193 31.5 26 31.5Z" fill="white" stroke="white"/>
</svg>
