<svg width="29" height="28" viewBox="0 0 29 28" fill="none" xmlns="http://www.w3.org/2000/svg">
<g id="store-location-02-solid-rounded">
<path id="Vector" d="M3.83 10.7915C4.47434 10.7915 4.99666 11.3138 4.99666 11.9582V17.2082C4.99666 18.8911 4.99915 20.0358 5.1144 20.8932C5.22516 21.7169 5.42042 22.0984 5.68009 22.3581C5.93975 22.6178 6.32127 22.8131 7.14501 22.9238C8.0023 23.0391 9.14711 23.0415 10.83 23.0415H14.33C14.9743 23.0415 15.4967 23.5638 15.4967 24.2082C15.4967 24.8525 14.9743 25.3748 14.33 25.3748H10.7477C9.16786 25.3748 7.86515 25.375 6.8341 25.2362C5.75163 25.0908 4.79564 24.7734 4.03017 24.008C3.26471 23.2425 2.94741 22.2866 2.80188 21.2041C2.66326 20.173 2.6633 18.8703 2.66333 17.2905V11.9582C2.66333 11.3138 3.18567 10.7915 3.83 10.7915Z" fill="white"/>
<path id="Vector_2" d="M4.05333 4.61939C4.05333 2.86767 5.48203 1.4585 7.23097 1.4585H21.429C23.178 1.4585 24.6067 2.86767 24.6067 4.61939C24.6067 5.2615 24.7754 5.89287 25.0968 6.45112L26.2474 8.45003C26.5493 8.9741 26.7945 9.39963 26.8538 10.1113C26.8778 10.4005 26.8805 10.6438 26.8437 10.8786C26.8084 11.1036 26.7411 11.2838 26.6915 11.4165L26.6843 11.4361C26.0626 13.1052 24.4477 14.2918 22.5565 14.2918C20.9742 14.2918 19.5827 13.46 18.807 12.2086C17.7528 13.4839 16.132 14.2918 14.33 14.2918C12.528 14.2918 10.9072 13.4839 9.85302 12.2086C9.07735 13.46 7.6859 14.2918 6.10354 14.2918C4.21229 14.2918 2.59747 13.1052 1.97576 11.4361L1.96842 11.4164C1.91888 11.2838 1.85158 11.1036 1.8163 10.8786C1.77947 10.6438 1.78214 10.4005 1.80622 10.1113C1.86548 9.39962 2.11066 8.9741 2.4126 8.45003L3.56322 6.45112C3.88456 5.89287 4.05333 5.2615 4.05333 4.61939Z" fill="white"/>
<path id="Vector_3" fill-rule="evenodd" clip-rule="evenodd" d="M7.32996 19.8332C7.32996 19.1888 7.8523 18.6665 8.49662 18.6665H13.1633C13.8076 18.6665 14.33 19.1888 14.33 19.8332C14.33 20.4775 13.8076 20.9998 13.1633 20.9998H8.49662C7.8523 20.9998 7.32996 20.4775 7.32996 19.8332Z" fill="white"/>
<path id="Vector_4" fill-rule="evenodd" clip-rule="evenodd" d="M21.9133 14.875C19.1906 14.875 16.955 17.045 16.955 19.7567C16.955 21.3016 17.7323 22.4557 18.5382 23.3792C18.8255 23.7083 19.1411 24.0347 19.436 24.3397C19.5478 24.4552 19.6568 24.568 19.76 24.6764C20.1522 25.0887 20.4894 25.468 20.7498 25.8551C20.9677 26.1791 21.3573 26.5417 21.9201 26.5417C22.4924 26.5417 22.8808 26.1683 23.092 25.8319C23.3393 25.4376 23.6663 25.0592 24.0519 24.6528C24.1779 24.5201 24.3166 24.378 24.4605 24.2306C24.7285 23.9562 25.0142 23.6635 25.2677 23.3798C26.0799 22.4711 26.8716 21.3328 26.8716 19.7567C26.8716 17.045 24.6359 14.875 21.9133 14.875ZM21.9055 21.5833C20.9433 21.5833 20.1633 20.7998 20.1633 19.8333C20.1633 18.8669 20.9433 18.0833 21.9055 18.0833H21.9211C22.8833 18.0833 23.6633 18.8669 23.6633 19.8333C23.6633 20.7998 22.8833 21.5833 21.9211 21.5833H21.9055Z" fill="white"/>
</g>
</svg>
