<svg width="48" height="48" viewBox="0 0 48 48" fill="none" xmlns="http://www.w3.org/2000/svg">
<path d="M42 20.5C42.5523 20.5 43 20.9477 43 21.5V30.6406C43 33.0328 42.9989 34.9829 42.8467 36.5625L42.7715 37.2168C42.5367 38.962 42.0444 40.354 40.9492 41.4492C39.9224 42.476 38.635 42.9733 37.04 43.2246L36.7168 43.2715C35.0308 43.4983 32.8751 43.5 30.1416 43.5H17.8584C15.4665 43.5 13.5169 43.499 11.9375 43.3467L11.2832 43.2715C9.64708 43.0516 8.32058 42.6058 7.25879 41.6484L7.0498 41.4492C6.02334 40.4225 5.52674 39.1348 5.27539 37.54L5.22852 37.2168C5.00188 35.5307 4.99994 33.3749 5 30.6416V21.5C5 20.9477 5.44771 20.5 6 20.5C6.5523 20.5 7 20.9477 7 21.5V30.5C7 32.999 7.00143 34.875 7.1416 36.3447L7.21094 36.9502C7.41585 38.4741 7.80348 39.3737 8.46484 40.0352C9.04363 40.614 9.80447 40.9837 11.0068 41.2041L11.5498 41.2891C13.1017 41.4977 15.1442 41.5 18 41.5H30C32.4989 41.5 34.3751 41.4986 35.8447 41.3584L36.4502 41.2891C37.9742 41.0842 38.8737 40.6966 39.5352 40.0352C40.114 39.4563 40.4837 38.6955 40.7041 37.4932L40.7891 36.9502C40.9977 35.3981 41 33.3558 41 30.5V21.5C41 20.9477 41.4477 20.5 42 20.5Z" fill="white" stroke="white" stroke-width="2"/>
<path d="M29.3359 33.252C29.723 32.9084 30.3028 32.9199 30.6758 33.2627L30.748 33.3359C31.0916 33.723 31.08 34.3028 30.7373 34.6758L30.6641 34.748C29.0779 36.156 26.6469 37 24 37C21.5185 37 19.2273 36.2578 17.6436 35.0049L17.3359 34.748C16.9487 34.4043 16.8918 33.8271 17.1885 33.416L17.252 33.3359C17.5957 32.9487 18.1728 32.8919 18.584 33.1885L18.6641 33.252C19.8136 34.2723 21.7387 35 24 35C26.1199 35 27.9444 34.3601 29.1113 33.4395L29.3359 33.252Z" fill="white" stroke="white" stroke-width="2"/>
<path d="M11.8301 4.5H36.1699C38.6233 4.50006 40.6172 6.47575 40.6172 8.91895C40.6172 10.1153 40.9118 11.2927 41.4746 12.3486L41.5908 12.5576L43.5635 15.9844C44.0122 16.7632 44.3097 17.2909 44.4316 18.0674L44.4727 18.416C44.5013 18.7609 44.508 19.0315 44.4902 19.2676L44.4639 19.4941C44.4422 19.6324 44.4105 19.7579 44.374 19.877L44.2549 20.2207L44.252 20.2266L44.2402 20.2598C43.3155 22.7369 40.9152 24.5 38.1025 24.5C35.7481 24.5 33.6782 23.2636 32.5244 21.4023L31.791 20.2188L30.9043 21.292C29.2845 23.2514 26.787 24.5 24 24.5C21.213 24.5 18.7155 23.2514 17.0957 21.292L16.209 20.2188L15.4756 21.4023C14.3218 23.2636 12.252 24.5 9.89746 24.5C7.17096 24.5 4.83272 22.8432 3.84961 20.4854L3.75879 20.2549L3.75781 20.2539L3.74512 20.2197C3.68236 20.0517 3.6205 19.8827 3.5752 19.6924L3.53613 19.4941C3.50202 19.2766 3.49227 19.0378 3.50586 18.7383L3.52734 18.416C3.58859 17.6812 3.78122 17.1817 4.08984 16.6025L4.43652 15.9844L6.40918 12.5576C7.04721 11.4492 7.38277 10.195 7.38281 8.91895C7.38281 6.47576 9.37679 4.50009 11.8301 4.5Z" fill="white" stroke="white" stroke-width="2"/>
</svg>
