<svg width="29" height="28" viewBox="0 0 29 28" fill="none" xmlns="http://www.w3.org/2000/svg">
<g id="user-group-03-solid-rounded">
<path id="Vector" fill-rule="evenodd" clip-rule="evenodd" d="M11.8725 4.21133C10.0616 5.20136 8.83333 7.12383 8.83333 9.33317C8.83333 10.5163 9.18555 11.6171 9.79086 12.5366C7.47173 12.4274 5.625 10.5126 5.625 8.1665C5.625 5.75026 7.58375 3.7915 10 3.7915C10.67 3.7915 11.3048 3.94212 11.8725 4.21133ZM10.6122 14.2915C7.56211 15.1799 5.33333 17.9963 5.33333 21.3332C5.33333 21.9398 5.45799 22.5173 5.68308 23.0415H5C3.41218 23.0415 2.125 21.7543 2.125 20.1665C2.125 16.9219 4.75533 14.2915 7.99999 14.2915H10.6122ZM14.6667 4.95817C12.2504 4.95817 10.2917 6.91692 10.2917 9.33317C10.2917 11.7495 12.2504 13.7082 14.6667 13.7082C17.0829 13.7082 19.0417 11.7495 19.0417 9.33317C19.0417 6.91692 17.0829 4.95817 14.6667 4.95817ZM12.6666 15.4582C9.422 15.4582 6.79167 18.0885 6.79167 21.3332C6.79167 22.921 8.07885 24.2082 9.66667 24.2082H19.6666C21.2545 24.2082 22.5417 22.921 22.5417 21.3332C22.5417 18.0885 19.9113 15.4582 16.6667 15.4582H12.6666ZM20.5 9.33317C20.5 10.5163 20.1478 11.6171 19.5425 12.5366C21.8616 12.4274 23.7083 10.5126 23.7083 8.1665C23.7083 5.75026 21.7496 3.7915 19.3333 3.7915C18.6633 3.7915 18.0285 3.94212 17.4608 4.21133C19.2717 5.20136 20.5 7.12383 20.5 9.33317ZM24 21.3332C24 21.9398 23.8754 22.5173 23.6502 23.0415H24.3333C25.9211 23.0415 27.2083 21.7543 27.2083 20.1665C27.2083 16.9219 24.578 14.2915 21.3333 14.2915H18.7211C21.7712 15.1799 24 17.9963 24 21.3332Z" fill="white"/>
</g>
</svg>
