<svg width="28" height="28" viewBox="0 0 28 28" fill="none" xmlns="http://www.w3.org/2000/svg">
<g id="user-ai-solid-rounded">
<path id="Vector" fill-rule="evenodd" clip-rule="evenodd" d="M14.0007 1.45801C15.9661 1.45801 17.826 1.91014 19.482 2.71606C19.1817 3.12039 18.7386 3.41128 18.2252 3.51623C15.7038 4.03159 15.7035 7.63438 18.2252 8.14979C19.0436 8.31707 19.6833 8.95671 19.8506 9.7752C20.3659 12.2967 23.9688 12.2967 24.4841 9.7752C24.5891 9.26169 24.8799 8.81858 25.2843 8.51834C26.0902 10.1743 26.5423 12.0342 26.5423 13.9997C26.5423 20.9263 20.9273 26.5413 14.0007 26.5413C7.07408 26.5413 1.45898 20.9263 1.45898 13.9997C1.45898 7.0731 7.07408 1.45801 14.0007 1.45801ZM7.07112 20.4389C8.1097 18.6213 10.0425 17.4997 12.1359 17.4997H15.8655C17.9588 17.4997 19.8916 18.6213 20.9302 20.4389L21.3454 21.1656C19.4819 23.0753 16.8798 24.2611 14.0007 24.2611C11.1216 24.2611 8.51939 23.0753 6.65587 21.1656L7.07112 20.4389ZM17.5007 11.6663C17.5007 13.5994 15.9337 15.1663 14.0007 15.1663C12.0676 15.1663 10.5007 13.5994 10.5007 11.6663C10.5007 9.73335 12.0676 8.16634 14.0007 8.16634C15.9337 8.16634 17.5007 9.73335 17.5007 11.6663ZM23.0553 2.18285C22.8578 1.21641 21.4769 1.21638 21.2794 2.18285C20.9951 3.57376 19.9081 4.66074 18.5172 4.94503C17.5507 5.14256 17.5507 6.52345 18.5172 6.72099C19.9081 7.00527 20.9951 8.09226 21.2794 9.48317C21.4769 10.4496 22.8578 10.4496 23.0553 9.48317C23.3396 8.09226 24.4266 7.00527 25.8175 6.72099C26.7839 6.52345 26.7839 5.14256 25.8175 4.94503C24.4266 4.66074 23.3396 3.57376 23.0553 2.18285Z" fill="white"/>
</g>
</svg>
