<svg width="44" height="16" viewBox="0 0 44 16" fill="none" xmlns="http://www.w3.org/2000/svg">
<path d="M28.5272 1.50037C30.0553 1.49873 31.0322 1.5136 31.869 1.85291L32.035 1.92517C32.6912 2.23249 33.2237 2.73684 33.8885 3.49841L34.6073 4.34802L34.6083 4.349L42.3837 13.681V13.6801C42.4926 13.8108 42.5268 13.9866 42.4784 14.1459L42.453 14.2123V14.2133C42.3809 14.367 42.2362 14.4717 42.0712 14.4955L41.9999 14.5004L25.4969 14.5013H25.494C24.8958 14.5032 24.4379 14.4944 24.0389 14.3705L23.8719 14.3109C23.5428 14.1745 23.2571 13.9455 22.9315 13.6351L22.5897 13.2982L13.9794 4.68787C13.7822 4.49066 13.5621 4.267 13.3514 4.10779C13.147 3.95329 12.8538 3.78099 12.4735 3.75525L12.3055 3.75427C11.8429 3.77636 11.5135 4.00751 11.2977 4.20544C11.2005 4.29469 11.1017 4.4001 11.0057 4.51013L10.7274 4.84314L3.01257 14.1898C2.7088 14.5576 2.1735 14.6047 1.81238 14.3011C1.46828 14.0116 1.40113 13.5043 1.64832 13.1342L1.70203 13.0619L10.9872 1.81189C11.1416 1.62481 11.3546 1.52103 11.5751 1.5033L11.6708 1.50134L11.8104 1.50525C11.8387 1.50531 11.9107 1.50339 11.9862 1.50134L11.9852 1.50037H28.5272Z" fill="white" stroke="white" stroke-width="2"/>
</svg>
